{
.appVersion = "976";
copyright = "Copyright 2009 The Cairo Project Authors (gaber@gaberism.net)";
customParameters = (
{
name = license;
value = "This Font Software is licensed under the SIL Open Font License, Version 1.1. This license is available with a FAQ at: http://scripts.sil.org/OFL";
},
{
name = licenseURL;
value = "http://scripts.sil.org/OFL";
},
{
name = glyphOrder;
value = (
.notdef,
uni0000,
uni000D,
space,
exclam,
quotedbl,
numbersign,
dollar,
percent,
ampersand,
quotesingle,
parenleft,
parenright,
asterisk,
plus,
comma,
hyphen,
period,
slash,
zero,
one,
two,
three,
four,
five,
six,
seven,
eight,
nine,
colon,
semicolon,
less,
equal,
greater,
question,
at,
A,
B,
C,
D,
E,
F,
G,
H,
I,
J,
K,
L,
M,
N,
O,
P,
Q,
R,
S,
T,
U,
V,
W,
X,
Y,
Z,
bracketleft,
backslash,
bracketright,
asciicircum,
underscore,
grave,
a,
b,
c,
d,
e,
f,
g,
h,
i,
j,
k,
l,
m,
n,
o,
p,
q,
r,
s,
t,
u,
v,
w,
x,
y,
z,
braceleft,
bar,
braceright,
asciitilde,
uni00A0,
exclamdown,
cent,
sterling,
currency,
yen,
brokenbar,
section,
dieresis,
copyright,
ordfeminine,
guillemotleft,
logicalnot,
registered,
macron,
degree,
plusminus,
twosuperior,
threesuperior,
acute,
mu,
paragraph,
periodcentered,
cedilla,
onesuperior,
ordmasculine,
guillemotright,
onequarter,
onehalf,
threequarters,
questiondown,
Agrave,
Aacute,
Acircumflex,
Atilde,
Adieresis,
Aring,
AE,
Ccedilla,
Egrave,
Eacute,
Ecircumflex,
Edieresis,
Igrave,
Iacute,
Icircumflex,
Idieresis,
Eth,
Ntilde,
Ograve,
Oacute,
Ocircumflex,
Otilde,
Odieresis,
multiply,
Oslash,
Ugrave,
Uacute,
Ucircumflex,
Udieresis,
Yacute,
Thorn,
germandbls,
agrave,
aacute,
acircumflex,
atilde,
adieresis,
aring,
ae,
ccedilla,
egrave,
eacute,
ecircumflex,
edieresis,
igrave,
iacute,
icircumflex,
idieresis,
eth,
ntilde,
ograve,
oacute,
ocircumflex,
otilde,
odieresis,
divide,
oslash,
ugrave,
uacute,
ucircumflex,
udieresis,
yacute,
thorn,
ydieresis,
Amacron,
amacron,
Abreve,
abreve,
Aogonek,
aogonek,
Cacute,
cacute,
Ccircumflex,
ccircumflex,
Cdotaccent,
cdotaccent,
Ccaron,

glyphs = (
{
glyphname = exclam;
layers = (
{
layerId = "E174F030-6324-451A-8951-EA6336064495";
paths = (
{
closed = 1;
nodes = (
"199 250 LINE",
"213 680 LINE",
"68 680 LINE",
"81 250 LINE"
);
},
{
closed = 1;
nodes = (
"212 0 LINE",
"212 161 LINE",
"68 161 LINE",
"68 0 LINE"
);
}
);
width = 280;
},
{
layerId = "7BE58B69-D6A5-4645-9194-9194354D517E";
paths = (
{
closed = 1;
nodes = (
"158 228 LINE",
"163 692 LINE",
"84 692 LINE",
"89 228 LINE"
);
},
{
closed = 1;
nodes = (
"165 0 LINE",
"165 112 LINE",
"83 112 LINE",
"83 0 LINE"
);
}
);
width = 247;
}
);
unicode = 0021;
},
{
glyphname = quotedbl;
layers = (
{
layerId = "E174F030-6324-451A-8951-EA6336064495";
paths = (
{
closed = 1;
nodes = (
"350 440 LINE",
"357 680 LINE",
"228 680 LINE",
"232 440 LINE"
);
},
{
closed = 1;
nodes = (
"178 440 LINE",
"185 680 LINE",
"56 680 LINE",
"60 440 LINE"
);
}
);
width = 411;
},
{
layerId = "7BE58B69-D6A5-4645-9194-9194354D517E";
paths = (
{
closed = 1;
nodes = (
"302 470 LINE",
"307 692 LINE",
"232 692 LINE",
"235 470 LINE"
);
},
{
closed = 1;
nodes = (
"137 470 LINE",
"142 692 LINE",
"67 692 LINE",
"70 470 LINE"
);
}
);
width = 373;
}
);
leftKerningGroup = quotedbl;
rightKerningGroup = quotedbl;
unicode = 0022;
},
{
glyphname = numbersign;
layers = (
{
layerId = "E174F030-6324-451A-8951-EA6336064495";
paths = (
{
closed = 1;
nodes = (
"228 0 LINE",
"228 149 LINE",
"332 149 LINE",
"332 0 LINE",
"448 0 LINE",
"448 149 LINE",
"544 149 LINE",
"544 261 LINE",
"448 261 LINE",
"448 387 LINE",
"544 387 LINE",
"544 499 LINE",
"448 499 LINE",
"448 660 LINE",
"332 660 LINE",
"332 499 LINE",
"228 499 LINE",
"228 660 LINE",
"112 660 LINE",
"112 499 LINE",
"16 499 LINE",
"16 387 LINE",
"112 387 LINE",
"112 261 LINE",
"16 261 LINE",
"16 149 LINE",
"112 149 LINE",
"112 0 LINE"
);
},
{
closed = 1;
nodes = (
"228 387 LINE",
"332 387 LINE",
"332 261 LINE",
"228 261 LINE"
);
}
);
width = 560;
},
{
layerId = "7BE58B69-D6A5-4645-9194-9194354D517E";
paths = (
{
closed = 1;
nodes = (
"203 0 LINE",
"203 174 LINE",
"357 174 LINE",
"357 0 LINE",
"425 0 LINE",
"425 174 LINE",
"536 174 LINE",
"536 238 LINE",
"425 238 LINE",
"425 424 LINE",
"536 424 LINE",
"536 488 LINE",
"425 488 LINE",
"425 666 LINE",
"357 666 LINE",
"357 488 LINE",
"203 488 LINE",
"203 666 LINE",
"135 666 LINE",
"135 488 LINE",
"24 488 LINE",
"24 424 LINE",
"135 424 LINE",
"135 238 LINE",
"24 238 LINE",
"24 174 LINE",
"135 174 LINE",
"135 0 LINE"
);
},
{
closed = 1;
nodes = (
"203 424 LINE",
"357 424 LINE",
"357 238 LINE",
"203 238 LINE"
);
}
);
width = 560;
}
);
rightKerningGroup = numbersign;
unicode = 0023;
},
{
glyphname = dollar;
layers = (
{
layerId = "E174F030-6324-451A-8951-EA6336064495";
paths = (
{
closed = 1;
nodes = (
"279 -12 LINE",
"280 -12 LINE SMOOTH",
"416 -12 OFFCURVE",
"508 57 OFFCURVE",
"508 203 CURVE SMOOTH",
"508 311 OFFCURVE",
"458 350 OFFCURVE",
"329 391 CURVE",
"349 552 LINE",
"390 549 OFFCURVE",
"435 545 OFFCURVE",
"484 540 CURVE",
"495 646 LINE",
"478 650 LINE SMOOTH",
"450 656 OFFCURVE",
"380 665 OFFCURVE",
"364 666 CURVE",
"382 810 LINE",
"308 810 LINE",
"290 672 LINE",
"277 672 LINE SMOOTH",
"137 672 OFFCURVE",
"52 608 OFFCURVE",
"52 477 CURVE SMOOTH",
"52 378 OFFCURVE",
"100 323 OFFCURVE",
"241 281 CURVE",
"219 107 LINE",
"174 110 OFFCURVE",
"126 115 OFFCURVE",
"73 122 CURVE",
"60 18 LINE",
"80 14 LINE",
"113 6 OFFCURVE",
"155 -1 OFFCURVE",
"204 -7 CURVE",
"190 -123 LINE",
"190 -126 OFFCURVE",
"215 -128 OFFCURVE",
"264 -130 CURVE"
);
},
{
closed = 1;
nodes = (
"313 259 LINE",
"359 240 OFFCURVE",
"375 224 OFFCURVE",
"375 188 CURVE SMOOTH",
"375 143 OFFCURVE",
"350 112 OFFCURVE",
"294 106 CURVE"
);
},
{
closed = 1;
nodes = (
"201 436 OFFCURVE",
"185 453 OFFCURVE",
"185 485 CURVE SMOOTH",
"185 529 OFFCURVE",
"215 551 OFFCURVE",
"275 554 CURVE",
"258 415 LINE"
);
}
);
width = 560;
},
{
layerId = "7BE58B69-D6A5-4645-9194-9194354D517E";
paths = (
{
closed = 1;
nodes = (
"268 -9 LINE",
"283 -9 LINE",
"424 -9 OFFCURVE",
"494 59 OFFCURVE",
"494 194 CURVE",
"494 305 OFFCURVE",
"446 338 OFFCURVE",
"317 369 CURVE",
"347 602 LINE",
"386 599 OFFCURVE",
"428 594 OFFCURVE",
"474 589 CURVE",
"480 651 LINE",
"459 654 LINE",
"427 659 OFFCURVE",
"366 665 OFFCURVE",
"355 666 CURVE",
"372 798 LINE",
"321 798 LINE",
"304 669 LINE",
"281 670 LINE",
"140 670 OFFCURVE",
"69 626 OFFCURVE",
"69 493 CURVE",
"69 378 OFFCURVE",
"122 340 OFFCURVE",
"258 308 CURVE",
"225 58 LINE",
"181 61 OFFCURVE",
"133 66 OFFCURVE",
"82 73 CURVE",
"74 12 LINE",
"90 10 LINE",
"125 5 OFFCURVE",
"196 -4 OFFCURVE",
"217 -6 CURVE",
"203 -117 LINE",
"203 -120 OFFCURVE",
"220 -122 OFFCURVE",
"254 -124 CURVE"
);
},
{
closed = 1;
nodes = (
"308 298 LINE",
"391 278 OFFCURVE",
"420 259 OFFCURVE",
"420 189 CURVE",
"420 100 OFFCURVE",
"374 56 OFFCURVE",
"277 56 CURVE"
);
},
{
closed = 1;
nodes = (
"174 403 OFFCURVE",
"143 426 OFFCURVE",
"143 497 CURVE",
"143 582 OFFCURVE",
"188 605 OFFCURVE",
"296 605 CURVE",
"267 380 LINE"
);
}
);
width = 560;
}
);
rightKerningGroup = numbersign;
unicode = 0024;
},
{
glyphname = percent;
layers = (
{
layerId = "E174F030-6324-451A-8951-EA6336064495";
paths = (
{
closed = 1;
nodes = (
"433 673 LINE",
"360 699 LINE",
"125 -8 LINE",
"198 -32 LINE"
);
},
{
closed = 1;
nodes = (
"506 -12 OFFCURVE",
"546 37 OFFCURVE",
"546 134 CURVE",
"546 231 OFFCURVE",
"506 279 OFFCURVE",
"426 279 CURVE",
"346 279 OFFCURVE",
"306 231 OFFCURVE",
"306 134 CURVE",
"306 37 OFFCURVE",
"346 -12 OFFCURVE",
"426 -12 CURVE"
);
},
{
closed = 1;
nodes = (
"411 68 OFFCURVE",
"404 90 OFFCURVE",
"404 134 CURVE",
"404 177 OFFCURVE",
"411 199 OFFCURVE",
"426 199 CURVE",
"441 199 OFFCURVE",
"448 177 OFFCURVE",
"448 134 CURVE",
"448 90 OFFCURVE",
"441 68 OFFCURVE",
"426 68 CURVE"
);
},
{
closed = 1;
nodes = (
"214 381 OFFCURVE",
"254 430 OFFCURVE",
"254 527 CURVE",
"254 624 OFFCURVE",
"214 672 OFFCURVE",
"134 672 CURVE",
"54 672 OFFCURVE",
"14 624 OFFCURVE",
"14 527 CURVE",
"14 430 OFFCURVE",
"54 381 OFFCURVE",
"134 381 CURVE"
);
},
{
closed = 1;
nodes = (
"119 461 OFFCURVE",
"112 483 OFFCURVE",
"112 527 CURVE",
"112 570 OFFCURVE",
"119 592 OFFCURVE",
"134 592 CURVE",
"149 592 OFFCURVE",
"156 570 OFFCURVE",
"156 527 CURVE",
"156 483 OFFCURVE",
"149 461 OFFCURVE",
"134 461 CURVE"
);
}
);
width = 560;
},
{
layerId = "7BE58B69-D6A5-4645-9194-9194354D517E";
paths = (
{
closed = 1;
nodes = (
"408 665 LINE",
"360 681 LINE",
"155 -4 LINE",
"203 -18 LINE"
);
},
{
closed = 1;
nodes = (
"491 -10 OFFCURVE",
"532 37 OFFCURVE",
"532 133 CURVE SMOOTH",
"532 222 OFFCURVE",
"496 269 OFFCURVE",
"423 269 CURVE SMOOTH",
"350 269 OFFCURVE",
"313 223 OFFCURVE",
"313 132 CURVE SMOOTH",
"313 37 OFFCURVE",
"353 -10 OFFCURVE",
"422 -10 CURVE SMOOTH"
);
},
{
closed = 1;
nodes = (
"389 41 OFFCURVE",
"373 69 OFFCURVE",
"373 133 CURVE SMOOTH",
"373 192 OFFCURVE",
"387 218 OFFCURVE",
"423 218 CURVE SMOOTH",
"459 218 OFFCURVE",
"472 192 OFFCURVE",
"472 131 CURVE SMOOTH",
"472 71 OFFCURVE",
"459 41 OFFCURVE",
"423 41 CURVE SMOOTH"
);
},
{
closed = 1;
nodes = (
"207 391 OFFCURVE",
"248 437 OFFCURVE",
"248 533 CURVE SMOOTH",
"248 624 OFFCURVE",
"211 670 OFFCURVE",
"138 670 CURVE SMOOTH",
"65 670 OFFCURVE",
"28 624 OFFCURVE",
"28 533 CURVE SMOOTH",
"28 437 OFFCURVE",
"69 391 OFFCURVE",
"138 391 CURVE SMOOTH"
);
},
{
closed = 1;
nodes = (
"106 442 OFFCURVE",
"89 471 OFFCURVE",
"89 534 CURVE SMOOTH",
"89 593 OFFCURVE",
"104 619 OFFCURVE",
"139 619 CURVE SMOOTH",
"174 619 OFFCURVE",
"188 592 OFFCURVE",
"188 534 CURVE SMOOTH",
"188 471 OFFCURVE",
"172 442 OFFCURVE",
"139 442 CURVE SMOOTH"
);
}
);
width = 560;
}
);
rightKerningGroup = numbersign;
unicode = 0025;
},
{
glyphname = ampersand;
layers = (
{
layerId = "E174F030-6324-451A-8951-EA6336064495";
paths = (
{
closed = 1;
nodes = (
"397 -12 OFFCURVE",
"455 21 OFFCURVE",
"509 75 CURVE",
"615 -12 LINE",
"691 75 LINE",
"579 173 LINE",
"603 231 OFFCURVE",
"620 299 OFFCURVE",
"630 376 CURVE",
"500 379 LINE",
"499 343 OFFCURVE",
"489 271 OFFCURVE",
"481 251 CURVE",
"383 349 LINE",
"484 418 OFFCURVE",
"520 467 OFFCURVE",
"520 546 CURVE SMOOTH",
"520 659 OFFCURVE",
"446 712 OFFCURVE",
"317 712 CURVE SMOOTH",
"190 712 OFFCURVE",
"111 660 OFFCURVE",
"111 546 CURVE SMOOTH",
"111 500 OFFCURVE",
"124 462 OFFCURVE",
"177 399 CURVE",
"76 360 OFFCURVE",
"35 299 OFFCURVE",
"35 200 CURVE SMOOTH",
"35 66 OFFCURVE",
"109 -12 OFFCURVE",
"283 -12 CURVE SMOOTH"
);
},
{
closed = 1;
nodes = (
"210 108 OFFCURVE",
"171 141 OFFCURVE",
"171 207 CURVE SMOOTH",
"171 259 OFFCURVE",
"196 297 OFFCURVE",
"245 321 CURVE",
"418 148 LINE",
"398 124 OFFCURVE",
"340 108 OFFCURVE",
"287 108 CURVE SMOOTH"
);
},
{
closed = 1;
nodes = (
"292 443 LINE SMOOTH",
"262 475 OFFCURVE",
"247 502 OFFCURVE",
"247 535 CURVE SMOOTH",
"247 575 OFFCURVE",
"270 598 OFFCURVE",
"317 598 CURVE SMOOTH",
"361 598 OFFCURVE",
"384 577 OFFCURVE",
"384 533 CURVE SMOOTH",
"384 492 OFFCURVE",
"364 465 OFFCURVE",
"309 425 CURVE"
);
}
);
width = 701;
},
{
layerId = "7BE58B69-D6A5-4645-9194-9194354D517E";
paths = (
{
closed = 1;
nodes = (
"380 -10 OFFCURVE",
"448 16 OFFCURVE",
"503 104 CURVE",
"624 -9 LINE",
"669 41 LINE",
"540 163 LINE",
"562 218 OFFCURVE",
"577 288 OFFCURVE",
"586 371 CURVE",
"513 372 LINE",
"509 307 OFFCURVE",
"500 253 OFFCURVE",
"485 210 CURVE",
"333 360 LINE",
"442 410 OFFCURVE",
"487 458 OFFCURVE",
"487 547 CURVE SMOOTH",
"487 648 OFFCURVE",
"428 701 OFFCURVE",
"315 701 CURVE SMOOTH",
"204 701 OFFCURVE",
"140 649 OFFCURVE",
"140 543 CURVE SMOOTH",
"140 487 OFFCURVE",
"158 448 OFFCURVE",
"197 405 CURVE",
"94 372 OFFCURVE",
"42 321 OFFCURVE",
"42 202 CURVE SMOOTH",
"42 69 OFFCURVE",
"107 -10 OFFCURVE",
"280 -10 CURVE SMOOTH"
);
},
{
closed = 1;
nodes = (
"171 58 OFFCURVE",
"118 106 OFFCURVE",
"118 208 CURVE SMOOTH",
"118 295 OFFCURVE",
"157 332 OFFCURVE",
"240 358 CURVE",
"451 148 LINE",
"420 88 OFFCURVE",
"365 58 OFFCURVE",
"279 58 CURVE SMOOTH"
);
},
{
closed = 1;
nodes = (
"260 433 LINE",
"230 465 OFFCURVE",
"215 501 OFFCURVE",
"215 543 CURVE SMOOTH",
"215 605 OFFCURVE",
"248 636 OFFCURVE",
"314 636 CURVE SMOOTH",
"380 636 OFFCURVE",
"412 605 OFFCURVE",
"412 541 CURVE SMOOTH",
"412 475 OFFCURVE",
"377 443 OFFCURVE",
"289 405 CURVE"
);
}
);
width = 688;
}
);
rightKerningGroup = numbersign;
unicode = 0026;
},
{
glyphname = quotesingle;
layers = (
{
layerId = "E174F030-6324-451A-8951-EA6336064495";
paths = (
{
closed = 1;
nodes = (
"178 440 LINE",
"185 680 LINE",
"56 680 LINE",
"60 440 LINE"
);
}
);
width = 239;
},
{
layerId = "7BE58B69-D6A5-4645-9194-9194354D517E";
paths = (
{
closed = 1;
nodes = (
"137 470 LINE",
"142 692 LINE",
"67 692 LINE",
"70 470 LINE"
);
}
);
width = 208;
}
);
leftKerningGroup = quotedbl;
rightKerningGroup = quotedbl;
unicode = 0027;
},
{
glyphname = parenleft;
layers = (
{
layerId = "E174F030-6324-451A-8951-EA6336064495";
paths = (
{
closed = 1;
nodes = (
"281 -125 LINE",
"224 26 OFFCURVE",
"186 172 OFFCURVE",
"186 301 CURVE SMOOTH",
"186 420 OFFCURVE",
"238 641 OFFCURVE",
"281 750 CURVE",
"154 750 LINE",
"91 630 OFFCURVE",
"38 459 OFFCURVE",
"38 301 CURVE SMOOTH",
"38 158 OFFCURVE",
"93 -32 OFFCURVE",
"154 -125 CURVE"
);
}
);
width = 308;
},
{
layerId = "7BE58B69-D6A5-4645-9194-9194354D517E";
paths = (
{
closed = 1;
nodes = (
"227 -125 LINE",
"172 24 OFFCURVE",
"132 180 OFFCURVE",
"132 295 CURVE SMOOTH",
"132 421 OFFCURVE",
"180 626 OFFCURVE",
"227 750 CURVE",
"155 750 LINE",
"91 594 OFFCURVE",
"51 444 OFFCURVE",
"51 303 CURVE SMOOTH",
"51 172 OFFCURVE",
"86 31 OFFCURVE",
"155 -125 CURVE"
);
}
);
width = 264;
}
);
rightKerningGroup = numbersign;
unicode = 0028;
},
{
glyphname = parenright;
layers = (
{
layerId = "E174F030-6324-451A-8951-EA6336064495";
paths = (
{
closed = 1;
nodes = (
"214 -34 OFFCURVE",
"270 155 OFFCURVE",
"270 301 CURVE SMOOTH",
"270 449 OFFCURVE",
"223 614 OFFCURVE",
"154 750 CURVE",
"27 750 LINE",
"69 644 OFFCURVE",
"122 422 OFFCURVE",
"122 301 CURVE SMOOTH",
"122 174 OFFCURVE",
"85 29 OFFCURVE",
"27 -125 CURVE",
"154 -125 LINE"
);
}
);
width = 308;
},
{
layerId = "7BE58B69-D6A5-4645-9194-9194354D517E";
paths = (
{
closed = 1;
nodes = (
"178 31 OFFCURVE",
"213 172 OFFCURVE",
"213 303 CURVE SMOOTH",
"213 442 OFFCURVE",
"174 591 OFFCURVE",
"109 750 CURVE",
"37 750 LINE",
"81 631 OFFCURVE",
"131 442 OFFCURVE",
"131 294 CURVE SMOOTH",
"131 178 OFFCURVE",
"100 47 OFFCURVE",
"37 -125 CURVE",
"109 -125 LINE"
);
}
);
width = 264;
}
);
rightKerningGroup = numbersign;
unicode = 0029;
},
{
glyphname = asterisk;
layers = (
{
layerId = "E174F030-6324-451A-8951-EA6336064495";
paths = (
{
closed = 1;
nodes = (
"304 379 LINE",
"266 499 LINE",
"389 499 LINE",
"389 573 LINE",
"266 573 LINE",
"304 695 LINE",
"229 720 LINE",
"190 599 LINE",
"89 672 LINE",
"43 609 LINE",
"145 536 LINE",
"40 458 LINE",
"87 399 LINE",
"190 478 LINE",
"231 357 LINE"
);
}
);
width = 425;
},
{
layerId = "7BE58B69-D6A5-4645-9194-9194354D517E";
paths = (
{
closed = 1;
nodes = (
"282 386 LINE",
"241 511 LINE",
"373 511 LINE",
"373 561 LINE",
"243 561 LINE",
"283 688 LINE",
"234 704 LINE",
"193 578 LINE",
"87 656 LINE",
"56 614 LINE",
"162 537 LINE",
"54 458 LINE",
"85 418 LINE",
"192 497 LINE",
"233 371 LINE"
);
}
);
width = 420;
}
);
rightKerningGroup = numbersign;
unicode = 002A;
},
{
glyphname = plus;
layers = (
{
layerId = "E174F030-6324-451A-8951-EA6336064495";
paths = (
{
closed = 1;
nodes = (
"339 21 LINE",
"339 191 LINE",
"510 191 LINE",
"510 311 LINE",
"339 311 LINE",
"339 479 LINE",
"219 479 LINE",
"219 311 LINE",
"50 311 LINE",
"50 191 LINE",
"219 191 LINE",
"219 21 LINE"
);
}
);
width = 560;
},
{
layerId = "7BE58B69-D6A5-4645-9194-9194354D517E";
paths = (
{
closed = 1;
nodes = (
"314 20 LINE",
"314 217 LINE",
"505 217 LINE",
"505 285 LINE",
"314 285 LINE",
"314 480 LINE",
"244 480 LINE",
"244 285 LINE",
"55 285 LINE",
"55 217 LINE",
"244 217 LINE",
"244 20 LINE"
);
}
);
width = 560;
}
);
rightKerningGroup = numbersign;
unicode = 002B;
},
{
glyphname = comma;
layers = (
{
layerId = "E174F030-6324-451A-8951-EA6336064495";
paths = (
{
closed = 1;
nodes = (
"128 -123 LINE",
"218 137 LINE",
"70 137 LINE",
"20 -123 LINE"
);
}
);
width = 263;
},
{
layerId = "7BE58B69-D6A5-4645-9194-9194354D517E";
paths = (
{
closed = 1;
nodes = (
"96 -123 LINE",
"163 107 LINE",
"80 107 LINE",
"34 -123 LINE"
);
}
);
width = 223;
}
);
leftKerningGroup = comma;
rightKerningGroup = comma;
unicode = 002C;
},
{
glyphname = hyphen;
layers = (
{
layerId = "E174F030-6324-451A-8951-EA6336064495";
paths = (
{
closed = 1;
nodes = (
"352 205 LINE",
"352 327 LINE",
"56 327 LINE",
"56 205 LINE"
);
}
);
width = 408;
},
{
layerId = "7BE58B69-D6A5-4645-9194-9194354D517E";
paths = (
{
closed = 1;
nodes = (
"371 240 LINE",
"371 310 LINE",
"68 310 LINE",
"68 240 LINE"
);
}
);
width = 438;
}
);
leftKerningGroup = hyphen;
rightKerningGroup = hyphen;
unicode = 002D;
},
{
glyphname = period;
layers = (
{
layerId = "E174F030-6324-451A-8951-EA6336064495";
paths = (
{
closed = 1;
nodes = (
"200 0 LINE",
"200 166 LINE",
"56 166 LINE",
"56 0 LINE"
);
}
);
width = 256;
},
{
layerId = "7BE58B69-D6A5-4645-9194-9194354D517E";
paths = (
{
closed = 1;
nodes = (
"149 0 LINE",
"149 114 LINE",
"67 114 LINE",
"67 0 LINE"
);
}
);
width = 216;
}
);
leftKerningGroup = comma;
rightKerningGroup = comma;
unicode = 002E;
},
{
glyphname = slash;
layers = (
{
layerId = "E174F030-6324-451A-8951-EA6336064495";
paths = (
{
closed = 1;
nodes = (
"437 676 LINE",
"319 718 LINE",
"31 8 LINE",
"149 -34 LINE"
);
}
);
width = 466;
},
{
layerId = "7BE58B69-D6A5-4645-9194-9194354D517E";
paths = (
{
closed = 1;
nodes = (
"381 683 LINE",
"314 708 LINE",
"32 10 LINE",
"99 -14 LINE"
);
}
);
width = 412;
}
);
rightKerningGroup = numbersign;
unicode = 002F;
},
{
glyphname = zero;
layers = (
{
layerId = "E174F030-6324-451A-8951-EA6336064495";
paths = (
{
closed = 1;
nodes = (
"451 -10 OFFCURVE",
"536 90 OFFCURVE",
"536 332 CURVE",
"536 574 OFFCURVE",
"451 674 OFFCURVE",
"280 674 CURVE",
"109 674 OFFCURVE",
"24 574 OFFCURVE",
"24 332 CURVE",
"24 90 OFFCURVE",
"109 -10 OFFCURVE",
"280 -10 CURVE"
);
},
{
closed = 1;
nodes = (
"199 110 OFFCURVE",
"166 168 OFFCURVE",
"166 332 CURVE",
"166 496 OFFCURVE",
"199 554 OFFCURVE",
"280 554 CURVE",
"361 554 OFFCURVE",
"394 496 OFFCURVE",
"394 332 CURVE",
"394 168 OFFCURVE",
"361 110 OFFCURVE",
"280 110 CURVE"
);
}
);
width = 560;
},
{
layerId = "7BE58B69-D6A5-4645-9194-9194354D517E";
paths = (
{
closed = 1;
nodes = (
"438 -10 OFFCURVE",
"520 78 OFFCURVE",
"520 330 CURVE",
"520 581 OFFCURVE",
"438 671 OFFCURVE",
"280 671 CURVE",
"120 671 OFFCURVE",
"39 581 OFFCURVE",
"39 330 CURVE",
"39 78 OFFCURVE",
"120 -10 OFFCURVE",
"280 -10 CURVE"
);
},
{
closed = 1;
nodes = (
"169 58 OFFCURVE",
"119 124 OFFCURVE",
"119 330 CURVE",
"119 535 OFFCURVE",
"169 602 OFFCURVE",
"280 602 CURVE",
"391 602 OFFCURVE",
"441 535 OFFCURVE",
"441 330 CURVE",
"441 124 OFFCURVE",
"391 58 OFFCURVE",
"280 58 CURVE"
);
}
);
width = 560;
}
);
rightKerningGroup = numbersign;
unicode = 0030;
},
{
glyphname = one;
layers = (
{
layerId = "E174F030-6324-451A-8951-EA6336064495";
paths = (
{
closed = 1;
nodes = (
"418 0 LINE",
"418 660 LINE",
"292 660 LINE",
"74 515 LINE",
"137 412 LINE",
"280 504 LINE",
"280 0 LINE"
);
}
);
width = 560;
},
{
layerId = "7BE58B69-D6A5-4645-9194-9194354D517E";
paths = (
{
closed = 1;
nodes = (
"389 0 LINE",
"389 660 LINE",
"317 660 LINE",
"107 520 LINE",
"142 462 LINE",
"312 574 LINE",
"312 0 LINE"
);
}
);
width = 560;
}
);
rightKerningGroup = numbersign;
unicode = 0031;
},
{
glyphname = two;
layers = (
{
layerId = "E174F030-6324-451A-8951-EA6336064495";
paths = (
{
closed = 1;
nodes = (
"493 0 LINE",
"493 120 LINE",
"219 120 LINE",
"334 224 LINE SMOOTH",
"446 327 OFFCURVE",
"482 384 OFFCURVE",
"482 483 CURVE SMOOTH",
"482 609 OFFCURVE",
"412 672 OFFCURVE",
"272 672 CURVE SMOOTH",
"202 672 OFFCURVE",
"134 662 OFFCURVE",
"69 642 CURVE",
"76 535 LINE",
"100 538 LINE SMOOTH",
"153 546 OFFCURVE",
"201 550 OFFCURVE",
"246 550 CURVE SMOOTH",
"306 550 OFFCURVE",
"340 528 OFFCURVE",
"340 466 CURVE SMOOTH",
"340 404 OFFCURVE",
"306 363 OFFCURVE",
"206 260 CURVE SMOOTH",
"65 117 LINE",
"65 0 LINE"
);
}
);
width = 560;
},
{
layerId = "7BE58B69-D6A5-4645-9194-9194354D517E";
paths = (
{
closed = 1;
nodes = (
"491 0 LINE",
"491 67 LINE",
"160 67 LINE",
"336 246 LINE",
"437 343 OFFCURVE",
"474 400 OFFCURVE",
"474 493 CURVE",
"474 616 OFFCURVE",
"405 670 OFFCURVE",
"270 670 CURVE",
"203 670 OFFCURVE",
"137 661 OFFCURVE",
"74 643 CURVE",
"80 579 LINE",
"106 584 LINE",
"159 595 OFFCURVE",
"208 601 OFFCURVE",
"251 601 CURVE",
"350 601 OFFCURVE",
"395 570 OFFCURVE",
"395 485 CURVE",
"395 403 OFFCURVE",
"329 337 OFFCURVE",
"262 268 CURVE",
"69 65 LINE",
"69 0 LINE"
);
}
);
width = 560;
}
);
rightKerningGroup = numbersign;
unicode = 0032;
},
{
glyphname = three;
layers = (
{
layerId = "E174F030-6324-451A-8951-EA6336064495";
paths = (
{
closed = 1;
nodes = (
"429 -12 OFFCURVE",
"497 56 OFFCURVE",
"497 196 CURVE SMOOTH",
"497 281 OFFCURVE",
"472 307 OFFCURVE",
"408 342 CURVE",
"460 378 OFFCURVE",
"485 421 OFFCURVE",
"485 495 CURVE SMOOTH",
"485 617 OFFCURVE",
"417 672 OFFCURVE",
"264 672 CURVE SMOOTH",
"193 672 OFFCURVE",
"123 660 OFFCURVE",
"62 636 CURVE",
"71 534 LINE",
"97 538 LINE SMOOTH",
"148 546 OFFCURVE",
"193 552 OFFCURVE",
"233 552 CURVE SMOOTH",
"310 552 OFFCURVE",
"343 530 OFFCURVE",
"343 484 CURVE SMOOTH",
"343 434 OFFCURVE",
"303 391 OFFCURVE",
"259 391 CURVE SMOOTH",
"126 391 LINE",
"126 277 LINE",
"259 277 LINE SMOOTH",
"316 277 OFFCURVE",
"355 248 OFFCURVE",
"355 190 CURVE SMOOTH",
"355 136 OFFCURVE",
"321 108 OFFCURVE",
"242 108 CURVE SMOOTH",
"205 108 OFFCURVE",
"139 114 OFFCURVE",
"64 127 CURVE",
"57 22 LINE",
"89 14 LINE SMOOTH",
"156 -3 OFFCURVE",
"211 -12 OFFCURVE",
"269 -12 CURVE SMOOTH"
);
}
);
width = 560;
},
{
layerId = "7BE58B69-D6A5-4645-9194-9194354D517E";
paths = (
{
closed = 1;
nodes = (
"427 -10 OFFCURVE",
"493 54 OFFCURVE",
"493 189 CURVE",
"493 288 OFFCURVE",
"455 321 OFFCURVE",
"379 349 CURVE",
"441 375 OFFCURVE",
"477 434 OFFCURVE",
"477 499 CURVE",
"477 619 OFFCURVE",
"417 671 OFFCURVE",
"274 671 CURVE",
"202 671 OFFCURVE",
"135 662 OFFCURVE",
"72 643 CURVE",
"79 582 LINE",
"105 587 LINE",
"157 597 OFFCURVE",
"210 602 OFFCURVE",
"263 602 CURVE",
"360 602 OFFCURVE",
"398 571 OFFCURVE",
"398 498 CURVE",
"398 425 OFFCURVE",
"334 376 OFFCURVE",
"278 376 CURVE",
"145 376 LINE",
"145 310 LINE",
"278 310 LINE",
"369 307 OFFCURVE",
"414 265 OFFCURVE",
"414 186 CURVE",
"414 83 OFFCURVE",
"341 56 OFFCURVE",
"249 56 CURVE",
"191 56 OFFCURVE",
"126 68 OFFCURVE",
"69 80 CURVE",
"62 17 LINE",
"93 10 LINE",
"158 -3 OFFCURVE",
"220 -10 OFFCURVE",
"279 -10 CURVE"
);
}
);
width = 560;
}
);
rightKerningGroup = numbersign;
unicode = 0033;
},
{
glyphname = four;
layers = (
{
layerId = "E174F030-6324-451A-8951-EA6336064495";
paths = (
{
closed = 1;
nodes = (
"458 0 LINE",
"458 109 LINE",
"521 109 LINE",
"521 229 LINE",
"458 229 LINE",
"458 414 LINE",
"320 414 LINE",
"320 229 LINE",
"178 229 LINE",
"355 660 LINE",
"203 660 LINE",
"40 214 LINE",
"40 109 LINE",
"320 109 LINE",
"320 0 LINE"
);
}
);
width = 560;
},
{
layerId = "7BE58B69-D6A5-4645-9194-9194354D517E";
paths = (
{
closed = 1;
nodes = (
"437 0 LINE",
"437 129 LINE",
"521 129 LINE",
"521 197 LINE",
"437 197 LINE",
"437 403 LINE",
"360 403 LINE",
"360 197 LINE",
"121 197 LINE",
"312 660 LINE",
"228 660 LINE",
"40 189 LINE",
"40 129 LINE",
"360 129 LINE",
"360 0 LINE"
);
}
);
width = 560;
}
);
rightKerningGroup = numbersign;
unicode = 0034;
},
{
glyphname = five;
layers = (
{
layerId = "E174F030-6324-451A-8951-EA6336064495";
paths = (
{
closed = 1;
nodes = (
"428 -12 OFFCURVE",
"510 73 OFFCURVE",
"510 222 CURVE SMOOTH",
"510 355 OFFCURVE",
"439 421 OFFCURVE",
"296 421 CURVE SMOOTH",
"259 421 OFFCURVE",
"219 413 OFFCURVE",
"178 397 CURVE",
"195 540 LINE",
"490 540 LINE",
"490 660 LINE",
"87 660 LINE",
"69 303 LINE",
"151 284 LINE",
"166 288 LINE SMOOTH",
"200 297 OFFCURVE",
"239 301 OFFCURVE",
"284 301 CURVE SMOOTH",
"337 301 OFFCURVE",
"368 273 OFFCURVE",
"368 209 CURVE SMOOTH",
"368 144 OFFCURVE",
"332 108 OFFCURVE",
"267 108 CURVE SMOOTH",
"213 108 OFFCURVE",
"146 114 OFFCURVE",
"65 127 CURVE",
"50 25 LINE",
"86 16 LINE SMOOTH",
"133 3 OFFCURVE",
"223 -12 OFFCURVE",
"284 -12 CURVE SMOOTH"
);
}
);
width = 560;
},
{
layerId = "7BE58B69-D6A5-4645-9194-9194354D517E";
paths = (
{
closed = 1;
nodes = (
"422 -9 OFFCURVE",
"503 72 OFFCURVE",
"503 221 CURVE SMOOTH",
"503 351 OFFCURVE",
"433 416 OFFCURVE",
"293 416 CURVE SMOOTH",
"241 416 OFFCURVE",
"189 402 OFFCURVE",
"138 375 CURVE",
"156 590 LINE",
"477 590 LINE",
"477 660 LINE",
"92 660 LINE",
"74 317 LINE",
"127 307 LINE",
"148 317 LINE SMOOTH",
"176 330 OFFCURVE",
"236 347 OFFCURVE",
"284 347 CURVE SMOOTH",
"373 347 OFFCURVE",
"424 310 OFFCURVE",
"424 213 CURVE SMOOTH",
"424 116 OFFCURVE",
"370 59 OFFCURVE",
"266 59 CURVE SMOOTH",
"213 59 OFFCURVE",
"149 66 OFFCURVE",
"72 81 CURVE",
"63 20 LINE",
"96 13 LINE SMOOTH",
"164 -2 OFFCURVE",
"226 -9 OFFCURVE",
"282 -9 CURVE SMOOTH"
);
}
);
width = 560;
}
);
rightKerningGroup = numbersign;
unicode = 0035;
},
{
glyphname = six;
layers = (
{
layerId = "E174F030-6324-451A-8951-EA6336064495";
paths = (
{
closed = 1;
nodes = (
"443 -12 OFFCURVE",
"530 64 OFFCURVE",
"530 210 CURVE SMOOTH",
"530 356 OFFCURVE",
"454 423 OFFCURVE",
"303 423 CURVE SMOOTH",
"277 423 OFFCURVE",
"242 417 OFFCURVE",
"198 404 CURVE SMOOTH",
"177 398 LINE",
"177 501 OFFCURVE",
"224 552 OFFCURVE",
"319 552 CURVE SMOOTH",
"369 552 OFFCURVE",
"428 547 OFFCURVE",
"496 537 CURVE",
"508 643 LINE",
"477 650 LINE SMOOTH",
"418 665 OFFCURVE",
"362 672 OFFCURVE",
"310 672 CURVE SMOOTH",
"133 672 OFFCURVE",
"35 566 OFFCURVE",
"35 337 CURVE SMOOTH",
"35 108 OFFCURVE",
"119 -12 OFFCURVE",
"281 -12 CURVE SMOOTH"
);
},
{
closed = 1;
nodes = (
"213 108 OFFCURVE",
"176 166 OFFCURVE",
"176 281 CURVE",
"193 286 LINE SMOOTH",
"227 297 OFFCURVE",
"260 303 OFFCURVE",
"291 303 CURVE SMOOTH",
"356 303 OFFCURVE",
"388 272 OFFCURVE",
"388 209 CURVE SMOOTH",
"388 145 OFFCURVE",
"352 108 OFFCURVE",
"288 108 CURVE SMOOTH"
);
}
);
width = 560;
},
{
layerId = "7BE58B69-D6A5-4645-9194-9194354D517E";
paths = (
{
closed = 1;
nodes = (
"433 -10 OFFCURVE",
"517 68 OFFCURVE",
"517 208 CURVE SMOOTH",
"517 345 OFFCURVE",
"443 413 OFFCURVE",
"295 413 CURVE SMOOTH",
"252 413 OFFCURVE",
"188 396 OFFCURVE",
"155 384 CURVE SMOOTH",
"130 374 LINE",
"130 521 OFFCURVE",
"194 602 OFFCURVE",
"307 602 CURVE SMOOTH",
"364 602 OFFCURVE",
"422 598 OFFCURVE",
"482 590 CURVE",
"489 653 LINE",
"462 658 LINE SMOOTH",
"413 666 OFFCURVE",
"362 670 OFFCURVE",
"308 670 CURVE SMOOTH",
"144 670 OFFCURVE",
"50 564 OFFCURVE",
"50 333 CURVE SMOOTH",
"50 104 OFFCURVE",
"129 -10 OFFCURVE",
"286 -10 CURVE SMOOTH"
);
},
{
closed = 1;
nodes = (
"179 58 OFFCURVE",
"130 154 OFFCURVE",
"129 306 CURVE",
"152 316 LINE",
"183 328 OFFCURVE",
"245 344 OFFCURVE",
"290 344 CURVE SMOOTH",
"383 344 OFFCURVE",
"437 300 OFFCURVE",
"437 206 CURVE SMOOTH",
"437 112 OFFCURVE",
"385 58 OFFCURVE",
"282 58 CURVE SMOOTH"
);
}
);
width = 560;
}
);
rightKerningGroup = numbersign;
unicode = 0036;
},
{
glyphname = seven;
layers = (
{
layerId = "E174F030-6324-451A-8951-EA6336064495";
paths = (
{
closed = 1;
nodes = (
"491 504 LINE",
"491 660 LINE",
"69 660 LINE",
"69 537 LINE",
"353 537 LINE",
"353 505 LINE",
"128 24 LINE",
"256 -12 LINE"
);
}
);
width = 560;
},
{
layerId = "7BE58B69-D6A5-4645-9194-9194354D517E";
paths = (
{
closed = 1;
nodes = (
"487 559 LINE",
"487 660 LINE",
"77 660 LINE",
"77 590 LINE",
"409 590 LINE",
"409 564 LINE",
"160 13 LINE",
"233 -10 LINE"
);
}
);
width = 560;
}
);
rightKerningGroup = numbersign;
unicode = 0037;
},
{
glyphname = eight;
layers = (
{
layerId = "E174F030-6324-451A-8951-EA6336064495";
paths = (
{
closed = 1;
nodes = (
"429 -12 OFFCURVE",
"531 48 OFFCURVE",
"531 179 CURVE SMOOTH",
"531 256 OFFCURVE",
"508 291 OFFCURVE",
"449 340 CURVE",
"508 387 OFFCURVE",
"521 414 OFFCURVE",
"521 491 CURVE SMOOTH",
"521 604 OFFCURVE",
"423 672 OFFCURVE",
"278 672 CURVE SMOOTH",
"205 672 OFFCURVE",
"147 656 OFFCURVE",
"104 625 CURVE SMOOTH",
"61 593 OFFCURVE",
"39 549 OFFCURVE",
"39 492 CURVE SMOOTH",
"39 421 OFFCURVE",
"55 385 OFFCURVE",
"111 340 CURVE",
"52 291 OFFCURVE",
"28 253 OFFCURVE",
"28 168 CURVE SMOOTH",
"28 48 OFFCURVE",
"111 -12 OFFCURVE",
"278 -12 CURVE SMOOTH"
);
},
{
closed = 1;
nodes = (
"211 112 OFFCURVE",
"176 141 OFFCURVE",
"176 200 CURVE SMOOTH",
"176 235 OFFCURVE",
"196 260 OFFCURVE",
"236 275 CURVE",
"324 275 LINE",
"363 260 OFFCURVE",
"383 235 OFFCURVE",
"383 200 CURVE SMOOTH",
"383 141 OFFCURVE",
"349 112 OFFCURVE",
"280 112 CURVE SMOOTH"
);
},
{
closed = 1;
nodes = (
"203 415 OFFCURVE",
"187 440 OFFCURVE",
"187 467 CURVE SMOOTH",
"187 522 OFFCURVE",
"220 548 OFFCURVE",
"280 548 CURVE SMOOTH",
"342 548 OFFCURVE",
"373 522 OFFCURVE",
"373 470 CURVE SMOOTH",
"373 441 OFFCURVE",
"357 415 OFFCURVE",
"324 392 CURVE",
"236 392 LINE"
);
}
);
width = 560;
},
{
layerId = "7BE58B69-D6A5-4645-9194-9194354D517E";
paths = (
{
closed = 1;
nodes = (
"445 -10 OFFCURVE",
"527 53 OFFCURVE",
"527 179 CURVE SMOOTH",
"527 267 OFFCURVE",
"487 309 OFFCURVE",
"407 345 CURVE",
"487 381 OFFCURVE",
"517 416 OFFCURVE",
"517 499 CURVE SMOOTH",
"517 612 OFFCURVE",
"425 671 OFFCURVE",
"278 671 CURVE SMOOTH",
"205 671 OFFCURVE",
"147 657 OFFCURVE",
"106 628 CURVE SMOOTH",
"64 599 OFFCURVE",
"43 556 OFFCURVE",
"43 500 CURVE SMOOTH",
"43 421 OFFCURVE",
"74 381 OFFCURVE",
"146 345 CURVE",
"67 302 OFFCURVE",
"32 263 OFFCURVE",
"32 168 CURVE SMOOTH",
"32 49 OFFCURVE",
"115 -10 OFFCURVE",
"280 -10 CURVE SMOOTH"
);
},
{
closed = 1;
nodes = (
"169 60 OFFCURVE",
"114 100 OFFCURVE",
"114 181 CURVE SMOOTH",
"114 252 OFFCURVE",
"150 288 OFFCURVE",
"223 308 CURVE",
"328 308 LINE",
"405 285 OFFCURVE",
"445 258 OFFCURVE",
"445 187 CURVE SMOOTH",
"445 102 OFFCURVE",
"390 60 OFFCURVE",
"280 60 CURVE SMOOTH"
);
},
{
closed = 1;
nodes = (
"156 399 OFFCURVE",
"125 432 OFFCURVE",
"125 491 CURVE SMOOTH",
"125 564 OFFCURVE",
"177 601 OFFCURVE",
"280 601 CURVE SMOOTH",
"383 601 OFFCURVE",
"435 564 OFFCURVE",
"435 490 CURVE SMOOTH",
"435 431 OFFCURVE",
"400 398 OFFCURVE",
"328 375 CURVE",
"223 375 LINE"
);
}
);
width = 560;
}
);
rightKerningGroup = numbersign;
unicode = 0038;
},
{
glyphname = nine;
layers = (
{
layerId = "E174F030-6324-451A-8951-EA6336064495";
paths = (
{
closed = 1;
nodes = (
"428 -12 OFFCURVE",
"523 88 OFFCURVE",
"523 321 CURVE SMOOTH",
"523 553 OFFCURVE",
"437 672 OFFCURVE",
"278 672 CURVE SMOOTH",
"118 672 OFFCURVE",
"28 590 OFFCURVE",
"28 451 CURVE SMOOTH",
"28 311 OFFCURVE",
"110 240 OFFCURVE",
"255 240 CURVE SMOOTH",
"282 240 OFFCURVE",
"317 249 OFFCURVE",
"381 270 CURVE",
"381 162 OFFCURVE",
"337 108 OFFCURVE",
"248 108 CURVE SMOOTH",
"192 108 OFFCURVE",
"130 113 OFFCURVE",
"62 123 CURVE",
"50 17 LINE",
"81 10 LINE SMOOTH",
"140 -5 OFFCURVE",
"196 -12 OFFCURVE",
"248 -12 CURVE SMOOTH"
);
},
{
closed = 1;
nodes = (
"202 360 OFFCURVE",
"170 390 OFFCURVE",
"170 451 CURVE SMOOTH",
"170 515 OFFCURVE",
"206 552 OFFCURVE",
"270 552 CURVE SMOOTH",
"345 552 OFFCURVE",
"382 496 OFFCURVE",
"382 383 CURVE",
"366 378 LINE SMOOTH",
"331 366 OFFCURVE",
"298 360 OFFCURVE",
"267 360 CURVE SMOOTH"
);
}
);
width = 560;
},
{
layerId = "7BE58B69-D6A5-4645-9194-9194354D517E";
paths = (
{
closed = 1;
nodes = (
"419 -10 OFFCURVE",
"509 86 OFFCURVE",
"509 318 CURVE SMOOTH",
"509 549 OFFCURVE",
"431 670 OFFCURVE",
"270 670 CURVE SMOOTH",
"130 670 OFFCURVE",
"41 586 OFFCURVE",
"41 451 CURVE SMOOTH",
"41 317 OFFCURVE",
"113 250 OFFCURVE",
"257 250 CURVE SMOOTH",
"305 250 OFFCURVE",
"362 263 OFFCURVE",
"429 288 CURVE",
"428 135 OFFCURVE",
"368 58 OFFCURVE",
"247 58 CURVE SMOOTH",
"191 58 OFFCURVE",
"133 62 OFFCURVE",
"73 70 CURVE",
"66 8 LINE",
"92 4 LINE SMOOTH",
"145 -5 OFFCURVE",
"197 -10 OFFCURVE",
"247 -10 CURVE SMOOTH"
);
},
{
closed = 1;
nodes = (
"168 318 OFFCURVE",
"121 362 OFFCURVE",
"121 451 CURVE SMOOTH",
"121 544 OFFCURVE",
"177 602 OFFCURVE",
"270 602 CURVE SMOOTH",
"375 602 OFFCURVE",
"428 519 OFFCURVE",
"430 354 CURVE",
"404 345 LINE SMOOTH",
"351 327 OFFCURVE",
"304 318 OFFCURVE",
"263 318 CURVE SMOOTH"
);
}
);
width = 560;
}
);
rightKerningGroup = numbersign;
unicode = 0039;
},
{
glyphname = colon;
layers = (
{
layerId = "E174F030-6324-451A-8951-EA6336064495";
paths = (
{
closed = 1;
nodes = (
"200 289 LINE",
"200 455 LINE",
"56 455 LINE",
"56 289 LINE"
);
},
{
closed = 1;
nodes = (
"200 0 LINE",
"200 166 LINE",
"56 166 LINE",
"56 0 LINE"
);
}
);
width = 256;
},
{
layerId = "7BE58B69-D6A5-4645-9194-9194354D517E";
paths = (
{
closed = 1;
nodes = (
"149 322 LINE",
"149 436 LINE",
"67 436 LINE",
"67 322 LINE"
);
},
{
closed = 1;
nodes = (
"149 0 LINE",
"149 114 LINE",
"67 114 LINE",
"67 0 LINE"
);
}
);
width = 217;
}
);
leftKerningGroup = colon;
rightKerningGroup = colon;
unicode = 003A;
},
{
glyphname = semicolon;
layers = (
{
layerId = "E174F030-6324-451A-8951-EA6336064495";
paths = (
{
closed = 1;
nodes = (
"213 289 LINE",
"213 455 LINE",
"69 455 LINE",
"69 289 LINE"
);
},
{
closed = 1;
nodes = (
"135 -123 LINE",
"225 137 LINE",
"77 137 LINE",
"27 -123 LINE"
);
}
);
width = 279;
},
{
layerId = "7BE58B69-D6A5-4645-9194-9194354D517E";
paths = (
{
closed = 1;
nodes = (
"169 322 LINE",
"169 436 LINE",
"87 436 LINE",
"87 322 LINE"
);
},
{
closed = 1;
nodes = (
"110 -123 LINE",
"177 107 LINE",
"94 107 LINE",
"48 -123 LINE"
);
}
);
width = 248;
}
);
leftKerningGroup = colon;
rightKerningGroup = colon;
unicode = 003B;
},
{
glyphname = less;
layers = (
{
layerId = "E174F030-6324-451A-8951-EA6336064495";
paths = (
{
closed = 1;
nodes = (
"472 146 LINE",
"211 254 LINE",
"472 353 LINE",
"472 489 LINE",
"66 306 LINE",
"66 196 LINE",
"472 10 LINE"
);
}
);
width = 560;
},
{
layerId = "7BE58B69-D6A5-4645-9194-9194354D517E";
paths = (
{
closed = 1;
nodes = (
"477 92 LINE",
"138 252 LINE",
"477 409 LINE",
"477 487 LINE",
"61 284 LINE",
"61 218 LINE",
"477 13 LINE"
);
}
);
width = 560;
}
);
rightKerningGroup = numbersign;
unicode = 003C;
},
{
glyphname = equal;
layers = (
{
layerId = "E174F030-6324-451A-8951-EA6336064495";
paths = (
{
closed = 1;
nodes = (
"502 295 LINE",
"502 416 LINE",
"58 416 LINE",
"58 295 LINE"
);
},
{
closed = 1;
nodes = (
"502 87 LINE",
"502 208 LINE",
"58 208 LINE",
"58 87 LINE"
);
}
);
width = 560;
},
{
layerId = "7BE58B69-D6A5-4645-9194-9194354D517E";
paths = (
{
closed = 1;
nodes = (
"496 309 LINE",
"496 378 LINE",
"64 378 LINE",
"64 309 LINE"
);
},
{
closed = 1;
nodes = (
"496 124 LINE",
"496 193 LINE",
"64 193 LINE",
"64 124 LINE"
);
}
);
width = 560;
}
);
rightKerningGroup = numbersign;
unicode = 003D;
},
{
glyphname = greater;
layers = (
{
layerId = "E174F030-6324-451A-8951-EA6336064495";
paths = (
{
closed = 1;
nodes = (
"494 196 LINE",
"494 306 LINE",
"88 489 LINE",
"88 353 LINE",
"349 254 LINE",
"88 146 LINE",
"88 10 LINE"
);
}
);
width = 560;
},
{
layerId = "7BE58B69-D6A5-4645-9194-9194354D517E";
paths = (
{
closed = 1;
nodes = (
"498 218 LINE",
"498 284 LINE",
"82 487 LINE",
"82 409 LINE",
"421 252 LINE",
"82 92 LINE",
"82 13 LINE"
);
}
);
width = 560;
}
);
rightKerningGroup = numbersign;
unicode = 003E;
},
{
glyphname = at;
layers = (
{
layerId = "E174F030-6324-451A-8951-EA6336064495";
paths = (
{
closed = 1;
nodes = (
"542 -209 OFFCURVE",
"591 -206 OFFCURVE",
"651 -199 CURVE",
"646 -82 LINE",
"503 -91 LINE",
"264 -91 OFFCURVE",
"172 18 OFFCURVE",
"172 252 CURVE SMOOTH",
"172 486 OFFCURVE",
"289 611 OFFCURVE",
"503 611 CURVE SMOOTH",
"717 611 OFFCURVE",
"810 519 OFFCURVE",
"810 306 CURVE SMOOTH",
"810 297 LINE SMOOTH",
"810 200 OFFCURVE",
"806 112 OFFCURVE",
"749 112 CURVE SMOOTH",
"723 112 OFFCURVE",
"712 119 OFFCURVE",
"705 151 CURVE",
"701 164 OFFCURVE",
"699 217 OFFCURVE",
"699 309 CURVE SMOOTH",
"699 488 LINE",
"565 488 LINE",
"565 475 LINE",
"550 482 LINE SMOOTH",
"523 494 OFFCURVE",
"497 500 OFFCURVE",
"474 500 CURVE SMOOTH",
"335 500 OFFCURVE",
"283 422 OFFCURVE",
"283 248 CURVE SMOOTH",
"283 74 OFFCURVE",
"345 0 OFFCURVE",
"470 0 CURVE SMOOTH",
"515 0 OFFCURVE",
"565 19 OFFCURVE",
"618 56 CURVE",
"640 21 OFFCURVE",
"689 0 OFFCURVE",
"751 0 CURVE SMOOTH",
"879 0 OFFCURVE",
"944 92 OFFCURVE",
"944 297 CURVE SMOOTH",
"944 305 LINE SMOOTH",
"944 581 OFFCURVE",
"794 729 OFFCURVE",
"505 729 CURVE SMOOTH",
"216 729 OFFCURVE",
"38 569 OFFCURVE",
"38 261 CURVE SMOOTH",
"38 85 OFFCURVE",
"79 -39 OFFCURVE",
"160 -110 CURVE SMOOTH",
"243 -181 OFFCURVE",
"350 -209 OFFCURVE",
"503 -209 CURVE SMOOTH"
);
},
{
closed = 1;
nodes = (
"440 118 OFFCURVE",
"419 162 OFFCURVE",
"419 251 CURVE SMOOTH",
"419 348 OFFCURVE",
"435 382 OFFCURVE",
"504 382 CURVE SMOOTH",
"517 382 OFFCURVE",
"537 379 OFFCURVE",
"565 372 CURVE",
"565 249 LINE SMOOTH",
"565 202 OFFCURVE",
"567 167 OFFCURVE",
"571 143 CURVE",
"536 126 OFFCURVE",
"506 118 OFFCURVE",
"481 118 CURVE SMOOTH"
);
}
);
width = 973;
},
{
layerId = "7BE58B69-D6A5-4645-9194-9194354D517E";
paths = (
{
closed = 1;
nodes = (
"539 -203 OFFCURVE",
"587 -200 OFFCURVE",
"650 -194 CURVE",
"647 -127 LINE",
"504 -137 LINE",
"236 -137 OFFCURVE",
"127 -28 OFFCURVE",
"127 256 CURVE",
"127 539 OFFCURVE",
"249 657 OFFCURVE",
"503 657 CURVE",
"757 657 OFFCURVE",
"857 553 OFFCURVE",
"857 306 CURVE",
"857 292 LINE",
"857 180 OFFCURVE",
"854 57 OFFCURVE",
"767 57 CURVE",
"731 57 OFFCURVE",
"711 55 OFFCURVE",
"694 96 CURVE",
"687 118 OFFCURVE",
"683 187 OFFCURVE",
"683 304 CURVE",
"683 495 LINE",
"608 495 LINE",
"608 479 LINE",
"590 486 LINE",
"554 499 OFFCURVE",
"522 505 OFFCURVE",
"493 505 CURVE",
"344 505 OFFCURVE",
"290 426 OFFCURVE",
"290 233 CURVE",
"290 39 OFFCURVE",
"366 -5 OFFCURVE",
"466 -5 CURVE",
"517 -5 OFFCURVE",
"575 15 OFFCURVE",
"640 54 CURVE",
"657 15 OFFCURVE",
"697 -6 OFFCURVE",
"762 -6 CURVE",
"875 -6 OFFCURVE",
"933 52 OFFCURVE",
"933 292 CURVE",
"933 305 LINE",
"933 589 OFFCURVE",
"801 723 OFFCURVE",
"504 723 CURVE",
"207 723 OFFCURVE",
"51 582 OFFCURVE",
"51 261 CURVE",
"51 84 OFFCURVE",
"90 -38 OFFCURVE",
"168 -106 CURVE",
"247 -177 OFFCURVE",
"349 -203 OFFCURVE",
"504 -203 CURVE"
);
},
{
closed = 1;
nodes = (
"401 61 OFFCURVE",
"366 122 OFFCURVE",
"366 244 CURVE",
"366 381 OFFCURVE",
"397 439 OFFCURVE",
"505 439 CURVE",
"534 439 OFFCURVE",
"568 432 OFFCURVE",
"608 419 CURVE",
"608 280 LINE",
"608 201 OFFCURVE",
"611 143 OFFCURVE",
"617 107 CURVE",
"548 76 OFFCURVE",
"500 61 OFFCURVE",
"471 61 CURVE"
);
}
);
width = 977;
}
);
rightKerningGroup = numbersign;
unicode = 0040;
},
{
glyphname = A;
layers = (
{
layerId = "E174F030-6324-451A-8951-EA6336064495";
paths = (
{
closed = 1;
nodes = (
"155 0 LINE",
"192 167 LINE",
"116 123 LINE",
"493 123 LINE",
"410 167 LINE",
"447 0 LINE",
"585 0 LINE",
"432 680 LINE",
"170 680 LINE",
"17 0 LINE"
);
},
{
closed = 1;
nodes = (
"287 615 LINE",
"218 566 LINE",
"391 566 LINE",
"315 615 LINE",
"403 199 LINE",
"467 243 LINE",
"142 243 LINE",
"199 199 LINE"
);
}
);
width = 602;
},
{
layerId = "7BE58B69-D6A5-4645-9194-9194354D517E";
paths = (
{
closed = 1;
nodes = (
"100 0 LINE",
"162 221 LINE",
"105 178 LINE",
"491 178 LINE",
"434 221 LINE",
"496 0 LINE",
"572 0 LINE",
"382 692 LINE",
"214 692 LINE",
"24 0 LINE"
);
},
{
closed = 1;
nodes = (
"284 669 LINE",
"227 626 LINE",
"369 626 LINE",
"312 669 LINE",
"441 204 LINE",
"474 247 LINE",
"122 247 LINE",
"155 204 LINE"
);
}
);
width = 596;
}
);
leftKerningGroup = A;
rightKerningGroup = numbersign;
unicode = 0041;
},
{
glyphname = B;
layers = (
{
layerId = "E174F030-6324-451A-8951-EA6336064495";
paths = (
{
closed = 1;
nodes = (
"345 0 LINE SMOOTH",
"485 0 OFFCURVE",
"566 62 OFFCURVE",
"566 198 CURVE SMOOTH",
"566 279 OFFCURVE",
"537 326 OFFCURVE",
"478 350 CURVE",
"534 385 OFFCURVE",
"553 428 OFFCURVE",
"553 496 CURVE SMOOTH",
"553 627 OFFCURVE",
"484 680 OFFCURVE",
"341 680 CURVE SMOOTH",
"74 680 LINE",
"74 0 LINE"
);
},
{
closed = 1;
nodes = (
"212 284 LINE",
"338 284 LINE SMOOTH",
"399 284 OFFCURVE",
"426 257 OFFCURVE",
"426 199 CURVE SMOOTH",
"426 138 OFFCURVE",
"396 118 OFFCURVE",
"338 118 CURVE SMOOTH",
"212 118 LINE"
);
},
{
closed = 1;
nodes = (
"212 562 LINE",
"334 562 LINE SMOOTH",
"387 562 OFFCURVE",
"413 535 OFFCURVE",
"413 481 CURVE SMOOTH",
"413 427 OFFCURVE",
"387 400 OFFCURVE",
"335 400 CURVE SMOOTH",
"212 400 LINE"
);
}
);
width = 609;
},
{
layerId = "7BE58B69-D6A5-4645-9194-9194354D517E";
paths = (
{
closed = 1;
nodes = (
"349 0 LINE SMOOTH",
"485 0 OFFCURVE",
"563 55 OFFCURVE",
"563 189 CURVE SMOOTH",
"563 281 OFFCURVE",
"526 331 OFFCURVE",
"453 357 CURVE",
"512 385 OFFCURVE",
"542 430 OFFCURVE",
"542 513 CURVE SMOOTH",
"542 637 OFFCURVE",
"475 692 OFFCURVE",
"336 692 CURVE SMOOTH",
"85 692 LINE",
"85 0 LINE"
);
},
{
closed = 1;
nodes = (
"162 318 LINE",
"341 318 LINE SMOOTH",
"420 318 OFFCURVE",
"485 291 OFFCURVE",
"485 191 CURVE SMOOTH",
"485 101 OFFCURVE",
"433 68 OFFCURVE",
"346 68 CURVE SMOOTH",
"162 68 LINE"
);
},
{
closed = 1;
nodes = (
"162 624 LINE",
"333 624 LINE SMOOTH",
"423 624 OFFCURVE",
"463 590 OFFCURVE",
"463 507 CURVE SMOOTH",
"463 426 OFFCURVE",
"425 385 OFFCURVE",
"340 385 CURVE SMOOTH",
"162 385 LINE"
);
}
);
width = 616;
}
);
leftKerningGroup = B;
rightKerningGroup = numbersign;
unicode = 0042;
},
{
glyphname = C;
layers = (
{
layerId = "E174F030-6324-451A-8951-EA6336064495";
paths = (
{
closed = 1;
nodes = (
"371 -12 OFFCURVE",
"434 -4 OFFCURVE",
"505 11 CURVE",
"502 124 LINE",
"440 115 OFFCURVE",
"378 110 OFFCURVE",
"338 110 CURVE SMOOTH",
"209 110 OFFCURVE",
"192 161 OFFCURVE",
"189 319 CURVE SMOOTH",
"185 506 OFFCURVE",
"207 570 OFFCURVE",
"341 570 CURVE SMOOTH",
"379 570 OFFCURVE",
"436 565 OFFCURVE",
"502 555 CURVE",
"506 665 LINE",
"431 683 OFFCURVE",
"365 692 OFFCURVE",
"303 692 CURVE SMOOTH",
"108 692 OFFCURVE",
"47 603 OFFCURVE",
"47 337 CURVE SMOOTH",
"47 106 OFFCURVE",
"93 -12 OFFCURVE",
"314 -12 CURVE SMOOTH"
);
}
);
width = 543;
},
{
layerId = "7BE58B69-D6A5-4645-9194-9194354D517E";
paths = (
{
closed = 1;
nodes = (
"372 -10 OFFCURVE",
"434 -3 OFFCURVE",
"503 11 CURVE",
"500 77 LINE",
"436 65 OFFCURVE",
"380 59 OFFCURVE",
"335 59 CURVE SMOOTH",
"160 59 OFFCURVE",
"139 151 OFFCURVE",
"139 335 CURVE SMOOTH",
"139 558 OFFCURVE",
"170 633 OFFCURVE",
"326 633 CURVE SMOOTH",
"370 633 OFFCURVE",
"433 627 OFFCURVE",
"500 615 CURVE",
"503 680 LINE",
"431 695 OFFCURVE",
"367 702 OFFCURVE",
"316 702 CURVE SMOOTH",
"103 702 OFFCURVE",
"59 577 OFFCURVE",
"59 346 CURVE SMOOTH",
"59 115 OFFCURVE",
"103 -10 OFFCURVE",
"321 -10 CURVE SMOOTH"
);
}
);
width = 544;
}
);
leftKerningGroup = C;
rightKerningGroup = C;
unicode = 0043;
},
{
glyphname = D;
layers = (
{
layerId = "E174F030-6324-451A-8951-EA6336064495";
paths = (
{
closed = 1;
nodes = (
"303 0 LINE",
"537 0 OFFCURVE",
"592 106 OFFCURVE",
"592 351 CURVE",
"592 588 OFFCURVE",
"535 680 OFFCURVE",
"303 680 CURVE",
"74 680 LINE",
"74 0 LINE"
);
},
{
closed = 1;
nodes = (
"212 630 LINE",
"144 560 LINE",
"303 560 LINE",
"435 560 OFFCURVE",
"450 504 OFFCURVE",
"450 359 CURVE",
"450 201 OFFCURVE",
"438 120 OFFCURVE",
"303 120 CURVE",
"144 120 LINE",
"212 52 LINE"
);
}
);
width = 638;
},
{
layerId = "7BE58B69-D6A5-4645-9194-9194354D517E";
paths = (
{
closed = 1;
nodes = (
"332 0 LINE SMOOTH",
"504 0 OFFCURVE",
"588 106 OFFCURVE",
"588 363 CURVE SMOOTH",
"588 524 OFFCURVE",
"555 692 OFFCURVE",
"332 692 CURVE SMOOTH",
"85 692 LINE",
"85 0 LINE"
);
},
{
closed = 1;
nodes = (
"162 669 LINE",
"117 624 LINE",
"332 624 LINE SMOOTH",
"452 624 OFFCURVE",
"509 545 OFFCURVE",
"509 356 CURVE SMOOTH",
"509 164 OFFCURVE",
"450 68 OFFCURVE",
"332 68 CURVE SMOOTH",
"117 68 LINE",
"162 23 LINE"
);
}
);
width = 645;
},
{
associatedMasterId = "7BE58B69-D6A5-4645-9194-9194354D517E";
layerId = "AD2FB336-6D1E-4F8E-9E21-DD5FBFA39B1E";
name = "Black {900, 100}";
paths = (
{
closed = 1;
nodes = (
"284 0 LINE SMOOTH",
"559 0 OFFCURVE",
"595 106 OFFCURVE",
"595 343 CURVE SMOOTH",
"595 631 OFFCURVE",
"522 672 OFFCURVE",
"284 672 CURVE SMOOTH",
"67 672 LINE",
"67 0 LINE"
);
},
{
closed = 1;
nodes = (
"245 562 LINE",
"200 517 LINE",
"283 517 LINE SMOOTH",
"393 517 OFFCURVE",
"410 477 OFFCURVE",
"410 361 CURVE SMOOTH",
"410 226 OFFCURVE",
"400 155 OFFCURVE",
"283 155 CURVE SMOOTH",
"200 155 LINE",
"245 110 LINE"
);
}
);
width = 633;
}
);
leftKerningGroup = B;
rightKerningGroup = D;
unicode = 0044;
},
{
glyphname = E;
layers = (
{
layerId = "E174F030-6324-451A-8951-EA6336064495";
paths = (
{
closed = 1;
nodes = (
"514 0 LINE",
"514 120 LINE",
"149 120 LINE",
"212 50 LINE",
"212 345 LINE",
"149 283 LINE",
"454 283 LINE",
"454 401 LINE",
"149 401 LINE",
"212 331 LINE",
"212 622 LINE",
"149 560 LINE",
"514 560 LINE",
"514 680 LINE",
"74 680 LINE",
"74 0 LINE"
);
}
);
width = 554;
},
{
layerId = "7BE58B69-D6A5-4645-9194-9194354D517E";
paths = (
{
closed = 1;
nodes = (
"506 0 LINE",
"506 68 LINE",
"117 68 LINE",
"162 23 LINE",
"162 363 LINE",
"117 318 LINE",
"446 318 LINE",
"446 385 LINE",
"117 385 LINE",
"162 340 LINE",
"162 669 LINE",
"117 624 LINE",
"506 624 LINE",
"506 692 LINE",
"85 692 LINE",
"85 0 LINE"
);
}
);
width = 553;
}
);
leftKerningGroup = B;
rightKerningGroup = E;
unicode = 0045;
},
{
glyphname = F;
layers = (
{
layerId = "E174F030-6324-451A-8951-EA6336064495";
paths = (
{
closed = 1;
nodes = (
"212 0 LINE",
"212 307 LINE",
"150 240 LINE",
"454 240 LINE",
"454 360 LINE",
"150 360 LINE",
"212 289 LINE",
"212 627 LINE",
"150 560 LINE",
"508 560 LINE",
"508 680 LINE",
"74 680 LINE",
"74 0 LINE"
);
}
);
width = 531;
},
{
layerId = "7BE58B69-D6A5-4645-9194-9194354D517E";
paths = (
{
closed = 1;
nodes = (
"162 0 LINE",
"162 331 LINE",
"117 286 LINE",
"447 286 LINE",
"447 354 LINE",
"117 354 LINE",
"162 309 LINE",
"162 669 LINE",
"117 624 LINE",
"499 624 LINE",
"499 692 LINE",
"85 692 LINE",
"85 0 LINE"
);
}
);
width = 526;
}
);
leftKerningGroup = B;
rightKerningGroup = numbersign;
unicode = 0046;
},
{
glyphname = G;
layers = (
{
layerId = "E174F030-6324-451A-8951-EA6336064495";
paths = (
{
closed = 1;
nodes = (
"382 -12 OFFCURVE",
"460 -4 OFFCURVE",
"555 11 CURVE",
"555 364 LINE",
"357 364 LINE",
"357 244 LINE",
"419 244 LINE",
"419 112 LINE",
"401 109 OFFCURVE",
"357 108 OFFCURVE",
"336 108 CURVE",
"217 108 OFFCURVE",
"187 163 OFFCURVE",
"187 320 CURVE",
"187 477 OFFCURVE",
"184 570 OFFCURVE",
"355 570 CURVE",
"406 570 OFFCURVE",
"471 566 OFFCURVE",
"551 557 CURVE",
"555 664 LINE",
"519 671 LINE",
"447 685 OFFCURVE",
"380 692 OFFCURVE",
"318 692 CURVE",
"119 692 OFFCURVE",
"45 590 OFFCURVE",
"45 343 CURVE",
"45 96 OFFCURVE",
"111 -12 OFFCURVE",
"323 -12 CURVE"
);
}
);
width = 611;
},
{
layerId = "7BE58B69-D6A5-4645-9194-9194354D517E";
paths = (
{
closed = 1;
nodes = (
"391 -10 OFFCURVE",
"466 -2 OFFCURVE",
"550 14 CURVE",
"550 354 LINE",
"359 354 LINE",
"359 285 LINE",
"474 285 LINE",
"474 72 LINE",
"425 63 OFFCURVE",
"378 58 OFFCURVE",
"331 58 CURVE SMOOTH",
"179 58 OFFCURVE",
"137 140 OFFCURVE",
"137 346 CURVE SMOOTH",
"137 552 OFFCURVE",
"179 633 OFFCURVE",
"332 633 CURVE SMOOTH",
"393 633 OFFCURVE",
"464 626 OFFCURVE",
"547 612 CURVE",
"550 676 LINE",
"516 682 LINE SMOOTH",
"449 695 OFFCURVE",
"385 702 OFFCURVE",
"323 702 CURVE SMOOTH",
"124 702 OFFCURVE",
"57 588 OFFCURVE",
"57 346 CURVE SMOOTH",
"57 104 OFFCURVE",
"124 -10 OFFCURVE",
"325 -10 CURVE SMOOTH"
);
}
);
width = 616;
},
{
associatedMasterId = "7BE58B69-D6A5-4645-9194-9194354D517E";
layerId = "9C5F1CBC-B5A6-495F-9FDF-961CE423B1B1";
name = "Black {900, 100}";
paths = (
{
closed = 1;
nodes = (
"376 -13 OFFCURVE",
"456 -5 OFFCURVE",
"558 9 CURVE",
"558 371 LINE",
"356 371 LINE",
"356 217 LINE",
"382 217 LINE",
"382 141 LINE",
"339 141 LINE",
"242 141 OFFCURVE",
"220 178 OFFCURVE",
"220 303 CURVE",
"220 427 OFFCURVE",
"222 528 OFFCURVE",
"370 528 CURVE",
"415 528 OFFCURVE",
"476 526 OFFCURVE",
"554 520 CURVE",
"558 656 LINE",
"521 664 LINE",
"446 678 OFFCURVE",
"369 685 OFFCURVE",
"315 685 CURVE",
"116 685 OFFCURVE",
"37 591 OFFCURVE",
"37 341 CURVE",
"37 91 OFFCURVE",
"102 -13 OFFCURVE",
"322 -13 CURVE"
);
}
);
width = 608;
}
);
leftKerningGroup = G;
rightKerningGroup = G;
unicode = 0047;
},
{
glyphname = H;
layers = (
{
layerId = "E174F030-6324-451A-8951-EA6336064495";
paths = (
{
closed = 1;
nodes = (
"212 0 LINE",
"212 349 LINE",
"128 282 LINE",
"538 282 LINE",
"465 349 LINE",
"465 0 LINE",
"603 0 LINE",
"603 680 LINE",
"465 680 LINE",
"465 336 LINE",
"538 402 LINE",
"128 402 LINE",
"212 336 LINE",
"212 680 LINE",
"74 680 LINE",
"74 0 LINE"
);
}
);
width = 677;
},
{
layerId = "7BE58B69-D6A5-4645-9194-9194354D517E";
paths = (
{
closed = 1;
nodes = (
"162 0 LINE",
"162 358 LINE",
"117 313 LINE",
"559 313 LINE",
"514 358 LINE",
"514 0 LINE",
"590 0 LINE",
"590 692 LINE",
"514 692 LINE",
"514 337 LINE",
"559 382 LINE",
"117 382 LINE",
"162 337 LINE",
"162 692 LINE",
"85 692 LINE",
"85 0 LINE"
);
}
);
width = 675;
}
);
leftKerningGroup = B;
rightKerningGroup = H;
unicode = 0048;
},
{
glyphname = I;
layers = (
{
layerId = "E174F030-6324-451A-8951-EA6336064495";
paths = (
{
closed = 1;
nodes = (
"212 0 LINE",
"212 680 LINE",
"74 680 LINE",
"74 0 LINE"
);
}
);
width = 286;
},
{
layerId = "7BE58B69-D6A5-4645-9194-9194354D517E";
paths = (
{
closed = 1;
nodes = (
"162 0 LINE",
"162 692 LINE",
"85 692 LINE",
"85 0 LINE"
);
}
);
width = 246;
}
);
leftKerningGroup = B;
rightKerningGroup = H;
unicode = 0049;
},
{
glyphname = J;
layers = (
{
layerId = "E174F030-6324-451A-8951-EA6336064495";
paths = (
{
closed = 1;
nodes = (
"175 -70 OFFCURVE",
"233 -30 OFFCURVE",
"233 115 CURVE SMOOTH",
"232 680 LINE",
"95 680 LINE",
"95 121 LINE SMOOTH",
"95 66 OFFCURVE",
"72 50 OFFCURVE",
"19 50 CURVE",
"19 -70 LINE"
);
}
);
width = 302;
},
{
layerId = "7BE58B69-D6A5-4645-9194-9194354D517E";
paths = (
{
closed = 1;
nodes = (
"138 -72 OFFCURVE",
"208 -64 OFFCURVE",
"208 95 CURVE SMOOTH",
"207 692 LINE",
"131 692 LINE",
"131 106 LINE SMOOTH",
"131 7 OFFCURVE",
"114 -3 OFFCURVE",
"18 -3 CURVE",
"18 -72 LINE"
);
}
);
width = 289;
}
);
leftKerningGroup = J;
rightKerningGroup = J;
unicode = 004A;
},
{
glyphname = K;
layers = (
{
layerId = "E174F030-6324-451A-8951-EA6336064495";
paths = (
{
closed = 1;
nodes = (
"212 0 LINE",
"212 306 LINE",
"135 256 LINE",
"383 279 LINE",
"278 334 LINE",
"418 0 LINE",
"577 0 LINE",
"395 407 LINE",
"395 270 LINE",
"573 680 LINE",
"416 680 LINE",
"283 336 LINE",
"383 399 LINE",
"135 376 LINE",
"212 336 LINE",
"212 680 LINE",
"74 680 LINE",
"74 0 LINE"
);
}
);
width = 593;
},
{
layerId = "7BE58B69-D6A5-4645-9194-9194354D517E";
paths = (
{
closed = 1;
nodes = (
"162 0 LINE",
"162 347 LINE",
"117 300 LINE",
"322 308 LINE",
"254 345 LINE",
"461 0 LINE",
"552 0 LINE",
"320 382 LINE",
"321 305 LINE",
"541 692 LINE",
"453 692 LINE",
"254 335 LINE",
"321 376 LINE",
"117 368 LINE",
"162 325 LINE",
"162 692 LINE",
"85 692 LINE",
"85 0 LINE"
);
}
);
width = 569;
}
);
leftKerningGroup = B;
rightKerningGroup = K;
unicode = 004B;
},
{
glyphname = L;
layers = (
{
layerId = "E174F030-6324-451A-8951-EA6336064495";
paths = (
{
closed = 1;
nodes = (
"461 0 LINE",
"461 122 LINE",
"148 122 LINE",
"212 50 LINE",
"212 680 LINE",
"74 680 LINE",
"74 0 LINE"
);
}
);
width = 472;
},
{
layerId = "7BE58B69-D6A5-4645-9194-9194354D517E";
paths = (
{
closed = 1;
nodes = (
"466 0 LINE",
"466 69 LINE",
"117 69 LINE",
"162 24 LINE",
"162 692 LINE",
"85 692 LINE",
"85 0 LINE"
);
}
);
width = 479;
}
);
leftKerningGroup = B;
rightKerningGroup = L;
unicode = 004C;
},
{
glyphname = M;
layers = (
{
layerId = "E174F030-6324-451A-8951-EA6336064495";
paths = (
{
closed = 1;
nodes = (
"212 0 LINE",
"212 613 LINE",
"141 526 LINE",
"300 526 LINE",
"200 625 LINE",
"360 30 LINE",
"498 30 LINE",
"654 610 LINE",
"561 526 LINE",
"716 526 LINE",
"646 603 LINE",
"646 0 LINE",
"784 0 LINE",
"784 680 LINE",
"549 680 LINE",
"408 98 LINE",
"450 98 LINE",
"309 680 LINE",
"74 680 LINE",
"74 0 LINE"
);
}
);
width = 858;
},
{
layerId = "7BE58B69-D6A5-4645-9194-9194354D517E";
paths = (
{
closed = 1;
nodes = (
"162 0 LINE",
"162 655 LINE",
"117 610 LINE",
"221 610 LINE",
"161 653 LINE",
"377 25 LINE",
"463 25 LINE",
"679 653 LINE",
"619 610 LINE",
"723 610 LINE",
"678 655 LINE",
"678 0 LINE",
"755 0 LINE",
"755 692 LINE",
"616 692 LINE",
"406 64 LINE",
"434 64 LINE",
"224 692 LINE",
"85 692 LINE",
"85 0 LINE"
);
}
);
width = 840;
}
);
leftKerningGroup = B;
rightKerningGroup = H;
unicode = 004D;
},
{
glyphname = N;
layers = (
{
layerId = "E174F030-6324-451A-8951-EA6336064495";
paths = (
{
closed = 1;
nodes = (
"212 0 LINE",
"212 622 LINE",
"145 560 LINE",
"288 560 LINE",
"199 637 LINE",
"392 0 LINE",
"619 0 LINE",
"619 680 LINE",
"481 680 LINE",
"481 38 LINE",
"560 120 LINE",
"409 120 LINE",
"494 43 LINE",
"307 680 LINE",
"74 680 LINE",
"74 0 LINE"
);
}
);
width = 693;
},
{
layerId = "7BE58B69-D6A5-4645-9194-9194354D517E";
paths = (
{
closed = 1;
nodes = (
"162 0 LINE",
"162 669 LINE",
"117 624 LINE",
"226 624 LINE",
"163 665 LINE",
"450 0 LINE",
"591 0 LINE",
"591 692 LINE",
"515 692 LINE",
"515 23 LINE",
"560 68 LINE",
"449 68 LINE",
"512 27 LINE",
"229 692 LINE",
"85 692 LINE",
"85 0 LINE"
);
}
);
width = 676;
}
);
leftKerningGroup = B;
rightKerningGroup = H;
unicode = 004E;
},
{
glyphname = O;
layers = (
{
layerId = "E174F030-6324-451A-8951-EA6336064495";
paths = (
{
closed = 1;
nodes = (
"539 -12 OFFCURVE",
"608 106 OFFCURVE",
"608 337 CURVE SMOOTH",
"608 577 OFFCURVE",
"533 692 OFFCURVE",
"326 692 CURVE SMOOTH",
"119 692 OFFCURVE",
"44 577 OFFCURVE",
"44 337 CURVE SMOOTH",
"44 97 OFFCURVE",
"119 -12 OFFCURVE",
"326 -12 CURVE SMOOTH"
);
},
{
closed = 1;
nodes = (
"209 108 OFFCURVE",
"186 192 OFFCURVE",
"186 337 CURVE SMOOTH",
"186 501 OFFCURVE",
"219 572 OFFCURVE",
"326 572 CURVE SMOOTH",
"433 572 OFFCURVE",
"466 501 OFFCURVE",
"466 337 CURVE SMOOTH",
"466 172 OFFCURVE",
"434 108 OFFCURVE",
"326 108 CURVE SMOOTH"
);
}
);
width = 652;
},
{
layerId = "7BE58B69-D6A5-4645-9194-9194354D517E";
paths = (
{
closed = 1;
nodes = (
"538 -10 OFFCURVE",
"604 94 OFFCURVE",
"604 341 CURVE SMOOTH",
"604 588 OFFCURVE",
"534 702 OFFCURVE",
"330 702 CURVE SMOOTH",
"126 702 OFFCURVE",
"57 586 OFFCURVE",
"57 343 CURVE SMOOTH",
"57 99 OFFCURVE",
"123 -10 OFFCURVE",
"331 -10 CURVE SMOOTH"
);
},
{
closed = 1;
nodes = (
"178 58 OFFCURVE",
"136 140 OFFCURVE",
"136 343 CURVE SMOOTH",
"136 546 OFFCURVE",
"180 634 OFFCURVE",
"330 634 CURVE SMOOTH",
"480 634 OFFCURVE",
"524 545 OFFCURVE",
"524 341 CURVE SMOOTH",
"524 137 OFFCURVE",
"483 58 OFFCURVE",
"331 58 CURVE SMOOTH"
);
}
);
width = 660;
}
);
leftKerningGroup = G;
rightKerningGroup = O;
unicode = 004F;
},
{
glyphname = P;
layers = (
{
layerId = "E174F030-6324-451A-8951-EA6336064495";
paths = (
{
closed = 1;
nodes = (
"212 0 LINE",
"212 198 LINE",
"324 198 LINE SMOOTH",
"483 198 OFFCURVE",
"566 285 OFFCURVE",
"566 444 CURVE SMOOTH",
"566 601 OFFCURVE",
"485 680 OFFCURVE",
"324 680 CURVE SMOOTH",
"74 680 LINE",
"74 0 LINE"
);
},
{
closed = 1;
nodes = (
"212 562 LINE",
"323 562 LINE SMOOTH",
"394 562 OFFCURVE",
"426 528 OFFCURVE",
"426 444 CURVE SMOOTH",
"426 359 OFFCURVE",
"392 316 OFFCURVE",
"323 316 CURVE SMOOTH",
"212 316 LINE"
);
}
);
width = 589;
},
{
layerId = "7BE58B69-D6A5-4645-9194-9194354D517E";
paths = (
{
closed = 1;
nodes = (
"162 0 LINE",
"162 233 LINE",
"338 233 LINE SMOOTH",
"485 233 OFFCURVE",
"559 312 OFFCURVE",
"559 469 CURVE SMOOTH",
"559 620 OFFCURVE",
"489 692 OFFCURVE",
"338 692 CURVE SMOOTH",
"85 692 LINE",
"85 0 LINE"
);
},
{
closed = 1;
nodes = (
"162 624 LINE",
"337 624 LINE SMOOTH",
"437 624 OFFCURVE",
"480 576 OFFCURVE",
"480 469 CURVE SMOOTH",
"480 357 OFFCURVE",
"432 301 OFFCURVE",
"337 301 CURVE SMOOTH",
"162 301 LINE"
);
}
);
width = 593;
}
);
leftKerningGroup = B;
rightKerningGroup = numbersign;
unicode = 0050;
},
{
glyphname = Q;
layers = (
{
layerId = "E174F030-6324-451A-8951-EA6336064495";
paths = (
{
closed = 1;
nodes = (
"586 -97 LINE",
"503 37 LINE",
"573 88 OFFCURVE",
"608 188 OFFCURVE",
"608 336 CURVE SMOOTH",
"608 577 OFFCURVE",
"533 692 OFFCURVE",
"326 692 CURVE SMOOTH",
"119 692 OFFCURVE",
"44 577 OFFCURVE",
"44 337 CURVE SMOOTH",
"44 96 OFFCURVE",
"118 -12 OFFCURVE",
"326 -12 CURVE SMOOTH",
"349 -12 OFFCURVE",
"363 -11 OFFCURVE",
"370 -9 CURVE",
"460 -156 LINE"
);
},
{
closed = 1;
nodes = (
"208 108 OFFCURVE",
"186 191 OFFCURVE",
"186 336 CURVE SMOOTH",
"186 501 OFFCURVE",
"219 572 OFFCURVE",
"326 572 CURVE SMOOTH",
"433 572 OFFCURVE",
"466 501 OFFCURVE",
"466 336 CURVE SMOOTH",
"466 171 OFFCURVE",
"434 108 OFFCURVE",
"326 108 CURVE SMOOTH"
);
}
);
width = 652;
},
{
layerId = "7BE58B69-D6A5-4645-9194-9194354D517E";
paths = (
{
closed = 1;
nodes = (
"574 -111 LINE",
"489 26 LINE",
"573 75 OFFCURVE",
"604 174 OFFCURVE",
"604 343 CURVE SMOOTH",
"604 587 OFFCURVE",
"534 702 OFFCURVE",
"330 702 CURVE SMOOTH",
"126 702 OFFCURVE",
"57 586 OFFCURVE",
"57 343 CURVE SMOOTH",
"57 99 OFFCURVE",
"123 -10 OFFCURVE",
"330 -10 CURVE SMOOTH",
"364 -10 OFFCURVE",
"392 -7 OFFCURVE",
"414 -1 CURVE",
"502 -145 LINE"
);
},
{
closed = 1;
nodes = (
"178 58 OFFCURVE",
"136 140 OFFCURVE",
"136 343 CURVE SMOOTH",
"136 546 OFFCURVE",
"180 634 OFFCURVE",
"330 634 CURVE SMOOTH",
"480 634 OFFCURVE",
"524 545 OFFCURVE",
"524 341 CURVE SMOOTH",
"524 136 OFFCURVE",
"483 58 OFFCURVE",
"331 58 CURVE SMOOTH"
);
}
);
width = 660;
}
);
leftKerningGroup = G;
rightKerningGroup = O;
unicode = 0051;
},
{
glyphname = R;
layers = (
{
layerId = "E174F030-6324-451A-8951-EA6336064495";
paths = (
{
closed = 1;
nodes = (
"212 0 LINE",
"212 228 LINE",
"345 228 LINE",
"424 0 LINE",
"575 0 LINE",
"478 260 LINE",
"545 302 OFFCURVE",
"578 367 OFFCURVE",
"578 456 CURVE SMOOTH",
"578 605 OFFCURVE",
"498 680 OFFCURVE",
"338 680 CURVE SMOOTH",
"74 680 LINE",
"74 0 LINE"
);
},
{
closed = 1;
nodes = (
"212 562 LINE",
"338 562 LINE SMOOTH",
"402 562 OFFCURVE",
"437 520 OFFCURVE",
"437 455 CURVE SMOOTH",
"437 390 OFFCURVE",
"405 346 OFFCURVE",
"340 346 CURVE SMOOTH",
"212 346 LINE"
);
}
);
width = 620;
},
{
layerId = "7BE58B69-D6A5-4645-9194-9194354D517E";
paths = (
{
closed = 1;
nodes = (
"162 0 LINE",
"162 265 LINE",
"358 265 LINE",
"483 0 LINE",
"568 0 LINE",
"435 281 LINE",
"520 308 OFFCURVE",
"562 375 OFFCURVE",
"562 482 CURVE SMOOTH",
"562 626 OFFCURVE",
"488 692 OFFCURVE",
"341 692 CURVE SMOOTH",
"85 692 LINE",
"85 0 LINE"
);
},
{
closed = 1;
nodes = (
"162 624 LINE",
"341 624 LINE SMOOTH",
"436 624 OFFCURVE",
"483 576 OFFCURVE",
"483 479 CURVE SMOOTH",
"483 382 OFFCURVE",
"436 333 OFFCURVE",
"342 333 CURVE SMOOTH",
"162 333 LINE"
);
}
);
width = 616;
}
);
leftKerningGroup = B;
rightKerningGroup = R;
unicode = 0052;
},
{
glyphname = S;
layers = (
{
layerId = "E174F030-6324-451A-8951-EA6336064495";
paths = (
{
closed = 1;
nodes = (
"412 -12 OFFCURVE",
"507 62 OFFCURVE",
"507 205 CURVE SMOOTH",
"507 317 OFFCURVE",
"460 359 OFFCURVE",
"328 402 CURVE SMOOTH",
"236 431 OFFCURVE",
"174 447 OFFCURVE",
"174 500 CURVE SMOOTH",
"174 548 OFFCURVE",
"210 572 OFFCURVE",
"283 572 CURVE SMOOTH",
"322 572 OFFCURVE",
"388 567 OFFCURVE",
"482 556 CURVE",
"493 665 LINE",
"379 685 OFFCURVE",
"329 692 OFFCURVE",
"269 692 CURVE SMOOTH",
"125 692 OFFCURVE",
"37 626 OFFCURVE",
"37 490 CURVE SMOOTH",
"37 382 OFFCURVE",
"93 329 OFFCURVE",
"248 285 CURVE SMOOTH",
"322 264 OFFCURVE",
"370 248 OFFCURVE",
"370 196 CURVE SMOOTH",
"370 137 OFFCURVE",
"335 108 OFFCURVE",
"264 108 CURVE SMOOTH",
"217 108 OFFCURVE",
"148 114 OFFCURVE",
"59 126 CURVE",
"45 19 LINE",
"81 12 LINE SMOOTH",
"156 -4 OFFCURVE",
"220 -12 OFFCURVE",
"272 -12 CURVE SMOOTH"
);
}
);
width = 544;
},
{
layerId = "7BE58B69-D6A5-4645-9194-9194354D517E";
paths = (
{
closed = 1;
nodes = (
"420 -9 OFFCURVE",
"494 62 OFFCURVE",
"494 204 CURVE SMOOTH",
"494 319 OFFCURVE",
"441 357 OFFCURVE",
"301 389 CURVE SMOOTH",
"160 420 OFFCURVE",
"126 438 OFFCURVE",
"126 522 CURVE SMOOTH",
"126 597 OFFCURVE",
"176 635 OFFCURVE",
"276 635 CURVE SMOOTH",
"315 635 OFFCURVE",
"380 629 OFFCURVE",
"473 618 CURVE",
"480 683 LINE",
"381 698 OFFCURVE",
"323 703 OFFCURVE",
"271 703 CURVE SMOOTH",
"122 703 OFFCURVE",
"48 641 OFFCURVE",
"48 517 CURVE SMOOTH",
"48 393 OFFCURVE",
"107 353 OFFCURVE",
"263 320 CURVE SMOOTH",
"382 297 OFFCURVE",
"417 273 OFFCURVE",
"417 198 CURVE SMOOTH",
"417 105 OFFCURVE",
"368 59 OFFCURVE",
"269 59 CURVE SMOOTH",
"222 59 OFFCURVE",
"153 65 OFFCURVE",
"62 77 CURVE",
"54 13 LINE",
"90 8 LINE SMOOTH",
"163 -3 OFFCURVE",
"224 -9 OFFCURVE",
"273 -9 CURVE SMOOTH"
);
}
);
width = 542;
}
);
leftKerningGroup = S;
rightKerningGroup = S;
unicode = 0053;
},
{
glyphname = T;
layers = (
{
layerId = "E174F030-6324-451A-8951-EA6336064495";
paths = (
{
closed = 1;
nodes = (
"333 0 LINE",
"333 558 LINE",
"513 558 LINE",
"513 680 LINE",
"13 680 LINE",
"13 558 LINE",
"195 558 LINE",
"195 0 LINE"
);
}
);
width = 526;
},
{
layerId = "7BE58B69-D6A5-4645-9194-9194354D517E";
paths = (
{
closed = 1;
nodes = (
"302 0 LINE",
"302 623 LINE",
"513 623 LINE",
"513 692 LINE",
"13 692 LINE",
"13 623 LINE",
"226 623 LINE",
"226 0 LINE"
);
}
);
width = 526;
}
);
leftKerningGroup = T;
rightKerningGroup = T;
unicode = 0054;
},
{
glyphname = U;
layers = (
{
layerId = "E174F030-6324-451A-8951-EA6336064495";
paths = (
{
closed = 1;
nodes = (
"500 -12 OFFCURVE",
"586 63 OFFCURVE",
"586 230 CURVE SMOOTH",
"586 680 LINE",
"448 680 LINE",
"448 227 LINE SMOOTH",
"448 148 OFFCURVE",
"408 108 OFFCURVE",
"327 108 CURVE SMOOTH",
"246 108 OFFCURVE",
"206 148 OFFCURVE",
"206 227 CURVE SMOOTH",
"206 680 LINE",
"68 680 LINE",
"68 230 LINE SMOOTH",
"68 63 OFFCURVE",
"154 -12 OFFCURVE",
"327 -12 CURVE SMOOTH"
);
}
);
width = 654;
},
{
layerId = "7BE58B69-D6A5-4645-9194-9194354D517E";
paths = (
{
closed = 1;
nodes = (
"481 -10 OFFCURVE",
"564 55 OFFCURVE",
"564 210 CURVE SMOOTH",
"564 692 LINE",
"488 692 LINE",
"488 208 LINE SMOOTH",
"488 103 OFFCURVE",
"431 58 OFFCURVE",
"319 58 CURVE SMOOTH",
"211 58 OFFCURVE",
"157 108 OFFCURVE",
"157 208 CURVE SMOOTH",
"157 692 LINE",
"80 692 LINE",
"80 210 LINE SMOOTH",
"80 55 OFFCURVE",
"161 -10 OFFCURVE",
"321 -10 CURVE SMOOTH"
);
}
);
width = 644;
}
);
leftKerningGroup = U;
rightKerningGroup = U;
unicode = 0055;
},
{
glyphname = V;
layers = (
{
layerId = "E174F030-6324-451A-8951-EA6336064495";
paths = (
{
closed = 1;
nodes = (
"429 0 LINE",
"587 680 LINE",
"442 680 LINE",
"324 120 LINE",
"279 120 LINE",
"161 680 LINE",
"16 680 LINE",
"174 0 LINE"
);
}
);
width = 603;
},
{
layerId = "7BE58B69-D6A5-4645-9194-9194354D517E";
paths = (
{
closed = 1;
nodes = (
"377 0 LINE",
"558 692 LINE",
"478 692 LINE",
"319 68 LINE",
"263 68 LINE",
"104 692 LINE",
"24 692 LINE",
"205 0 LINE"
);
}
);
width = 582;
}
);
rightKerningGroup = numbersign;
unicode = 0056;
},
{
glyphname = W;
layers = (
{
layerId = "E174F030-6324-451A-8951-EA6336064495";
paths = (
{
closed = 1;
nodes = (
"358 0 LINE",
"465 517 LINE",
"572 0 LINE",
"781 0 LINE",
"911 680 LINE",
"766 680 LINE",
"682 118 LINE",
"667 118 LINE",
"545 680 LINE",
"385 680 LINE",
"263 118 LINE",
"248 118 LINE",
"164 680 LINE",
"19 680 LINE",
"149 0 LINE"
);
}
);
width = 930;
},
{
layerId = "7BE58B69-D6A5-4645-9194-9194354D517E";
paths = (
{
closed = 1;
nodes = (
"312 0 LINE",
"443 591 LINE",
"574 0 LINE",
"715 0 LINE",
"855 692 LINE",
"776 692 LINE",
"658 68 LINE",
"629 68 LINE",
"488 686 LINE",
"398 686 LINE",
"257 68 LINE",
"228 68 LINE",
"110 692 LINE",
"30 692 LINE",
"171 0 LINE"
);
}
);
width = 886;
}
);
leftKerningGroup = W;
rightKerningGroup = W;
unicode = 0057;
},
{
glyphname = X;
layers = (
{
layerId = "E174F030-6324-451A-8951-EA6336064495";
paths = (
{
closed = 1;
nodes = (
"152 0 LINE",
"281 235 LINE",
"407 0 LINE",
"560 0 LINE",
"364 333 LINE",
"560 680 LINE",
"417 680 LINE",
"288 430 LINE",
"162 680 LINE",
"9 680 LINE",
"205 326 LINE",
"9 0 LINE"
);
}
);
width = 569;
},
{
layerId = "7BE58B69-D6A5-4645-9194-9194354D517E";
paths = (
{
closed = 1;
nodes = (
"102 0 LINE",
"279 287 LINE",
"453 0 LINE",
"540 0 LINE",
"327 341 LINE",
"540 692 LINE",
"457 692 LINE",
"281 396 LINE",
"106 692 LINE",
"19 692 LINE",
"233 339 LINE",
"19 0 LINE"
);
}
);
width = 558;
}
);
rightKerningGroup = numbersign;
unicode = 0058;
},
{
glyphname = Y;
layers = (
{
layerId = "E174F030-6324-451A-8951-EA6336064495";
paths = (
{
closed = 1;
nodes = (
"348 0 LINE",
"348 275 LINE",
"556 680 LINE",
"403 680 LINE",
"278 409 LINE",
"153 680 LINE",
"0 680 LINE",
"210 275 LINE",
"210 0 LINE"
);
}
);
width = 557;
},
{
layerId = "7BE58B69-D6A5-4645-9194-9194354D517E";
paths = (
{
closed = 1;
nodes = (
"308 0 LINE",
"308 291 LINE",
"528 692 LINE",
"441 692 LINE",
"269 368 LINE",
"97 692 LINE",
"10 692 LINE",
"231 291 LINE",
"231 0 LINE"
);
}
);
width = 538;
}
);
leftKerningGroup = Y;
rightKerningGroup = Y;
unicode = 0059;
},
{
glyphname = Z;
layers = (
{
layerId = "E174F030-6324-451A-8951-EA6336064495";
paths = (
{
closed = 1;
nodes = (
"491 0 LINE",
"491 120 LINE",
"207 120 LINE",
"207 138 LINE",
"491 560 LINE",
"491 680 LINE",
"41 680 LINE",
"41 560 LINE",
"325 560 LINE",
"325 542 LINE",
"41 119 LINE",
"41 0 LINE"
);
}
);
width = 532;
},
{
layerId = "7BE58B69-D6A5-4645-9194-9194354D517E";
paths = (
{
closed = 1;
nodes = (
"493 -1 LINE",
"493 68 LINE",
"131 68 LINE",
"131 88 LINE",
"493 602 LINE",
"493 692 LINE",
"43 692 LINE",
"43 624 LINE",
"404 624 LINE",
"404 602 LINE",
"43 88 LINE",
"43 -1 LINE"
);
}
);
width = 536;
}
);
leftKerningGroup = Z;
rightKerningGroup = Z;
unicode = 005A;
},
{
glyphname = bracketleft;
layers = (
{
layerId = "E174F030-6324-451A-8951-EA6336064495";
paths = (
{
closed = 1;
nodes = (
"320 -123 LINE",
"320 -3 LINE",
"205 -3 LINE",
"205 629 LINE",
"320 629 LINE",
"320 749 LINE",
"68 749 LINE",
"68 -123 LINE"
);
}
);
width = 355;
},
{
layerId = "7BE58B69-D6A5-4645-9194-9194354D517E";
paths = (
{
closed = 1;
nodes = (
"289 -123 LINE",
"289 -56 LINE",
"155 -56 LINE",
"155 682 LINE",
"289 682 LINE",
"289 749 LINE",
"79 749 LINE",
"79 -123 LINE"
);
}
);
width = 329;
}
);
rightKerningGroup = numbersign;
unicode = 005B;
},
{
glyphname = backslash;
layers = (
{
layerId = "E174F030-6324-451A-8951-EA6336064495";
paths = (
{
closed = 1;
nodes = (
"466 13 LINE",
"146 716 LINE",
"32 664 LINE",
"350 -36 LINE"
);
}
);
width = 498;
},
{
layerId = "7BE58B69-D6A5-4645-9194-9194354D517E";
paths = (
{
closed = 1;
nodes = (
"405 14 LINE",
"97 707 LINE",
"30 678 LINE",
"338 -14 LINE"
);
}
);
width = 436;
}
);
rightKerningGroup = numbersign;
unicode = 005C;
},
{
glyphname = bracketright;
layers = (
{
layerId = "E174F030-6324-451A-8951-EA6336064495";
paths = (
{
closed = 1;
nodes = (
"287 749 LINE",
"35 749 LINE",
"35 629 LINE",
"150 629 LINE",
"150 -3 LINE",
"35 -3 LINE",
"35 -123 LINE",
"287 -123 LINE"
);
}
);
width = 355;
},
{
layerId = "7BE58B69-D6A5-4645-9194-9194354D517E";
paths = (
{
closed = 1;
nodes = (
"250 749 LINE",
"40 749 LINE",
"40 682 LINE",
"174 682 LINE",
"174 -56 LINE",
"40 -56 LINE",
"40 -123 LINE",
"250 -123 LINE"
);
}
);
width = 329;
}
);
rightKerningGroup = numbersign;
unicode = 005D;
},
{
glyphname = asciicircum;
layers = (
{
layerId = "E174F030-6324-451A-8951-EA6336064495";
paths = (
{
closed = 1;
nodes = (
"161 313 LINE",
"274 530 LINE",
"383 313 LINE",
"523 313 LINE",
"329 660 LINE",
"215 660 LINE",
"21 313 LINE"
);
}
);
width = 560;
},
{
layerId = "7BE58B69-D6A5-4645-9194-9194354D517E";
paths = (
{
closed = 1;
nodes = (
"138 319 LINE",
"278 586 LINE",
"421 319 LINE",
"501 319 LINE",
"310 660 LINE",
"243 660 LINE",
"58 319 LINE"
);
}
);
width = 560;
}
);
rightKerningGroup = numbersign;
unicode = 005E;
},
{
glyphname = underscore;
layers = (
{
layerId = "E174F030-6324-451A-8951-EA6336064495";
paths = (
{
closed = 1;
nodes = (
"524 -187 LINE",
"524 -73 LINE",
"96 -73 LINE",
"96 -187 LINE"
);
}
);
width = 620;
},
{
layerId = "7BE58B69-D6A5-4645-9194-9194354D517E";
paths = (
{
closed = 1;
nodes = (
"530 -158 LINE",
"530 -92 LINE",
"102 -92 LINE",
"102 -158 LINE"
);
}
);
width = 632;
}
);
rightKerningGroup = numbersign;
unicode = 005F;
},
{
glyphname = grave;
layers = (
{
layerId = "E174F030-6324-451A-8951-EA6336064495";
paths = (
{
closed = 1;
nodes = (
"275 651 LINE",
"23 753 LINE",
"-17 638 LINE",
"245 564 LINE"
);
}
);
width = 268;
},
{
layerId = "7BE58B69-D6A5-4645-9194-9194354D517E";
paths = (
{
closed = 1;
nodes = (
"241 642 LINE",
"25 740 LINE",
"-1 676 LINE",
"220 591 LINE"
);
}
);
width = 236;
}
);
rightKerningGroup = numbersign;
unicode = 0060;
},
{
glyphname = a;
layers = (
{
layerId = "E174F030-6324-451A-8951-EA6336064495";
paths = (
{
closed = 1;
nodes = (
"234 -12 OFFCURVE",
"283 0 OFFCURVE",
"331 23 CURVE",
"372 -5 OFFCURVE",
"406 -12 OFFCURVE",
"474 -12 CURVE",
"478 89 LINE",
"453 94 OFFCURVE",
"448 104 OFFCURVE",
"445 136 CURVE",
"445 344 LINE",
"445 461 OFFCURVE",
"392 512 OFFCURVE",
"264 512 CURVE",
"199 512 OFFCURVE",
"131 502 OFFCURVE",
"60 483 CURVE",
"64 390 LINE",
"103 393 OFFCURVE",
"205 398 OFFCURVE",
"252 398 CURVE",
"293 398 OFFCURVE",
"311 385 OFFCURVE",
"311 344 CURVE",
"311 313 LINE",
"204 305 LINE",
"85 297 OFFCURVE",
"29 259 OFFCURVE",
"29 152 CURVE",
"29 43 OFFCURVE",
"81 -12 OFFCURVE",
"184 -12 CURVE"
);
},
{
closed = 1;
nodes = (
"180 97 OFFCURVE",
"164 115 OFFCURVE",
"164 152 CURVE",
"164 189 OFFCURVE",
"183 209 OFFCURVE",
"220 212 CURVE",
"311 220 LINE",
"311 113 LINE",
"296 109 LINE",
"266 101 OFFCURVE",
"238 97 OFFCURVE",
"213 97 CURVE"
);
}
);
width = 511;
},
{
layerId = "7BE58B69-D6A5-4645-9194-9194354D517E";
paths = (
{
closed = 1;
nodes = (
"241 -10 OFFCURVE",
"301 3 OFFCURVE",
"361 30 CURVE",
"388 3 OFFCURVE",
"427 -10 OFFCURVE",
"480 -10 CURVE",
"483 49 LINE",
"446 54 OFFCURVE",
"427 68 OFFCURVE",
"425 93 CURVE",
"425 349 LINE SMOOTH",
"425 460 OFFCURVE",
"376 510 OFFCURVE",
"263 510 CURVE SMOOTH",
"206 510 OFFCURVE",
"141 503 OFFCURVE",
"68 488 CURVE",
"71 431 LINE",
"160 441 OFFCURVE",
"214 444 OFFCURVE",
"268 444 CURVE SMOOTH",
"319 444 OFFCURVE",
"350 417 OFFCURVE",
"350 349 CURVE SMOOTH",
"350 306 LINE",
"193 291 LINE SMOOTH",
"88 280 OFFCURVE",
"40 238 OFFCURVE",
"40 141 CURVE SMOOTH",
"40 44 OFFCURVE",
"89 -10 OFFCURVE",
"181 -10 CURVE SMOOTH"
);
},
{
closed = 1;
nodes = (
"142 53 OFFCURVE",
"117 84 OFFCURVE",
"117 145 CURVE SMOOTH",
"117 201 OFFCURVE",
"142 230 OFFCURVE",
"202 235 CURVE SMOOTH",
"350 249 LINE",
"350 84 LINE",
"327 76 LINE SMOOTH",
"283 61 OFFCURVE",
"238 53 OFFCURVE",
"193 53 CURVE SMOOTH"
);
}
);
width = 501;
}
);
leftKerningGroup = a;
rightKerningGroup = a;
unicode = 0061;
},
{
glyphname = b;
layers = (
{
layerId = "E174F030-6324-451A-8951-EA6336064495";
paths = (
{
closed = 1;
nodes = (
"440 -12 OFFCURVE",
"506 57 OFFCURVE",
"506 251 CURVE SMOOTH",
"506 440 OFFCURVE",
"444 512 OFFCURVE",
"314 512 CURVE SMOOTH",
"268 512 OFFCURVE",
"241 503 OFFCURVE",
"196 485 CURVE",
"196 700 LINE",
"62 700 LINE",
"62 2 LINE",
"100 -2 LINE SMOOTH",
"158 -8 OFFCURVE",
"227 -12 OFFCURVE",
"268 -12 CURVE SMOOTH"
);
},
{
closed = 1;
nodes = (
"246 108 OFFCURVE",
"227 109 OFFCURVE",
"196 112 CURVE",
"196 379 LINE",
"235 389 OFFCURVE",
"262 392 OFFCURVE",
"280 392 CURVE SMOOTH",
"342 392 OFFCURVE",
"370 355 OFFCURVE",
"370 250 CURVE SMOOTH",
"370 144 OFFCURVE",
"342 108 OFFCURVE",
"260 108 CURVE SMOOTH"
);
}
);
width = 544;
},
{
layerId = "7BE58B69-D6A5-4645-9194-9194354D517E";
paths = (
{
closed = 1;
nodes = (
"419 -9 OFFCURVE",
"475 51 OFFCURVE",
"475 253 CURVE SMOOTH",
"475 439 OFFCURVE",
"428 510 OFFCURVE",
"298 510 CURVE SMOOTH",
"244 510 OFFCURVE",
"197 498 OFFCURVE",
"146 475 CURVE",
"146 718 LINE",
"72 718 LINE",
"72 1 LINE",
"100 -2 LINE SMOOTH",
"158 -8 OFFCURVE",
"210 -9 OFFCURVE",
"234 -9 CURVE SMOOTH"
);
},
{
closed = 1;
nodes = (
"218 57 OFFCURVE",
"189 59 OFFCURVE",
"146 62 CURVE",
"146 414 LINE",
"204 435 OFFCURVE",
"245 443 OFFCURVE",
"281 443 CURVE SMOOTH",
"370 443 OFFCURVE",
"399 395 OFFCURVE",
"399 255 CURVE SMOOTH",
"399 112 OFFCURVE",
"369 57 OFFCURVE",
"242 57 CURVE SMOOTH"
);
}
);
width = 526;
}
);
leftKerningGroup = b;
rightKerningGroup = b;
unicode = 0062;
},
{
glyphname = c;
layers = (
{
layerId = "E174F030-6324-451A-8951-EA6336064495";
paths = (
{
closed = 1;
nodes = (
"285 -12 OFFCURVE",
"338 -5 OFFCURVE",
"409 9 CURVE",
"405 116 LINE",
"289 108 LINE",
"196 108 OFFCURVE",
"174 142 OFFCURVE",
"174 251 CURVE SMOOTH",
"174 359 OFFCURVE",
"196 392 OFFCURVE",
"287 392 CURVE SMOOTH",
"314 392 OFFCURVE",
"352 389 OFFCURVE",
"405 384 CURVE",
"409 490 LINE",
"329 507 OFFCURVE",
"289 512 OFFCURVE",
"251 512 CURVE SMOOTH",
"101 512 OFFCURVE",
"38 436 OFFCURVE",
"38 250 CURVE SMOOTH",
"38 69 OFFCURVE",
"98 -12 OFFCURVE",
"243 -12 CURVE SMOOTH"
);
}
);
width = 446;
},
{
layerId = "7BE58B69-D6A5-4645-9194-9194354D517E";
paths = (
{
closed = 1;
nodes = (
"290 -10 OFFCURVE",
"334 -5 OFFCURVE",
"396 4 CURVE",
"393 66 LINE",
"275 57 LINE",
"156 57 OFFCURVE",
"128 108 OFFCURVE",
"128 248 CURVE SMOOTH",
"128 398 OFFCURVE",
"160 443 OFFCURVE",
"271 443 CURVE SMOOTH",
"300 443 OFFCURVE",
"339 440 OFFCURVE",
"392 434 CURVE",
"395 495 LINE",
"316 509 OFFCURVE",
"282 511 OFFCURVE",
"246 511 CURVE SMOOTH",
"76 511 OFFCURVE",
"51 380 OFFCURVE",
"51 250 CURVE SMOOTH",
"51 67 OFFCURVE",
"101 -10 OFFCURVE",
"252 -10 CURVE SMOOTH"
);
}
);
width = 436;
}
);
leftKerningGroup = c;
rightKerningGroup = c;
unicode = 0063;
},
{
glyphname = d;
layers = (
{
layerId = "E174F030-6324-451A-8951-EA6336064495";
paths = (
{
closed = 1;
nodes = (
"262 -12 OFFCURVE",
"296 -6 OFFCURVE",
"354 21 CURVE",
"354 0 LINE",
"487 0 LINE",
"487 700 LINE",
"353 700 LINE",
"353 498 LINE",
"299 508 OFFCURVE",
"271 512 OFFCURVE",
"240 512 CURVE SMOOTH",
"104 512 OFFCURVE",
"38 432 OFFCURVE",
"38 243 CURVE SMOOTH",
"38 78 OFFCURVE",
"88 -12 OFFCURVE",
"226 -12 CURVE SMOOTH"
);
},
{
closed = 1;
nodes = (
"196 108 OFFCURVE",
"174 147 OFFCURVE",
"174 246 CURVE SMOOTH",
"174 356 OFFCURVE",
"201 396 OFFCURVE",
"264 396 CURVE SMOOTH",
"281 396 OFFCURVE",
"316 393 OFFCURVE",
"353 386 CURVE",
"353 123 LINE",
"339 120 LINE",
"308 112 OFFCURVE",
"277 108 OFFCURVE",
"257 108 CURVE SMOOTH"
);
}
);
width = 549;
},
{
layerId = "7BE58B69-D6A5-4645-9194-9194354D517E";
paths = (
{
closed = 1;
nodes = (
"281 -10 OFFCURVE",
"331 5 OFFCURVE",
"382 34 CURVE",
"382 0 LINE",
"456 0 LINE",
"456 718 LINE",
"382 718 LINE",
"382 497 LINE",
"339 506 OFFCURVE",
"297 510 OFFCURVE",
"263 510 CURVE SMOOTH",
"111 510 OFFCURVE",
"50 431 OFFCURVE",
"50 241 CURVE SMOOTH",
"50 75 OFFCURVE",
"97 -10 OFFCURVE",
"227 -10 CURVE SMOOTH"
);
},
{
closed = 1;
nodes = (
"154 57 OFFCURVE",
"127 124 OFFCURVE",
"127 247 CURVE SMOOTH",
"127 386 OFFCURVE",
"162 445 OFFCURVE",
"269 445 CURVE SMOOTH",
"297 445 OFFCURVE",
"339 441 OFFCURVE",
"382 433 CURVE",
"382 94 LINE",
"362 85 LINE SMOOTH",
"335 73 OFFCURVE",
"283 57 OFFCURVE",
"241 57 CURVE SMOOTH"
);
}
);
width = 529;
}
);
leftKerningGroup = d;
rightKerningGroup = numbersign;
unicode = 0064;
},
{
glyphname = e;
layers = (
{
layerId = "E174F030-6324-451A-8951-EA6336064495";
paths = (
{
closed = 1;
nodes = (
"312 -12 OFFCURVE",
"383 -3 OFFCURVE",
"460 16 CURVE",
"458 115 LINE",
"430 112 LINE SMOOTH",
"401 109 OFFCURVE",
"318 106 OFFCURVE",
"284 106 CURVE SMOOTH",
"202 106 OFFCURVE",
"176 123 OFFCURVE",
"172 193 CURVE",
"466 193 LINE",
"476 286 LINE",
"476 437 OFFCURVE",
"401 512 OFFCURVE",
"261 512 CURVE SMOOTH",
"107 512 OFFCURVE",
"37 421 OFFCURVE",
"37 238 CURVE SMOOTH",
"37 63 OFFCURVE",
"101 -12 OFFCURVE",
"258 -12 CURVE SMOOTH"
);
},
{
closed = 1;
nodes = (
"172 372 OFFCURVE",
"195 402 OFFCURVE",
"260 402 CURVE SMOOTH",
"322 402 OFFCURVE",
"344 375 OFFCURVE",
"344 295 CURVE",
"171 295 LINE"
);
}
);
width = 510;
},
{
layerId = "7BE58B69-D6A5-4645-9194-9194354D517E";
paths = (
{
closed = 1;
nodes = (
"298 -10 OFFCURVE",
"367 -5 OFFCURVE",
"443 6 CURVE",
"441 65 LINE",
"412 62 LINE SMOOTH",
"379 59 OFFCURVE",
"306 56 OFFCURVE",
"276 56 CURVE SMOOTH",
"161 56 OFFCURVE",
"126 99 OFFCURVE",
"126 219 CURVE",
"456 219 LINE",
"460 276 LINE",
"460 436 OFFCURVE",
"394 510 OFFCURVE",
"261 510 CURVE SMOOTH",
"115 510 OFFCURVE",
"50 421 OFFCURVE",
"50 237 CURVE SMOOTH",
"50 70 OFFCURVE",
"104 -10 OFFCURVE",
"259 -10 CURVE SMOOTH"
);
},
{
closed = 1;
nodes = (
"126 396 OFFCURVE",
"170 447 OFFCURVE",
"261 447 CURVE SMOOTH",
"348 447 OFFCURVE",
"385 401 OFFCURVE",
"385 279 CURVE",
"125 279 LINE"
);
}
);
width = 505;
}
);
leftKerningGroup = c;
rightKerningGroup = e;
unicode = 0065;
},
{
glyphname = f;
layers = (
{
layerId = "E174F030-6324-451A-8951-EA6336064495";
paths = (
{
closed = 1;
nodes = (
"220 0 LINE",
"220 386 LINE",
"341 386 LINE",
"341 500 LINE",
"220 500 LINE",
"220 521 LINE SMOOTH",
"220 555 OFFCURVE",
"230 594 OFFCURVE",
"261 594 CURVE SMOOTH",
"266 594 OFFCURVE",
"285 593 OFFCURVE",
"344 590 CURVE",
"346 703 LINE",
"232 712 LINE",
"123 712 OFFCURVE",
"86 666 OFFCURVE",
"86 522 CURVE SMOOTH",
"86 500 LINE",
"32 500 LINE",
"32 386 LINE",
"86 386 LINE",
"86 0 LINE"
);
}
);
width = 357;
},
{
layerId = "7BE58B69-D6A5-4645-9194-9194354D517E";
paths = (
{
closed = 1;
nodes = (
"168 0 LINE",
"168 435 LINE",
"313 435 LINE",
"313 500 LINE",
"168 500 LINE",
"168 544 LINE SMOOTH",
"168 614 OFFCURVE",
"179 662 OFFCURVE",
"232 662 CURVE SMOOTH",
"240 662 OFFCURVE",
"243 661 OFFCURVE",
"328 659 CURVE",
"329 721 LINE",
"228 728 LINE",
"128 728 OFFCURVE",
"93 686 OFFCURVE",
"93 545 CURVE SMOOTH",
"93 500 LINE",
"30 500 LINE",
"30 435 LINE",
"93 435 LINE",
"93 0 LINE"
);
}
);
width = 331;
}
);
rightKerningGroup = numbersign;
unicode = 0066;
},
{
glyphname = g;
layers = (
{
layerId = "E174F030-6324-451A-8951-EA6336064495";
paths = (
{
closed = 1;
nodes = (
"432 -230 OFFCURVE",
"515 -176 OFFCURVE",
"515 -53 CURVE SMOOTH",
"515 70 OFFCURVE",
"433 86 OFFCURVE",
"297 89 CURVE SMOOTH",
"237 90 OFFCURVE",
"200 89 OFFCURVE",
"200 120 CURVE SMOOTH",
"200 129 OFFCURVE",
"203 144 OFFCURVE",
"210 161 CURVE",
"222 158 OFFCURVE",
"235 157 OFFCURVE",
"256 157 CURVE SMOOTH",
"390 157 OFFCURVE",
"462 200 OFFCURVE",
"462 324 CURVE SMOOTH",
"462 360 OFFCURVE",
"456 375 OFFCURVE",
"440 401 CURVE",
"515 395 LINE",
"515 502 LINE",
"354 497 LINE",
"309 507 OFFCURVE",
"282 510 OFFCURVE",
"253 510 CURVE SMOOTH",
"126 510 OFFCURVE",
"43 455 OFFCURVE",
"43 330 CURVE SMOOTH",
"43 260 OFFCURVE",
"69 215 OFFCURVE",
"111 184 CURVE",
"79 134 OFFCURVE",
"72 120 OFFCURVE",
"72 99 CURVE SMOOTH",
"72 72 OFFCURVE",
"84 45 OFFCURVE",
"109 28 CURVE",
"61 -10 OFFCURVE",
"37 -45 OFFCURVE",
"37 -96 CURVE SMOOTH",
"37 -196 OFFCURVE",
"129 -230 OFFCURVE",
"263 -230 CURVE SMOOTH"
);
},
{
closed = 1;
nodes = (
"203 -120 OFFCURVE",
"169 -106 OFFCURVE",
"169 -74 CURVE SMOOTH",
"169 -58 OFFCURVE",
"178 -38 OFFCURVE",
"196 -20 CURVE",
"286 -27 LINE",
"336 -29 OFFCURVE",
"380 -25 OFFCURVE",
"380 -67 CURVE SMOOTH",
"380 -103 OFFCURVE",
"349 -120 OFFCURVE",
"272 -120 CURVE SMOOTH"
);
},
{
closed = 1;
nodes = (
"203 259 OFFCURVE",
"177 284 OFFCURVE",
"177 333 CURVE SMOOTH",
"177 382 OFFCURVE",
"203 406 OFFCURVE",
"254 406 CURVE SMOOTH",
"305 406 OFFCURVE",
"330 382 OFFCURVE",
"330 333 CURVE SMOOTH",
"330 284 OFFCURVE",
"305 259 OFFCURVE",
"254 259 CURVE SMOOTH"
);
}
);
width = 534;
},
{
layerId = "7BE58B69-D6A5-4645-9194-9194354D517E";
paths = (
{
closed = 1;
nodes = (
"423 -235 OFFCURVE",
"487 -182 OFFCURVE",
"487 -68 CURVE SMOOTH",
"487 53 OFFCURVE",
"415 71 OFFCURVE",
"296 71 CURVE SMOOTH",
"228 71 OFFCURVE",
"173 65 OFFCURVE",
"173 113 CURVE SMOOTH",
"173 129 OFFCURVE",
"179 144 OFFCURVE",
"191 174 CURVE",
"206 171 OFFCURVE",
"222 170 OFFCURVE",
"242 170 CURVE SMOOTH",
"371 170 OFFCURVE",
"433 214 OFFCURVE",
"433 335 CURVE SMOOTH",
"433 386 OFFCURVE",
"422 417 OFFCURVE",
"400 439 CURVE",
"495 437 LINE",
"495 501 LINE",
"347 497 LINE",
"304 507 OFFCURVE",
"275 510 OFFCURVE",
"245 510 CURVE SMOOTH",
"118 510 OFFCURVE",
"56 454 OFFCURVE",
"56 338 CURVE SMOOTH",
"56 257 OFFCURVE",
"86 210 OFFCURVE",
"135 188 CURVE",
"105 134 OFFCURVE",
"101 122 OFFCURVE",
"101 105 CURVE SMOOTH",
"101 81 OFFCURVE",
"109 53 OFFCURVE",
"129 40 CURVE",
"72 -4 OFFCURVE",
"50 -25 OFFCURVE",
"50 -90 CURVE SMOOTH",
"50 -193 OFFCURVE",
"105 -235 OFFCURVE",
"255 -235 CURVE SMOOTH"
);
},
{
closed = 1;
nodes = (
"159 -172 OFFCURVE",
"124 -149 OFFCURVE",
"124 -80 CURVE SMOOTH",
"124 -40 OFFCURVE",
"136 -22 OFFCURVE",
"180 10 CURVE",
"288 5 LINE",
"382 5 OFFCURVE",
"411 -8 OFFCURVE",
"411 -72 CURVE SMOOTH",
"411 -145 OFFCURVE",
"373 -172 OFFCURVE",
"262 -172 CURVE SMOOTH"
);
},
{
closed = 1;
nodes = (
"164 230 OFFCURVE",
"131 260 OFFCURVE",
"131 339 CURVE SMOOTH",
"131 418 OFFCURVE",
"164 449 OFFCURVE",
"246 449 CURVE SMOOTH",
"326 449 OFFCURVE",
"358 419 OFFCURVE",
"358 340 CURVE SMOOTH",
"358 260 OFFCURVE",
"326 230 OFFCURVE",
"245 230 CURVE SMOOTH"
);
}
);
width = 514;
}
);
leftKerningGroup = g;
rightKerningGroup = g;
unicode = 0067;
},
{
glyphname = h;
layers = (
{
layerId = "E174F030-6324-451A-8951-EA6336064495";
paths = (
{
closed = 1;
nodes = (
"196 0 LINE",
"196 376 LINE",
"209 380 LINE SMOOTH",
"235 388 OFFCURVE",
"263 392 OFFCURVE",
"284 392 CURVE SMOOTH",
"347 392 OFFCURVE",
"362 355 OFFCURVE",
"362 268 CURVE SMOOTH",
"362 0 LINE",
"496 0 LINE",
"496 271 LINE SMOOTH",
"496 431 OFFCURVE",
"453 512 OFFCURVE",
"327 512 CURVE SMOOTH",
"280 512 OFFCURVE",
"245 501 OFFCURVE",
"196 476 CURVE",
"196 700 LINE",
"62 700 LINE",
"62 0 LINE"
);
}
);
width = 553;
},
{
layerId = "7BE58B69-D6A5-4645-9194-9194354D517E";
paths = (
{
closed = 1;
nodes = (
"147 0 LINE",
"147 413 LINE",
"166 420 LINE SMOOTH",
"204 434 OFFCURVE",
"242 443 OFFCURVE",
"285 443 CURVE SMOOTH",
"376 443 OFFCURVE",
"395 403 OFFCURVE",
"395 262 CURVE SMOOTH",
"395 0 LINE",
"470 0 LINE",
"470 264 LINE SMOOTH",
"470 445 OFFCURVE",
"434 510 OFFCURVE",
"305 510 CURVE SMOOTH",
"255 510 OFFCURVE",
"207 500 OFFCURVE",
"147 472 CURVE",
"147 718 LINE",
"72 718 LINE",
"72 0 LINE"
);
}
);
width = 537;
}
);
leftKerningGroup = h;
rightKerningGroup = h;
unicode = 0068;
},
{
glyphname = k;
layers = (
{
layerId = "E174F030-6324-451A-8951-EA6336064495";
paths = (
{
closed = 1;
nodes = (
"196 0 LINE",
"196 186 LINE",
"251 195 LINE",
"352 0 LINE",
"503 0 LINE",
"366 263 LINE",
"496 500 LINE",
"346 500 LINE",
"247 311 LINE",
"196 302 LINE",
"196 700 LINE",
"62 700 LINE",
"62 0 LINE"
);
}
);
width = 515;
},
{
layerId = "7BE58B69-D6A5-4645-9194-9194354D517E";
paths = (
{
closed = 1;
nodes = (
"147 0 LINE",
"147 229 LINE",
"226 232 LINE",
"375 0 LINE",
"460 0 LINE",
"290 270 LINE",
"453 500 LINE",
"368 500 LINE",
"225 298 LINE",
"147 294 LINE",
"147 718 LINE",
"72 718 LINE",
"72 0 LINE"
);
}
);
width = 479;
}
);
leftKerningGroup = h;
rightKerningGroup = k;
unicode = 006B;
},
{
glyphname = l;
layers = (
{
layerId = "E174F030-6324-451A-8951-EA6336064495";
paths = (
{
closed = 1;
nodes = (
"202 0 LINE",
"202 700 LINE",
"68 700 LINE",
"68 0 LINE"
);
}
);
width = 270;
},
{
layerId = "7BE58B69-D6A5-4645-9194-9194354D517E";
paths = (
{
closed = 1;
nodes = (
"153 0 LINE",
"153 718 LINE",
"78 718 LINE",
"78 0 LINE"
);
}
);
width = 231;
}
);
leftKerningGroup = l;
rightKerningGroup = numbersign;
unicode = 006C;
},
{
glyphname = m;
layers = (
{
layerId = "E174F030-6324-451A-8951-EA6336064495";
paths = (
{
closed = 1;
nodes = (
"196 0 LINE",
"196 374 LINE",
"208 378 LINE SMOOTH",
"232 386 OFFCURVE",
"256 392 OFFCURVE",
"282 392 CURVE SMOOTH",
"344 392 OFFCURVE",
"355 359 OFFCURVE",
"355 257 CURVE SMOOTH",
"355 0 LINE",
"489 0 LINE",
"489 259 LINE SMOOTH",
"489 285 OFFCURVE",
"488 323 OFFCURVE",
"485 373 CURVE",
"500 378 LINE",
"531 387 OFFCURVE",
"557 392 OFFCURVE",
"577 392 CURVE SMOOTH",
"634 392 OFFCURVE",
"648 352 OFFCURVE",
"648 267 CURVE SMOOTH",
"648 0 LINE",
"782 0 LINE",
"782 271 LINE SMOOTH",
"782 436 OFFCURVE",
"738 512 OFFCURVE",
"611 512 CURVE SMOOTH",
"553 512 OFFCURVE",
"499 496 OFFCURVE",
"438 465 CURVE",
"408 498 OFFCURVE",
"360 512 OFFCURVE",
"317 512 CURVE SMOOTH",
"276 512 OFFCURVE",
"242 499 OFFCURVE",
"195 472 CURVE",
"195 500 LINE",
"62 500 LINE",
"62 0 LINE"
);
}
);
width = 839;
},
{
layerId = "7BE58B69-D6A5-4645-9194-9194354D517E";
paths = (
{
closed = 1;
nodes = (
"147 0 LINE",
"147 406 LINE",
"164 415 LINE SMOOTH",
"189 428 OFFCURVE",
"238 443 OFFCURVE",
"286 443 CURVE SMOOTH",
"369 443 OFFCURVE",
"386 398 OFFCURVE",
"386 258 CURVE SMOOTH",
"386 0 LINE",
"461 0 LINE",
"461 260 LINE SMOOTH",
"461 335 OFFCURVE",
"457 384 OFFCURVE",
"448 406 CURVE",
"467 415 LINE SMOOTH",
"492 427 OFFCURVE",
"543 443 OFFCURVE",
"593 443 CURVE SMOOTH",
"676 443 OFFCURVE",
"694 398 OFFCURVE",
"694 262 CURVE SMOOTH",
"694 0 LINE",
"769 0 LINE",
"769 264 LINE SMOOTH",
"769 441 OFFCURVE",
"733 510 OFFCURVE",
"611 510 CURVE SMOOTH",
"537 510 OFFCURVE",
"466 485 OFFCURVE",
"422 459 CURVE",
"396 495 OFFCURVE",
"348 510 OFFCURVE",
"296 510 CURVE SMOOTH",
"243 510 OFFCURVE",
"196 495 OFFCURVE",
"146 465 CURVE",
"146 500 LINE",
"72 500 LINE",
"72 0 LINE"
);
}
);
width = 836;
}
);
leftKerningGroup = m;
rightKerningGroup = h;
unicode = 006D;
},
{
glyphname = n;
layers = (
{
layerId = "E174F030-6324-451A-8951-EA6336064495";
paths = (
{
closed = 1;
nodes = (
"196 0 LINE",
"196 374 LINE",
"208 378 LINE SMOOTH",
"232 386 OFFCURVE",
"257 392 OFFCURVE",
"283 392 CURVE SMOOTH",
"347 392 OFFCURVE",
"362 355 OFFCURVE",
"362 267 CURVE SMOOTH",
"362 0 LINE",
"496 0 LINE",
"496 271 LINE SMOOTH",
"496 430 OFFCURVE",
"453 512 OFFCURVE",
"326 512 CURVE SMOOTH",
"282 512 OFFCURVE",
"246 502 OFFCURVE",
"195 472 CURVE",
"195 500 LINE",
"62 500 LINE",
"62 0 LINE"
);
}
);
width = 553;
},
{
layerId = "7BE58B69-D6A5-4645-9194-9194354D517E";
paths = (
{
closed = 1;
nodes = (
"147 0 LINE",
"147 406 LINE",
"166 415 LINE SMOOTH",
"191 427 OFFCURVE",
"243 443 OFFCURVE",
"293 443 CURVE SMOOTH",
"377 443 OFFCURVE",
"396 397 OFFCURVE",
"396 262 CURVE SMOOTH",
"396 0 LINE",
"470 0 LINE",
"470 264 LINE SMOOTH",
"470 444 OFFCURVE",
"434 510 OFFCURVE",
"307 510 CURVE SMOOTH",
"255 510 OFFCURVE",
"208 499 OFFCURVE",
"146 465 CURVE",
"146 500 LINE",
"72 500 LINE",
"72 0 LINE"
);
}
);
width = 537;
}
);
leftKerningGroup = m;
rightKerningGroup = h;
unicode = 006E;
},
{
glyphname = o;
layers = (
{
layerId = "E174F030-6324-451A-8951-EA6336064495";
paths = (
{
closed = 1;
nodes = (
"419 -12 OFFCURVE",
"496 86 OFFCURVE",
"496 251 CURVE",
"496 416 OFFCURVE",
"419 512 OFFCURVE",
"266 512 CURVE",
"113 512 OFFCURVE",
"36 416 OFFCURVE",
"36 251 CURVE",
"36 86 OFFCURVE",
"113 -12 OFFCURVE",
"266 -12 CURVE"
);
},
{
closed = 1;
nodes = (
"203 102 OFFCURVE",
"172 143 OFFCURVE",
"172 251 CURVE",
"172 359 OFFCURVE",
"203 398 OFFCURVE",
"266 398 CURVE",
"329 398 OFFCURVE",
"360 359 OFFCURVE",
"360 251 CURVE",
"360 143 OFFCURVE",
"329 102 OFFCURVE",
"266 102 CURVE"
);
}
);
width = 532;
},
{
layerId = "7BE58B69-D6A5-4645-9194-9194354D517E";
paths = (
{
closed = 1;
nodes = (
"426 -10 OFFCURVE",
"478 68 OFFCURVE",
"478 247 CURVE SMOOTH",
"478 433 OFFCURVE",
"422 510 OFFCURVE",
"264 510 CURVE SMOOTH",
"108 510 OFFCURVE",
"50 435 OFFCURVE",
"50 247 CURVE SMOOTH",
"50 67 OFFCURVE",
"103 -10 OFFCURVE",
"264 -10 CURVE SMOOTH"
);
},
{
closed = 1;
nodes = (
"154 55 OFFCURVE",
"127 106 OFFCURVE",
"127 247 CURVE SMOOTH",
"127 399 OFFCURVE",
"158 445 OFFCURVE",
"265 445 CURVE SMOOTH",
"371 445 OFFCURVE",
"401 399 OFFCURVE",
"401 247 CURVE SMOOTH",
"401 105 OFFCURVE",
"375 55 OFFCURVE",
"265 55 CURVE SMOOTH"
);
}
);
width = 528;
}
);
leftKerningGroup = c;
rightKerningGroup = o;
unicode = 006F;
},
{
glyphname = p;
layers = (
{
layerId = "E174F030-6324-451A-8951-EA6336064495";
paths = (
{
closed = 1;
nodes = (
"196 -210 LINE",
"196 -4 LINE",
"230 -10 OFFCURVE",
"253 -12 OFFCURVE",
"281 -12 CURVE SMOOTH",
"440 -12 OFFCURVE",
"506 54 OFFCURVE",
"506 246 CURVE SMOOTH",
"506 433 OFFCURVE",
"444 512 OFFCURVE",
"317 512 CURVE SMOOTH",
"279 512 OFFCURVE",
"249 505 OFFCURVE",
"195 473 CURVE",
"195 500 LINE",
"62 500 LINE",
"62 -210 LINE"
);
},
{
closed = 1;
nodes = (
"251 104 OFFCURVE",
"226 106 OFFCURVE",
"196 110 CURVE",
"196 372 LINE",
"208 377 LINE SMOOTH",
"233 387 OFFCURVE",
"259 392 OFFCURVE",
"280 392 CURVE SMOOTH",
"344 392 OFFCURVE",
"370 347 OFFCURVE",
"370 246 CURVE SMOOTH",
"370 145 OFFCURVE",
"344 104 OFFCURVE",
"268 104 CURVE SMOOTH"
);
}
);
width = 544;
},
{
layerId = "7BE58B69-D6A5-4645-9194-9194354D517E";
paths = (
{
closed = 1;
nodes = (
"147 -222 LINE",
"147 1 LINE",
"181 -6 OFFCURVE",
"219 -10 OFFCURVE",
"256 -10 CURVE SMOOTH",
"417 -10 OFFCURVE",
"477 65 OFFCURVE",
"477 253 CURVE SMOOTH",
"477 432 OFFCURVE",
"423 510 OFFCURVE",
"299 510 CURVE SMOOTH",
"243 510 OFFCURVE",
"196 494 OFFCURVE",
"146 464 CURVE",
"146 500 LINE",
"72 500 LINE",
"72 -222 LINE"
);
},
{
closed = 1;
nodes = (
"229 55 OFFCURVE",
"194 59 OFFCURVE",
"147 66 CURVE",
"147 403 LINE",
"166 413 LINE",
"193 426 OFFCURVE",
"244 443 OFFCURVE",
"286 443 CURVE SMOOTH",
"361 443 OFFCURVE",
"401 390 OFFCURVE",
"401 250 CURVE SMOOTH",
"401 114 OFFCURVE",
"363 55 OFFCURVE",
"257 55 CURVE SMOOTH"
);
}
);
width = 527;
}
);
leftKerningGroup = m;
rightKerningGroup = b;
unicode = 0070;
},
{
glyphname = q;
layers = (
{
layerId = "E174F030-6324-451A-8951-EA6336064495";
paths = (
{
closed = 1;
nodes = (
"481 -210 LINE",
"481 499 LINE",
"286 512 LINE",
"103 512 OFFCURVE",
"38 450 OFFCURVE",
"38 252 CURVE SMOOTH",
"38 59 OFFCURVE",
"99 -12 OFFCURVE",
"229 -12 CURVE SMOOTH",
"273 -12 OFFCURVE",
"300 -4 OFFCURVE",
"347 15 CURVE",
"347 -210 LINE"
);
},
{
closed = 1;
nodes = (
"199 108 OFFCURVE",
"172 147 OFFCURVE",
"172 251 CURVE SMOOTH",
"172 355 OFFCURVE",
"199 396 OFFCURVE",
"287 396 CURVE SMOOTH",
"301 396 OFFCURVE",
"322 395 OFFCURVE",
"347 392 CURVE",
"347 121 LINE",
"334 118 LINE",
"309 111 OFFCURVE",
"281 108 OFFCURVE",
"263 108 CURVE SMOOTH"
);
}
);
width = 543;
},
{
layerId = "7BE58B69-D6A5-4645-9194-9194354D517E";
paths = (
{
closed = 1;
nodes = (
"453 -222 LINE",
"453 500 LINE",
"286 510 LINE",
"109 510 OFFCURVE",
"50 437 OFFCURVE",
"50 246 CURVE SMOOTH",
"50 63 OFFCURVE",
"104 -10 OFFCURVE",
"235 -10 CURVE SMOOTH",
"286 -10 OFFCURVE",
"332 1 OFFCURVE",
"379 23 CURVE",
"379 -222 LINE"
);
},
{
closed = 1;
nodes = (
"159 57 OFFCURVE",
"126 110 OFFCURVE",
"126 245 CURVE SMOOTH",
"126 384 OFFCURVE",
"161 445 OFFCURVE",
"285 445 CURVE SMOOTH",
"308 445 OFFCURVE",
"338 443 OFFCURVE",
"379 439 CURVE",
"379 86 LINE",
"361 79 LINE SMOOTH",
"323 64 OFFCURVE",
"283 57 OFFCURVE",
"250 57 CURVE SMOOTH"
);
}
);
width = 526;
}
);
leftKerningGroup = d;
rightKerningGroup = q;
unicode = 0071;
},
{
glyphname = r;
layers = (
{
layerId = "E174F030-6324-451A-8951-EA6336064495";
paths = (
{
closed = 1;
nodes = (
"196 0 LINE",
"196 335 LINE",
"216 342 LINE",
"255 354 OFFCURVE",
"301 366 OFFCURVE",
"355 377 CURVE",
"355 512 LINE",
"304 502 OFFCURVE",
"251 480 OFFCURVE",
"195 447 CURVE",
"195 500 LINE",
"62 500 LINE",
"62 0 LINE"
);
}
);
width = 372;
},
{
layerId = "7BE58B69-D6A5-4645-9194-9194354D517E";
paths = (
{
closed = 1;
nodes = (
"147 0 LINE",
"147 367 LINE",
"172 380 LINE SMOOTH",
"204 397 OFFCURVE",
"273 424 OFFCURVE",
"329 435 CURVE",
"329 511 LINE",
"265 498 OFFCURVE",
"204 472 OFFCURVE",
"146 432 CURVE",
"146 500 LINE",
"72 500 LINE",
"72 0 LINE"
);
}
);
width = 346;
}
);
leftKerningGroup = m;
rightKerningGroup = r;
unicode = 0072;
},
{
glyphname = s;
layers = (
{
layerId = "E174F030-6324-451A-8951-EA6336064495";
paths = (
{
closed = 1;
nodes = (
"373 -12 OFFCURVE",
"437 42 OFFCURVE",
"437 156 CURVE SMOOTH",
"437 253 OFFCURVE",
"390 285 OFFCURVE",
"289 305 CURVE SMOOTH",
"230 317 OFFCURVE",
"169 317 OFFCURVE",
"169 357 CURVE SMOOTH",
"169 387 OFFCURVE",
"205 391 OFFCURVE",
"242 391 CURVE SMOOTH",
"283 391 OFFCURVE",
"338 386 OFFCURVE",
"421 375 CURVE",
"423 486 LINE",
"390 492 LINE SMOOTH",
"324 504 OFFCURVE",
"275 511 OFFCURVE",
"231 511 CURVE SMOOTH",
"116 511 OFFCURVE",
"36 462 OFFCURVE",
"36 344 CURVE SMOOTH",
"36 232 OFFCURVE",
"108 211 OFFCURVE",
"190 196 CURVE SMOOTH",
"256 184 OFFCURVE",
"304 181 OFFCURVE",
"304 146 CURVE SMOOTH",
"304 115 OFFCURVE",
"268 108 OFFCURVE",
"224 108 CURVE SMOOTH",
"187 108 OFFCURVE",
"131 113 OFFCURVE",
"48 124 CURVE",
"44 12 LINE",
"76 6 LINE SMOOTH",
"139 -6 OFFCURVE",
"192 -12 OFFCURVE",
"237 -12 CURVE SMOOTH"
);
}
);
width = 472;
},
{
layerId = "7BE58B69-D6A5-4645-9194-9194354D517E";
paths = (
{
closed = 1;
nodes = (
"358 -10 OFFCURVE",
"422 36 OFFCURVE",
"422 146 CURVE SMOOTH",
"422 244 OFFCURVE",
"372 267 OFFCURVE",
"259 288 CURVE SMOOTH",
"180 303 OFFCURVE",
"120 306 OFFCURVE",
"120 369 CURVE SMOOTH",
"120 419 OFFCURVE",
"157 443 OFFCURVE",
"235 443 CURVE SMOOTH",
"270 443 OFFCURVE",
"330 438 OFFCURVE",
"404 427 CURVE",
"406 491 LINE",
"378 496 LINE SMOOTH",
"321 506 OFFCURVE",
"266 509 OFFCURVE",
"233 509 CURVE SMOOTH",
"122 509 OFFCURVE",
"45 474 OFFCURVE",
"45 360 CURVE SMOOTH",
"45 269 OFFCURVE",
"95 245 OFFCURVE",
"207 226 CURVE SMOOTH",
"283 213 OFFCURVE",
"347 212 OFFCURVE",
"347 139 CURVE SMOOTH",
"347 80 OFFCURVE",
"306 57 OFFCURVE",
"228 57 CURVE SMOOTH",
"189 57 OFFCURVE",
"132 63 OFFCURVE",
"56 74 CURVE",
"52 9 LINE",
"82 4 LINE SMOOTH",
"138 -5 OFFCURVE",
"186 -10 OFFCURVE",
"229 -10 CURVE SMOOTH"
);
}
);
width = 465;
},
{
associatedMasterId = "7BE58B69-D6A5-4645-9194-9194354D517E";
layerId = "BEC6E161-26A7-43DB-A376-6DCD9A39B99E";
name = "Black {900, 100}";
paths = (
{
closed = 1;
nodes = (
"380 -13 OFFCURVE",
"447 46 OFFCURVE",
"447 157 CURVE SMOOTH",
"447 254 OFFCURVE",
"408 297 OFFCURVE",
"309 316 CURVE SMOOTH",
"252 326 OFFCURVE",
"202 329 OFFCURVE",
"202 345 CURVE SMOOTH",
"202 355 OFFCURVE",
"229 356 OFFCURVE",
"261 356 CURVE SMOOTH",
"287 356 OFFCURVE",
"343 351 OFFCURVE",
"432 340 CURVE",
"434 483 LINE",
"398 489 LINE SMOOTH",
"325 505 OFFCURVE",
"269 512 OFFCURVE",
"232 512 CURVE SMOOTH",
"112 512 OFFCURVE",
"30 452 OFFCURVE",
"30 340 CURVE SMOOTH",
"30 228 OFFCURVE",
"83 192 OFFCURVE",
"179 176 CURVE SMOOTH",
"231 165 OFFCURVE",
"275 163 OFFCURVE",
"275 151 CURVE SMOOTH",
"275 143 OFFCURVE",
"242 142 OFFCURVE",
"216 142 CURVE SMOOTH",
"187 142 OFFCURVE",
"130 146 OFFCURVE",
"43 157 CURVE",
"39 14 LINE",
"72 7 LINE SMOOTH",
"140 -7 OFFCURVE",
"195 -13 OFFCURVE",
"241 -13 CURVE SMOOTH"
);
}
);
width = 477;
}
);
leftKerningGroup = s;
rightKerningGroup = s;
unicode = 0073;
},
{
glyphname = t;
layers = (
{
layerId = "E174F030-6324-451A-8951-EA6336064495";
paths = (
{
closed = 1;
nodes = (
"264 -12 OFFCURVE",
"289 -8 OFFCURVE",
"340 3 CURVE",
"334 110 LINE",
"258 108 LINE SMOOTH",
"216 107 OFFCURVE",
"216 140 OFFCURVE",
"216 181 CURVE SMOOTH",
"216 386 LINE",
"339 386 LINE",
"339 500 LINE",
"216 500 LINE",
"216 639 LINE",
"82 639 LINE",
"82 500 LINE",
"23 500 LINE",
"23 386 LINE",
"82 386 LINE",
"82 178 LINE SMOOTH",
"82 37 OFFCURVE",
"118 -12 OFFCURVE",
"232 -12 CURVE SMOOTH"
);
}
);
width = 364;
},
{
layerId = "7BE58B69-D6A5-4645-9194-9194354D517E";
paths = (
{
closed = 1;
nodes = (
"261 -11 OFFCURVE",
"293 -7 OFFCURVE",
"338 0 CURVE",
"333 62 LINE",
"244 56 LINE",
"175 56 OFFCURVE",
"172 100 OFFCURVE",
"172 196 CURVE SMOOTH",
"172 435 LINE",
"331 435 LINE",
"331 500 LINE",
"172 500 LINE",
"172 653 LINE",
"98 653 LINE",
"98 500 LINE",
"27 500 LINE",
"27 435 LINE",
"98 435 LINE",
"98 172 LINE SMOOTH",
"98 31 OFFCURVE",
"132 -11 OFFCURVE",
"231 -11 CURVE SMOOTH"
);
}
);
width = 351;
}
);
leftKerningGroup = t;
rightKerningGroup = t;
unicode = 0074;
},
{
glyphname = u;
layers = (
{
layerId = "E174F030-6324-451A-8951-EA6336064495";
paths = (
{
closed = 1;
nodes = (
"266 -12 OFFCURVE",
"300 -4 OFFCURVE",
"358 28 CURVE",
"358 0 LINE",
"491 0 LINE",
"491 500 LINE",
"357 500 LINE",
"357 126 LINE",
"321 115 OFFCURVE",
"298 108 OFFCURVE",
"264 108 CURVE SMOOTH",
"200 108 OFFCURVE",
"191 134 OFFCURVE",
"191 236 CURVE SMOOTH",
"191 500 LINE",
"57 500 LINE",
"57 238 LINE SMOOTH",
"57 65 OFFCURVE",
"94 -12 OFFCURVE",
"224 -12 CURVE SMOOTH"
);
}
);
width = 553;
},
{
layerId = "7BE58B69-D6A5-4645-9194-9194354D517E";
paths = (
{
closed = 1;
nodes = (
"289 -10 OFFCURVE",
"331 4 OFFCURVE",
"384 35 CURVE",
"384 0 LINE",
"459 0 LINE",
"459 500 LINE",
"384 500 LINE",
"384 94 LINE",
"343 73 OFFCURVE",
"298 57 OFFCURVE",
"244 57 CURVE SMOOTH",
"158 57 OFFCURVE",
"142 97 OFFCURVE",
"142 240 CURVE SMOOTH",
"142 500 LINE",
"67 500 LINE",
"67 239 LINE SMOOTH",
"67 53 OFFCURVE",
"100 -10 OFFCURVE",
"228 -10 CURVE SMOOTH"
);
}
);
width = 531;
}
);
leftKerningGroup = u;
rightKerningGroup = q;
unicode = 0075;
},
{
glyphname = v;
layers = (
{
layerId = "E174F030-6324-451A-8951-EA6336064495";
paths = (
{
closed = 1;
nodes = (
"363 0 LINE",
"483 500 LINE",
"347 500 LINE",
"263 114 LINE",
"235 114 LINE",
"155 500 LINE",
"15 500 LINE",
"135 0 LINE"
);
}
);
width = 498;
},
{
layerId = "7BE58B69-D6A5-4645-9194-9194354D517E";
paths = (
{
closed = 1;
nodes = (
"316 0 LINE",
"457 500 LINE",
"380 500 LINE",
"259 65 LINE",
"222 65 LINE",
"105 500 LINE",
"25 500 LINE",
"166 0 LINE"
);
}
);
width = 481;
}
);
rightKerningGroup = numbersign;
unicode = 0076;
},
{
glyphname = w;
layers = (
{
layerId = "E174F030-6324-451A-8951-EA6336064495";
paths = (
{
closed = 1;
nodes = (
"329 0 LINE",
"386 306 LINE",
"443 0 LINE",
"653 0 LINE",
"748 500 LINE",
"616 500 LINE",
"555 114 LINE",
"531 114 LINE",
"455 490 LINE",
"317 490 LINE",
"241 114 LINE",
"217 114 LINE",
"156 500 LINE",
"24 500 LINE",
"119 0 LINE"
);
}
);
width = 772;
},
{
layerId = "7BE58B69-D6A5-4645-9194-9194354D517E";
paths = (
{
closed = 1;
nodes = (
"275 0 LINE",
"381 391 LINE",
"487 0 LINE",
"612 0 LINE",
"731 500 LINE",
"656 500 LINE",
"556 65 LINE",
"539 65 LINE",
"420 490 LINE",
"342 490 LINE",
"223 65 LINE",
"207 65 LINE",
"106 500 LINE",
"31 500 LINE",
"150 0 LINE"
);
}
);
width = 762;
}
);
leftKerningGroup = w;
rightKerningGroup = w;
unicode = 0077;
},
{
glyphname = x;
layers = (
{
layerId = "E174F030-6324-451A-8951-EA6336064495";
paths = (
{
closed = 1;
nodes = (
"157 0 LINE",
"237 153 LINE",
"318 0 LINE",
"461 0 LINE",
"319 255 LINE",
"461 500 LINE",
"318 500 LINE",
"237 345 LINE",
"157 500 LINE",
"14 500 LINE",
"151 251 LINE",
"14 0 LINE"
);
}
);
width = 474;
},
{
layerId = "7BE58B69-D6A5-4645-9194-9194354D517E";
paths = (
{
closed = 1;
nodes = (
"104 0 LINE",
"226 195 LINE",
"347 0 LINE",
"429 0 LINE",
"271 252 LINE",
"430 500 LINE",
"348 500 LINE",
"226 304 LINE",
"104 500 LINE",
"22 500 LINE",
"179 250 LINE",
"22 0 LINE"
);
}
);
width = 452;
}
);
rightKerningGroup = numbersign;
unicode = 0078;
},
{
glyphname = y;
layers = (
{
layerId = "E174F030-6324-451A-8951-EA6336064495";
paths = (
{
closed = 1;
nodes = (
"309 -210 LINE",
"485 500 LINE",
"353 500 LINE",
"262 114 LINE",
"239 114 LINE",
"148 500 LINE",
"16 500 LINE",
"139 0 LINE",
"233 0 LINE",
"178 -210 LINE"
);
}
);
width = 500;
},
{
layerId = "7BE58B69-D6A5-4645-9194-9194354D517E";
paths = (
{
closed = 1;
nodes = (
"251 -222 LINE",
"459 500 LINE",
"384 500 LINE",
"258 65 LINE",
"225 65 LINE",
"100 500 LINE",
"25 500 LINE",
"167 0 LINE",
"241 0 LINE",
"176 -222 LINE"
);
}
);
width = 483;
}
);
leftKerningGroup = y;
rightKerningGroup = y;
unicode = 0079;
},
{
glyphname = z;
layers = (
{
layerId = "E174F030-6324-451A-8951-EA6336064495";
paths = (
{
closed = 1;
nodes = (
"412 0 LINE",
"412 120 LINE",
"202 120 LINE",
"412 380 LINE",
"412 500 LINE",
"41 500 LINE",
"41 380 LINE",
"251 380 LINE",
"41 120 LINE",
"41 0 LINE"
);
}
);
width = 454;
},
{
layerId = "7BE58B69-D6A5-4645-9194-9194354D517E";
paths = (
{
closed = 1;
nodes = (
"413 0 LINE",
"413 67 LINE",
"133 67 LINE",
"413 433 LINE",
"413 500 LINE",
"42 500 LINE",
"42 433 LINE",
"322 433 LINE",
"42 67 LINE",
"42 0 LINE"
);
}
);
width = 455;
}
);
leftKerningGroup = z;
rightKerningGroup = z;
unicode = 007A;
},
{
glyphname = braceleft;
layers = (
{
layerId = "E174F030-6324-451A-8951-EA6336064495";
paths = (
{
closed = 1;
nodes = (
"323 -20 LINE",
"267 -16 OFFCURVE",
"252 10 OFFCURVE",
"252 55 CURVE",
"259 172 LINE",
"259 257 OFFCURVE",
"239 291 OFFCURVE",
"146 314 CURVE",
"241 337 OFFCURVE",
"258 364 OFFCURVE",
"258 448 CURVE",
"251 576 LINE",
"251 620 OFFCURVE",
"268 642 OFFCURVE",
"325 647 CURVE",
"325 761 LINE",
"174 756 OFFCURVE",
"121 713 OFFCURVE",
"121 586 CURVE",
"128 459 LINE",
"128 414 OFFCURVE",
"91 382 OFFCURVE",
"16 365 CURVE",
"16 261 LINE",
"91 242 OFFCURVE",
"128 208 OFFCURVE",
"128 159 CURVE",
"121 38 LINE",
"121 -82 OFFCURVE",
"175 -129 OFFCURVE",
"323 -134 CURVE"
);
}
);
width = 361;
},
{
layerId = "7BE58B69-D6A5-4645-9194-9194354D517E";
paths = (
{
closed = 1;
nodes = (
"312 -63 LINE",
"224 -58 OFFCURVE",
"197 -21 OFFCURVE",
"197 54 CURVE",
"204 170 LINE",
"204 254 OFFCURVE",
"180 288 OFFCURVE",
"99 312 CURVE",
"182 336 OFFCURVE",
"204 367 OFFCURVE",
"204 452 CURVE",
"197 575 LINE",
"197 650 OFFCURVE",
"224 685 OFFCURVE",
"312 690 CURVE",
"311 755 LINE",
"175 750 OFFCURVE",
"124 702 OFFCURVE",
"124 579 CURVE",
"131 451 LINE",
"131 394 OFFCURVE",
"100 359 OFFCURVE",
"24 342 CURVE",
"24 281 LINE",
"100 260 OFFCURVE",
"131 226 OFFCURVE",
"131 169 CURVE",
"124 47 LINE",
"124 -73 OFFCURVE",
"175 -123 OFFCURVE",
"310 -128 CURVE"
);
}
);
width = 352;
}
);
rightKerningGroup = numbersign;
unicode = 007B;
},
{
glyphname = bar;
layers = (
{
layerId = "E174F030-6324-451A-8951-EA6336064495";
paths = (
{
closed = 1;
nodes = (
"201 -210 LINE",
"201 700 LINE",
"67 700 LINE",
"67 -210 LINE"
);
}
);
width = 268;
},
{
layerId = "7BE58B69-D6A5-4645-9194-9194354D517E";
paths = (
{
closed = 1;
nodes = (
"152 -222 LINE",
"152 718 LINE",
"78 718 LINE",
"78 -222 LINE"
);
}
);
width = 230;
}
);
rightKerningGroup = numbersign;
unicode = 007C;
},
{
glyphname = braceright;
layers = (
{
layerId = "E174F030-6324-451A-8951-EA6336064495";
paths = (
{
closed = 1;
nodes = (
"186 -129 OFFCURVE",
"240 -82 OFFCURVE",
"240 38 CURVE",
"233 159 LINE",
"233 208 OFFCURVE",
"270 242 OFFCURVE",
"345 261 CURVE",
"345 365 LINE",
"270 382 OFFCURVE",
"233 414 OFFCURVE",
"233 459 CURVE",
"240 586 LINE",
"240 713 OFFCURVE",
"187 756 OFFCURVE",
"36 761 CURVE",
"36 647 LINE",
"93 642 OFFCURVE",
"110 620 OFFCURVE",
"110 576 CURVE",
"103 448 LINE",
"103 364 OFFCURVE",
"120 337 OFFCURVE",
"215 314 CURVE",
"122 291 OFFCURVE",
"102 257 OFFCURVE",
"102 172 CURVE",
"109 55 LINE",
"109 10 OFFCURVE",
"94 -16 OFFCURVE",
"38 -20 CURVE",
"38 -134 LINE"
);
}
);
width = 361;
},
{
layerId = "7BE58B69-D6A5-4645-9194-9194354D517E";
paths = (
{
closed = 1;
nodes = (
"177 -123 OFFCURVE",
"228 -73 OFFCURVE",
"228 47 CURVE",
"221 169 LINE",
"221 226 OFFCURVE",
"252 260 OFFCURVE",
"328 281 CURVE",
"328 342 LINE",
"252 359 OFFCURVE",
"221 394 OFFCURVE",
"221 451 CURVE",
"228 579 LINE",
"228 702 OFFCURVE",
"177 750 OFFCURVE",
"41 755 CURVE",
"40 690 LINE",
"128 685 OFFCURVE",
"155 650 OFFCURVE",
"155 575 CURVE",
"148 452 LINE",
"148 367 OFFCURVE",
"170 336 OFFCURVE",
"253 312 CURVE",
"172 288 OFFCURVE",
"148 254 OFFCURVE",
"148 170 CURVE",
"155 54 LINE",
"155 -21 OFFCURVE",
"128 -58 OFFCURVE",
"40 -63 CURVE",
"42 -128 LINE"
);
}
);
width = 352;
}
);
rightKerningGroup = numbersign;
unicode = 007D;
},
{
glyphname = asciitilde;
layers = (
{
layerId = "E174F030-6324-451A-8951-EA6336064495";
paths = (
{
closed = 1;
nodes = (
"420 170 OFFCURVE",
"471 195 OFFCURVE",
"497 221 CURVE",
"489 328 LINE",
"472 318 LINE SMOOTH",
"438 299 OFFCURVE",
"409 290 OFFCURVE",
"384 290 CURVE SMOOTH",
"371 290 OFFCURVE",
"339 297 OFFCURVE",
"288 312 CURVE SMOOTH",
"237 327 OFFCURVE",
"203 334 OFFCURVE",
"184 334 CURVE SMOOTH",
"144 334 OFFCURVE",
"103 317 OFFCURVE",
"61 282 CURVE",
"71 175 LINE",
"88 184 LINE",
"109 197 OFFCURVE",
"153 214 OFFCURVE",
"178 214 CURVE SMOOTH",
"191 214 OFFCURVE",
"223 207 OFFCURVE",
"276 192 CURVE SMOOTH",
"329 177 OFFCURVE",
"364 170 OFFCURVE",
"383 170 CURVE SMOOTH"
);
}
);
width = 560;
},
{
layerId = "7BE58B69-D6A5-4645-9194-9194354D517E";
paths = (
{
closed = 1;
nodes = (
"414 195 OFFCURVE",
"453 213 OFFCURVE",
"495 249 CURVE",
"485 310 LINE",
"468 298 LINE SMOOTH",
"433 275 OFFCURVE",
"403 264 OFFCURVE",
"380 264 CURVE SMOOTH",
"367 264 OFFCURVE",
"336 274 OFFCURVE",
"287 295 CURVE SMOOTH",
"237 315 OFFCURVE",
"202 325 OFFCURVE",
"183 325 CURVE SMOOTH",
"147 325 OFFCURVE",
"108 307 OFFCURVE",
"67 272 CURVE",
"78 210 LINE",
"95 222 LINE SMOOTH",
"118 238 OFFCURVE",
"158 257 OFFCURVE",
"183 257 CURVE SMOOTH",
"195 257 OFFCURVE",
"226 247 OFFCURVE",
"277 226 CURVE SMOOTH",
"327 205 OFFCURVE",
"361 195 OFFCURVE",
"379 195 CURVE SMOOTH"
);
}
);
width = 560;
}
);
rightKerningGroup = numbersign;
unicode = 007E;
},
{
glyphname = exclamdown;
layers = (
{
layerId = "E174F030-6324-451A-8951-EA6336064495";
paths = (
{
closed = 1;
nodes = (
"59 -180 LINE",
"204 -180 LINE",
"190 250 LINE",
"72 250 LINE"
);
},
{
closed = 1;
nodes = (
"59 339 LINE",
"203 339 LINE",
"203 500 LINE",
"59 500 LINE"
);
}
);
width = 264;
},
{
layerId = "7BE58B69-D6A5-4645-9194-9194354D517E";
paths = (
{
closed = 1;
nodes = (
"73 -192 LINE",
"152 -192 LINE",
"147 272 LINE",
"78 272 LINE"
);
},
{
closed = 1;
nodes = (
"72 388 LINE",
"154 388 LINE",
"154 500 LINE",
"72 500 LINE"
);
}
);
width = 228;
}
);
rightKerningGroup = numbersign;
unicode = 00A1;
},
{
glyphname = cent;
layers = (
{
layerId = "E174F030-6324-451A-8951-EA6336064495";
paths = (
{
closed = 1;
nodes = (
"380 -75 LINE",
"380 34 LINE",
"407 36 OFFCURVE",
"433 40 OFFCURVE",
"459 47 CURVE",
"455 147 LINE",
"339 143 LINE SMOOTH",
"255 143 OFFCURVE",
"224 174 OFFCURVE",
"224 250 CURVE SMOOTH",
"224 326 OFFCURVE",
"258 356 OFFCURVE",
"326 356 CURVE SMOOTH",
"359 356 OFFCURVE",
"402 355 OFFCURVE",
"455 353 CURVE",
"459 453 LINE",
"380 466 LINE",
"380 571 LINE",
"270 571 LINE",
"270 470 LINE",
"149 460 OFFCURVE",
"88 386 OFFCURVE",
"88 249 CURVE SMOOTH",
"88 111 OFFCURVE",
"149 38 OFFCURVE",
"270 29 CURVE",
"270 -75 LINE"
);
}
);
width = 560;
},
{
layerId = "7BE58B69-D6A5-4645-9194-9194354D517E";
paths = (
{
closed = 1;
nodes = (
"343 -81 LINE",
"343 38 LINE",
"371 39 OFFCURVE",
"405 43 OFFCURVE",
"445 49 CURVE",
"442 110 LINE",
"318 103 LINE",
"211 103 OFFCURVE",
"179 139 OFFCURVE",
"179 248 CURVE SMOOTH",
"179 357 OFFCURVE",
"213 397 OFFCURVE",
"312 397 CURVE SMOOTH",
"345 397 OFFCURVE",
"388 395 OFFCURVE",
"441 390 CURVE",
"444 450 LINE",
"343 462 LINE",
"343 583 LINE",
"278 583 LINE",
"278 465 LINE",
"158 458 OFFCURVE",
"101 394 OFFCURVE",
"101 246 CURVE SMOOTH",
"101 98 OFFCURVE",
"154 43 OFFCURVE",
"278 36 CURVE",
"278 -81 LINE"
);
}
);
width = 560;
}
);
rightKerningGroup = numbersign;
unicode = 00A2;
},
{
glyphname = sterling;
layers = (
{
layerId = "E174F030-6324-451A-8951-EA6336064495";
paths = (
{
closed = 1;
nodes = (
"414 0 LINE",
"495 18 LINE",
"474 130 LINE",
"405 114 LINE",
"281 114 LINE",
"281 319 LINE",
"434 319 LINE",
"434 433 LINE",
"281 433 LINE",
"281 486 LINE SMOOTH",
"281 529 OFFCURVE",
"298 551 OFFCURVE",
"333 551 CURVE SMOOTH",
"375 551 OFFCURVE",
"419 548 OFFCURVE",
"464 543 CURVE",
"468 647 LINE",
"446 653 LINE SMOOTH",
"403 665 OFFCURVE",
"360 671 OFFCURVE",
"315 671 CURVE SMOOTH",
"200 671 OFFCURVE",
"149 631 OFFCURVE",
"149 492 CURVE SMOOTH",
"149 433 LINE",
"85 433 LINE",
"85 319 LINE",
"149 319 LINE",
"149 114 LINE",
"75 114 LINE",
"75 0 LINE"
);
}
);
width = 560;
},
{
layerId = "7BE58B69-D6A5-4645-9194-9194354D517E";
paths = (
{
closed = 1;
nodes = (
"400 0 LINE",
"482 18 LINE",
"469 82 LINE",
"392 66 LINE",
"238 66 LINE",
"238 352 LINE",
"409 352 LINE",
"409 417 LINE",
"238 417 LINE",
"238 467 LINE SMOOTH",
"238 574 OFFCURVE",
"257 603 OFFCURVE",
"319 603 CURVE SMOOTH",
"350 603 OFFCURVE",
"392 599 OFFCURVE",
"445 592 CURVE",
"446 653 LINE",
"424 658 LINE SMOOTH",
"385 666 OFFCURVE",
"348 670 OFFCURVE",
"313 670 CURVE SMOOTH",
"205 670 OFFCURVE",
"165 628 OFFCURVE",
"165 472 CURVE SMOOTH",
"165 417 LINE",
"98 417 LINE",
"98 352 LINE",
"165 352 LINE",
"165 66 LINE",
"80 66 LINE",
"80 0 LINE"
);
}
);
width = 560;
}
);
rightKerningGroup = numbersign;
unicode = 00A3;
},
{
glyphname = currency;
layers = (
{
layerId = "E174F030-6324-451A-8951-EA6336064495";
paths = (
{
closed = 1;
nodes = (
"195 75 LINE",
"222 62 OFFCURVE",
"250 55 OFFCURVE",
"280 55 CURVE SMOOTH",
"310 55 OFFCURVE",
"338 62 OFFCURVE",
"365 75 CURVE",
"438 2 LINE",
"530 94 LINE",
"457 166 LINE",
"470 193 OFFCURVE",
"477 221 OFFCURVE",
"477 252 CURVE SMOOTH",
"477 282 OFFCURVE",
"470 310 OFFCURVE",
"457 337 CURVE",
"530 410 LINE",
"438 502 LINE",
"365 429 LINE",
"338 442 OFFCURVE",
"310 449 OFFCURVE",
"280 449 CURVE SMOOTH",
"249 449 OFFCURVE",
"221 442 OFFCURVE",
"194 429 CURVE",
"122 502 LINE",
"30 410 LINE",
"102 337 LINE",
"89 310 OFFCURVE",
"83 281 OFFCURVE",
"83 252 CURVE SMOOTH",
"83 222 OFFCURVE",
"89 193 OFFCURVE",
"102 166 CURVE",
"30 94 LINE",
"122 2 LINE"
);
},
{
closed = 1;
nodes = (
"257 166 OFFCURVE",
"237 175 OFFCURVE",
"220 192 CURVE SMOOTH",
"203 209 OFFCURVE",
"194 229 OFFCURVE",
"194 252 CURVE SMOOTH",
"194 299 OFFCURVE",
"233 338 OFFCURVE",
"280 338 CURVE SMOOTH",
"327 338 OFFCURVE",
"366 299 OFFCURVE",
"366 252 CURVE SMOOTH",
"366 205 OFFCURVE",
"327 166 OFFCURVE",
"280 166 CURVE SMOOTH"
);
}
);
width = 560;
},
{
layerId = "7BE58B69-D6A5-4645-9194-9194354D517E";
paths = (
{
closed = 1;
nodes = (
"181 101 LINE",
"210 81 OFFCURVE",
"243 71 OFFCURVE",
"279 71 CURVE SMOOTH",
"315 71 OFFCURVE",
"348 81 OFFCURVE",
"379 101 CURVE",
"449 30 LINE",
"502 83 LINE",
"431 153 LINE",
"451 182 OFFCURVE",
"461 215 OFFCURVE",
"461 251 CURVE SMOOTH",
"461 287 OFFCURVE",
"451 320 OFFCURVE",
"431 351 CURVE",
"502 421 LINE",
"449 474 LINE",
"379 403 LINE",
"348 423 OFFCURVE",
"315 433 OFFCURVE",
"279 433 CURVE SMOOTH",
"243 433 OFFCURVE",
"210 423 OFFCURVE",
"181 403 CURVE",
"111 474 LINE",
"58 421 LINE",
"128 351 LINE",
"109 320 OFFCURVE",
"99 286 OFFCURVE",
"99 251 CURVE SMOOTH",
"99 216 OFFCURVE",
"109 183 OFFCURVE",
"128 153 CURVE",
"58 83 LINE",
"111 30 LINE"
);
},
{
closed = 1;
nodes = (
"249 137 OFFCURVE",
"222 148 OFFCURVE",
"199 171 CURVE SMOOTH",
"176 194 OFFCURVE",
"165 221 OFFCURVE",
"165 252 CURVE SMOOTH",
"165 315 OFFCURVE",
"217 367 OFFCURVE",
"280 367 CURVE SMOOTH",
"343 367 OFFCURVE",
"395 315 OFFCURVE",
"395 252 CURVE SMOOTH",
"395 189 OFFCURVE",
"343 137 OFFCURVE",
"280 137 CURVE SMOOTH"
);
}
);
width = 560;
}
);
rightKerningGroup = numbersign;
unicode = 00A4;
},
{
glyphname = yen;
layers = (
{
layerId = "E174F030-6324-451A-8951-EA6336064495";
paths = (
{
closed = 1;
nodes = (
"351 0 LINE",
"351 134 LINE",
"502 134 LINE",
"502 246 LINE",
"351 246 LINE",
"351 291 LINE",
"502 291 LINE",
"502 403 LINE",
"413 403 LINE",
"556 660 LINE",
"403 660 LINE",
"281 449 LINE",
"158 660 LINE",
"5 660 LINE",
"150 403 LINE",
"58 403 LINE",
"58 291 LINE",
"213 291 LINE",
"213 246 LINE",
"58 246 LINE",
"58 134 LINE",
"213 134 LINE",
"213 0 LINE"
);
}
);
width = 560;
},
{
layerId = "7BE58B69-D6A5-4645-9194-9194354D517E";
paths = (
{
closed = 1;
nodes = (
"320 0 LINE",
"320 163 LINE",
"503 163 LINE",
"503 228 LINE",
"320 228 LINE",
"320 315 LINE",
"502 315 LINE",
"502 380 LINE",
"366 380 LINE",
"537 660 LINE",
"451 660 LINE",
"281 390 LINE",
"109 660 LINE",
"23 660 LINE",
"197 380 LINE",
"57 380 LINE",
"57 315 LINE",
"243 315 LINE",
"243 228 LINE",
"58 228 LINE",
"58 163 LINE",
"243 163 LINE",
"243 0 LINE"
);
}
);
width = 560;
}
);
rightKerningGroup = numbersign;
unicode = 00A5;
},
{
glyphname = brokenbar;
layers = (
{
layerId = "E174F030-6324-451A-8951-EA6336064495";
paths = (
{
closed = 1;
nodes = (
"203 -210 LINE",
"203 170 LINE",
"69 170 LINE",
"69 -210 LINE"
);
},
{
closed = 1;
nodes = (
"203 328 LINE",
"203 700 LINE",
"69 700 LINE",
"69 328 LINE"
);
}
);
width = 272;
},
{
layerId = "7BE58B69-D6A5-4645-9194-9194354D517E";
paths = (
{
closed = 1;
nodes = (
"154 -222 LINE",
"154 156 LINE",
"80 156 LINE",
"80 -222 LINE"
);
},
{
closed = 1;
nodes = (
"154 344 LINE",
"154 718 LINE",
"80 718 LINE",
"80 344 LINE"
);
}
);
width = 234;
}
);
rightKerningGroup = numbersign;
unicode = 00A6;
},
{
glyphname = section;
layers = (
{
layerId = "E174F030-6324-451A-8951-EA6336064495";
paths = (
{
closed = 1;
nodes = (
"398 -190 OFFCURVE",
"463 -136 OFFCURVE",
"463 -7 CURVE SMOOTH",
"463 54 OFFCURVE",
"452 77 OFFCURVE",
"425 102 CURVE",
"458 149 OFFCURVE",
"475 196 OFFCURVE",
"475 243 CURVE SMOOTH",
"475 335 OFFCURVE",
"442 363 OFFCURVE",
"327 391 CURVE SMOOTH",
"254 409 OFFCURVE",
"187 421 OFFCURVE",
"187 457 CURVE SMOOTH",
"187 506 OFFCURVE",
"207 522 OFFCURVE",
"278 522 CURVE SMOOTH",
"313 522 OFFCURVE",
"369 517 OFFCURVE",
"444 506 CURVE",
"450 614 LINE",
"422 620 LINE SMOOTH",
"366 632 OFFCURVE",
"317 638 OFFCURVE",
"274 638 CURVE SMOOTH",
"129 638 OFFCURVE",
"57 577 OFFCURVE",
"57 455 CURVE SMOOTH",
"57 404 OFFCURVE",
"72 368 OFFCURVE",
"101 347 CURVE",
"69 320 OFFCURVE",
"37 260 OFFCURVE",
"37 213 CURVE SMOOTH",
"37 118 OFFCURVE",
"75 87 OFFCURVE",
"195 57 CURVE SMOOTH",
"255 42 OFFCURVE",
"293 30 OFFCURVE",
"310 22 CURVE SMOOTH",
"327 14 OFFCURVE",
"335 1 OFFCURVE",
"335 -18 CURVE SMOOTH",
"335 -56 OFFCURVE",
"306 -74 OFFCURVE",
"235 -74 CURVE SMOOTH",
"199 -74 OFFCURVE",
"145 -69 OFFCURVE",
"73 -59 CURVE",
"60 -167 LINE",
"91 -172 LINE SMOOTH",
"157 -184 OFFCURVE",
"209 -190 OFFCURVE",
"246 -190 CURVE SMOOTH"
);
},
{
closed = 1;
nodes = (
"290 160 OFFCURVE",
"261 169 OFFCURVE",
"235 176 CURVE SMOOTH",
"182 191 OFFCURVE",
"172 198 OFFCURVE",
"172 243 CURVE SMOOTH",
"172 265 OFFCURVE",
"178 285 OFFCURVE",
"189 302 CURVE",
"195 300 OFFCURVE",
"264 284 OFFCURVE",
"279 280 CURVE SMOOTH",
"317 270 OFFCURVE",
"339 255 OFFCURVE",
"339 222 CURVE SMOOTH",
"339 189 OFFCURVE",
"333 164 OFFCURVE",
"321 149 CURVE"
);
}
);
width = 517;
},
{
layerId = "7BE58B69-D6A5-4645-9194-9194354D517E";
paths = (
{
closed = 1;
nodes = (
"372 -150 OFFCURVE",
"436 -94 OFFCURVE",
"436 18 CURVE SMOOTH",
"436 63 OFFCURVE",
"424 97 OFFCURVE",
"399 118 CURVE",
"428 161 OFFCURVE",
"443 205 OFFCURVE",
"443 251 CURVE SMOOTH",
"443 342 OFFCURVE",
"398 372 OFFCURVE",
"285 393 CURVE SMOOTH",
"172 414 OFFCURVE",
"139 430 OFFCURVE",
"139 494 CURVE SMOOTH",
"139 558 OFFCURVE",
"178 586 OFFCURVE",
"253 586 CURVE SMOOTH",
"290 586 OFFCURVE",
"345 581 OFFCURVE",
"418 571 CURVE",
"422 634 LINE",
"396 638 LINE SMOOTH",
"338 647 OFFCURVE",
"292 651 OFFCURVE",
"258 651 CURVE SMOOTH",
"130 651 OFFCURVE",
"66 598 OFFCURVE",
"66 492 CURVE SMOOTH",
"66 439 OFFCURVE",
"81 402 OFFCURVE",
"110 381 CURVE",
"89 364 OFFCURVE",
"52 307 OFFCURVE",
"52 255 CURVE SMOOTH",
"52 162 OFFCURVE",
"101 129 OFFCURVE",
"218 107 CURVE SMOOTH",
"277 96 OFFCURVE",
"316 85 OFFCURVE",
"335 75 CURVE",
"354 64 OFFCURVE",
"364 44 OFFCURVE",
"364 14 CURVE SMOOTH",
"364 -52 OFFCURVE",
"323 -85 OFFCURVE",
"241 -85 CURVE SMOOTH",
"204 -85 OFFCURVE",
"150 -80 OFFCURVE",
"77 -70 CURVE",
"70 -133 LINE",
"100 -138 LINE SMOOTH",
"154 -146 OFFCURVE",
"202 -150 OFFCURVE",
"245 -150 CURVE SMOOTH"
);
},
{
closed = 1;
nodes = (
"322 155 OFFCURVE",
"290 163 OFFCURVE",
"245 172 CURVE SMOOTH",
"155 188 OFFCURVE",
"127 209 OFFCURVE",
"127 261 CURVE SMOOTH",
"127 286 OFFCURVE",
"138 317 OFFCURVE",
"160 354 CURVE",
"178 347 OFFCURVE",
"209 339 OFFCURVE",
"252 332 CURVE SMOOTH",
"338 316 OFFCURVE",
"367 296 OFFCURVE",
"367 248 CURVE SMOOTH",
"367 200 OFFCURVE",
"349 155 OFFCURVE",
"342 146 CURVE"
);
}
);
width = 499;
}
);
rightKerningGroup = numbersign;
unicode = 00A7;
},
{
glyphname = dieresis;
layers = (
{
layerId = "E174F030-6324-451A-8951-EA6336064495";
paths = (
{
closed = 1;
nodes = (
"314 596 LINE",
"314 728 LINE",
"186 728 LINE",
"186 596 LINE"
);
},
{
closed = 1;
nodes = (
"98 596 LINE",
"98 728 LINE",
"-30 728 LINE",
"-30 596 LINE"
);
}
);
width = 268;
},
{
layerId = "7BE58B69-D6A5-4645-9194-9194354D517E";
paths = (
{
closed = 1;
nodes = (
"261 621 LINE",
"261 711 LINE",
"188 711 LINE",
"188 621 LINE"
);
},
{
closed = 1;
nodes = (
"60 621 LINE",
"60 711 LINE",
"-12 711 LINE",
"-12 621 LINE"
);
}
);
width = 236;
}
);
rightKerningGroup = numbersign;
unicode = 00A8;
},
{
glyphname = copyright;
layers = (
{
layerId = "E174F030-6324-451A-8951-EA6336064495";
paths = (
{
closed = 1;
nodes = (
"485 150 OFFCURVE",
"597 271 OFFCURVE",
"597 432 CURVE SMOOTH",
"597 593 OFFCURVE",
"486 718 OFFCURVE",
"324 718 CURVE SMOOTH",
"162 718 OFFCURVE",
"46 598 OFFCURVE",
"46 436 CURVE SMOOTH",
"46 274 OFFCURVE",
"163 150 OFFCURVE",
"324 150 CURVE SMOOTH"
);
},
{
closed = 1;
nodes = (
"365 269 OFFCURVE",
"395 275 OFFCURVE",
"414 287 CURVE",
"407 369 LINE",
"340 364 LINE",
"317 364 OFFCURVE",
"305 389 OFFCURVE",
"305 439 CURVE SMOOTH",
"305 487 OFFCURVE",
"311 503 OFFCURVE",
"346 503 CURVE SMOOTH",
"363 503 OFFCURVE",
"384 501 OFFCURVE",
"407 497 CURVE",
"414 583 LINE",
"404 586 LINE",
"383 594 OFFCURVE",
"360 598 OFFCURVE",
"334 598 CURVE SMOOTH",
"239 598 OFFCURVE",
"202 559 OFFCURVE",
"202 435 CURVE SMOOTH",
"202 310 OFFCURVE",
"240 269 OFFCURVE",
"324 269 CURVE SMOOTH"
);
},
{
closed = 1;
nodes = (
"200 210 OFFCURVE",
"108 310 OFFCURVE",
"108 434 CURVE SMOOTH",
"108 496 OFFCURVE",
"129 549 OFFCURVE",
"170 593 CURVE SMOOTH",
"211 636 OFFCURVE",
"261 658 OFFCURVE",
"322 658 CURVE SMOOTH",
"442 658 OFFCURVE",
"535 557 OFFCURVE",
"535 433 CURVE SMOOTH",
"535 309 OFFCURVE",
"444 210 OFFCURVE",
"322 210 CURVE SMOOTH"
);
}
);
width = 643;
},
{
layerId = "7BE58B69-D6A5-4645-9194-9194354D517E";
paths = (
{
closed = 1;
nodes = (
"476 161 OFFCURVE",
"586 280 OFFCURVE",
"586 433 CURVE SMOOTH",
"586 586 OFFCURVE",
"475 707 OFFCURVE",
"323 707 CURVE SMOOTH",
"171 707 OFFCURVE",
"59 589 OFFCURVE",
"59 435 CURVE SMOOTH",
"59 281 OFFCURVE",
"172 161 OFFCURVE",
"324 161 CURVE SMOOTH"
);
},
{
closed = 1;
nodes = (
"353 276 OFFCURVE",
"379 280 OFFCURVE",
"404 288 CURVE",
"400 340 LINE",
"330 333 LINE",
"283 333 OFFCURVE",
"270 364 OFFCURVE",
"270 436 CURVE SMOOTH",
"270 507 OFFCURVE",
"282 534 OFFCURVE",
"328 534 CURVE SMOOTH",
"351 534 OFFCURVE",
"375 532 OFFCURVE",
"400 528 CURVE",
"404 581 LINE",
"394 584 LINE",
"374 589 OFFCURVE",
"352 591 OFFCURVE",
"327 591 CURVE SMOOTH",
"240 591 OFFCURVE",
"209 544 OFFCURVE",
"209 434 CURVE SMOOTH",
"209 324 OFFCURVE",
"239 276 OFFCURVE",
"326 276 CURVE SMOOTH"
);
},
{
closed = 1;
nodes = (
"197 205 OFFCURVE",
"103 306 OFFCURVE",
"103 434 CURVE SMOOTH",
"103 498 OFFCURVE",
"124 552 OFFCURVE",
"166 597 CURVE SMOOTH",
"208 642 OFFCURVE",
"260 664 OFFCURVE",
"323 664 CURVE SMOOTH",
"447 664 OFFCURVE",
"542 562 OFFCURVE",
"542 434 CURVE SMOOTH",
"542 306 OFFCURVE",
"447 205 OFFCURVE",
"322 205 CURVE SMOOTH"
);
}
);
width = 645;
}
);
rightKerningGroup = numbersign;
unicode = 00A9;
},
{
glyphname = ordfeminine;
layers = (
{
layerId = "E174F030-6324-451A-8951-EA6336064495";
paths = (
{
closed = 1;
nodes = (
"369 395 LINE",
"362 396 OFFCURVE",
"356 399 OFFCURVE",
"351 403 CURVE",
"351 544 LINE SMOOTH",
"351 632 OFFCURVE",
"301 659 OFFCURVE",
"202 659 CURVE SMOOTH",
"153 659 OFFCURVE",
"105 650 OFFCURVE",
"58 633 CURVE",
"61 558 LINE",
"192 565 LINE",
"221 565 OFFCURVE",
"236 560 OFFCURVE",
"236 550 CURVE SMOOTH",
"236 528 LINE",
"169 525 LINE SMOOTH",
"84 521 OFFCURVE",
"42 487 OFFCURVE",
"42 424 CURVE SMOOTH",
"42 356 OFFCURVE",
"81 314 OFFCURVE",
"148 314 CURVE SMOOTH",
"181 314 OFFCURVE",
"212 325 OFFCURVE",
"240 346 CURVE",
"259 317 OFFCURVE",
"302 313 OFFCURVE",
"367 313 CURVE"
);
},
{
closed = 1;
nodes = (
"167 402 OFFCURVE",
"157 411 OFFCURVE",
"157 428 CURVE SMOOTH",
"157 444 OFFCURVE",
"168 453 OFFCURVE",
"189 455 CURVE SMOOTH",
"236 458 LINE",
"236 418 LINE",
"209 406 OFFCURVE",
"204 402 OFFCURVE",
"188 402 CURVE SMOOTH"
);
}
);
width = 416;
},
{
layerId = "7BE58B69-D6A5-4645-9194-9194354D517E";
paths = (
{
closed = 1;
nodes = (
"177 357 OFFCURVE",
"210 366 OFFCURVE",
"247 383 CURVE",
"264 364 OFFCURVE",
"279 357 OFFCURVE",
"330 357 CURVE",
"332 406 LINE",
"318 410 OFFCURVE",
"308 416 OFFCURVE",
"302 423 CURVE",
"302 560 LINE SMOOTH",
"302 633 OFFCURVE",
"267 659 OFFCURVE",
"195 659 CURVE SMOOTH",
"159 659 OFFCURVE",
"118 654 OFFCURVE",
"72 644 CURVE",
"74 596 LINE",
"189 603 LINE",
"222 603 OFFCURVE",
"238 592 OFFCURVE",
"238 563 CURVE SMOOTH",
"238 541 LINE",
"150 535 LINE SMOOTH",
"86 531 OFFCURVE",
"54 502 OFFCURVE",
"54 449 CURVE SMOOTH",
"54 393 OFFCURVE",
"85 357 OFFCURVE",
"146 357 CURVE SMOOTH"
);
},
{
closed = 1;
nodes = (
"132 411 OFFCURVE",
"120 424 OFFCURVE",
"120 450 CURVE SMOOTH",
"120 477 OFFCURVE",
"132 487 OFFCURVE",
"161 490 CURVE",
"238 495 LINE",
"238 428 LINE",
"202 416 OFFCURVE",
"178 411 OFFCURVE",
"156 411 CURVE SMOOTH"
);
}
);
width = 386;
},
{
associatedMasterId = "7BE58B69-D6A5-4645-9194-9194354D517E";
layerId = "2CCCD22B-E520-4A8B-84F6-9F28FD8F1BC3";
name = "Black {900, 100}";
paths = (
{
closed = 1;
nodes = (
"156 379 OFFCURVE",
"183 385 OFFCURVE",
"207 398 CURVE",
"227 385 OFFCURVE",
"249 379 OFFCURVE",
"274 379 CURVE SMOOTH",
"283 379 OFFCURVE",
"303 381 OFFCURVE",
"332 385 CURVE",
"334 463 LINE",
"326 464 OFFCURVE",
"321 466 OFFCURVE",
"318 468 CURVE",
"318 571 LINE SMOOTH",
"318 639 OFFCURVE",
"273 666 OFFCURVE",
"174 666 CURVE SMOOTH",
"125 666 OFFCURVE",
"76 660 OFFCURVE",
"29 647 CURVE",
"31 565 LINE",
"164 572 LINE",
"180 572 OFFCURVE",
"188 569 OFFCURVE",
"188 562 CURVE SMOOTH",
"188 557 LINE",
"141 555 LINE SMOOTH",
"58 552 OFFCURVE",
"16 536 OFFCURVE",
"16 471 CURVE SMOOTH",
"16 410 OFFCURVE",
"53 379 OFFCURVE",
"126 379 CURVE SMOOTH"
);
},
{
closed = 1;
nodes = (
"152 463 OFFCURVE",
"147 467 OFFCURVE",
"147 474 CURVE SMOOTH",
"147 484 OFFCURVE",
"155 489 OFFCURVE",
"170 490 CURVE SMOOTH",
"188 491 LINE",
"188 471 LINE",
"181 466 OFFCURVE",
"173 463 OFFCURVE",
"163 463 CURVE SMOOTH"
);
}
);
width = 351;
},
{
associatedMasterId = "7BE58B69-D6A5-4645-9194-9194354D517E";
layerId = "36D37E80-9F87-4609-A94C-16219A0A6B25";
name = "ExtraLight {200, 100}";
paths = (
{
closed = 1;
nodes = (
"169 386 OFFCURVE",
"209 393 OFFCURVE",
"251 408 CURVE",
"266 394 OFFCURVE",
"284 387 OFFCURVE",
"305 386 CURVE",
"307 414 LINE",
"290 418 OFFCURVE",
"277 426 OFFCURVE",
"270 437 CURVE",
"270 571 LINE SMOOTH",
"270 634 OFFCURVE",
"243 659 OFFCURVE",
"190 659 CURVE SMOOTH",
"163 659 OFFCURVE",
"127 656 OFFCURVE",
"81 651 CURVE",
"83 622 LINE",
"187 629 LINE",
"223 629 OFFCURVE",
"239 613 OFFCURVE",
"239 572 CURVE SMOOTH",
"239 549 LINE",
"137 542 LINE SMOOTH",
"87 538 OFFCURVE",
"62 513 OFFCURVE",
"62 466 CURVE SMOOTH",
"62 418 OFFCURVE",
"91 386 OFFCURVE",
"132 386 CURVE SMOOTH"
);
},
{
closed = 1;
nodes = (
"108 417 OFFCURVE",
"95 433 OFFCURVE",
"95 464 CURVE SMOOTH",
"95 497 OFFCURVE",
"109 513 OFFCURVE",
"142 514 CURVE SMOOTH",
"239 520 LINE",
"239 435 LINE",
"223 430 LINE SMOOTH",
"191 421 OFFCURVE",
"162 417 OFFCURVE",
"135 417 CURVE SMOOTH"
);
}
);
width = 372;
},
{
associatedMasterId = "7BE58B69-D6A5-4645-9194-9194354D517E";
layerId = "550AD196-FE98-4573-8922-35491A76A51D";
name = "Light {270, 100}";
paths = (
{
closed = 1;
nodes = (
"175 368 OFFCURVE",
"209 376 OFFCURVE",
"248 392 CURVE",
"264 376 OFFCURVE",
"288 368 OFFCURVE",
"320 368 CURVE",
"322 409 LINE",
"307 413 OFFCURVE",
"296 419 OFFCURVE",
"290 428 CURVE",
"290 564 LINE SMOOTH",
"290 633 OFFCURVE",
"257 659 OFFCURVE",
"193 659 CURVE SMOOTH",
"160 659 OFFCURVE",
"121 655 OFFCURVE",
"75 646 CURVE",
"77 606 LINE",
"188 613 LINE",
"223 613 OFFCURVE",
"238 601 OFFCURVE",
"238 566 CURVE SMOOTH",
"238 544 LINE",
"145 538 LINE SMOOTH",
"86 534 OFFCURVE",
"57 506 OFFCURVE",
"57 455 CURVE SMOOTH",
"57 402 OFFCURVE",
"85 368 OFFCURVE",
"145 368 CURVE SMOOTH"
);
},
{
closed = 1;
nodes = (
"123 413 OFFCURVE",
"110 427 OFFCURVE",
"110 455 CURVE SMOOTH",
"110 482 OFFCURVE",
"125 497 OFFCURVE",
"154 499 CURVE SMOOTH",
"238 504 LINE",
"238 431 LINE",
"224 426 LINE SMOOTH",
"196 417 OFFCURVE",
"171 413 OFFCURVE",
"148 413 CURVE SMOOTH"
);
}
);
width = 378;
},
{
associatedMasterId = "7BE58B69-D6A5-4645-9194-9194354D517E";
layerId = "09D722D4-C66D-43EF-B3C5-4C93B8C2B066";
name = "SemiBold {493, 100}";
paths = (
{
closed = 1;
nodes = (
"353 400 LINE",
"343 401 OFFCURVE",
"335 405 OFFCURVE",
"330 412 CURVE",
"330 551 LINE SMOOTH",
"330 632 OFFCURVE",
"286 659 OFFCURVE",
"199 659 CURVE SMOOTH",
"156 659 OFFCURVE",
"111 652 OFFCURVE",
"64 638 CURVE",
"67 575 LINE",
"191 582 LINE",
"222 582 OFFCURVE",
"237 573 OFFCURVE",
"237 556 CURVE SMOOTH",
"237 533 LINE",
"161 529 LINE SMOOTH",
"85 525 OFFCURVE",
"47 494 OFFCURVE",
"47 435 CURVE SMOOTH",
"47 372 OFFCURVE",
"83 333 OFFCURVE",
"147 333 CURVE SMOOTH",
"179 333 OFFCURVE",
"211 343 OFFCURVE",
"243 362 CURVE",
"251 351 OFFCURVE",
"262 344 OFFCURVE",
"276 339 CURVE SMOOTH",
"289 334 OFFCURVE",
"314 332 OFFCURVE",
"351 332 CURVE"
);
},
{
closed = 1;
nodes = (
"152 406 OFFCURVE",
"141 416 OFFCURVE",
"141 437 CURVE SMOOTH",
"141 457 OFFCURVE",
"153 468 OFFCURVE",
"177 470 CURVE SMOOTH",
"237 474 LINE",
"237 422 LINE",
"228 418 LINE SMOOTH",
"209 410 OFFCURVE",
"191 406 OFFCURVE",
"174 406 CURVE SMOOTH"
);
}
);
width = 399;
}
);
rightKerningGroup = numbersign;
unicode = 00AA;
},
{
glyphname = guillemotleft;
layers = (
{
layerId = "E174F030-6324-451A-8951-EA6336064495";
paths = (
{
closed = 1;
nodes = (
"263 158 LINE",
"154 244 LINE",
"263 319 LINE",
"263 454 LINE",
"40 290 LINE",
"40 194 LINE",
"263 23 LINE"
);
},
{
closed = 1;
nodes = (
"546 158 LINE",
"437 244 LINE",
"546 319 LINE",
"546 454 LINE",
"323 290 LINE",
"323 194 LINE",
"546 23 LINE"
);
}
);
width = 601;
},
{
layerId = "7BE58B69-D6A5-4645-9194-9194354D517E";
paths = (
{
closed = 1;
nodes = (
"234 145 LINE",
"110 250 LINE",
"234 344 LINE",
"234 421 LINE",
"45 278 LINE",
"45 218 LINE",
"234 67 LINE"
);
},
{
closed = 1;
nodes = (
"472 145 LINE",
"348 250 LINE",
"472 344 LINE",
"472 421 LINE",
"283 278 LINE",
"283 218 LINE",
"472 67 LINE"
);
}
);
width = 539;
}
);
leftKerningGroup = guillemotleft;
rightKerningGroup = guillemotleft;
unicode = 00AB;
},
{
glyphname = logicalnot;
layers = (
{
layerId = "E174F030-6324-451A-8951-EA6336064495";
paths = (
{
closed = 1;
nodes = (
"493 104 LINE",
"493 358 LINE",
"57 358 LINE",
"57 238 LINE",
"373 238 LINE",
"373 104 LINE"
);
}
);
width = 560;
},
{
layerId = "7BE58B69-D6A5-4645-9194-9194354D517E";
paths = (
{
closed = 1;
nodes = (
"493 117 LINE",
"493 342 LINE",
"65 342 LINE",
"65 274 LINE",
"423 274 LINE",
"423 117 LINE"
);
}
);
width = 560;
}
);
rightKerningGroup = numbersign;
unicode = 00AC;
},
{
glyphname = registered;
layers = (
{
layerId = "E174F030-6324-451A-8951-EA6336064495";
paths = (
{
closed = 1;
nodes = (
"487 150 OFFCURVE",
"597 271 OFFCURVE",
"597 432 CURVE SMOOTH",
"597 593 OFFCURVE",
"484 718 OFFCURVE",
"323 718 CURVE SMOOTH",
"162 718 OFFCURVE",
"46 598 OFFCURVE",
"46 435 CURVE SMOOTH",
"46 272 OFFCURVE",
"163 150 OFFCURVE",
"325 150 CURVE SMOOTH"
);
},
{
closed = 1;
nodes = (
"202 210 OFFCURVE",
"108 311 OFFCURVE",
"108 434 CURVE SMOOTH",
"108 552 OFFCURVE",
"196 658 OFFCURVE",
"322 658 CURVE SMOOTH",
"442 658 OFFCURVE",
"535 557 OFFCURVE",
"535 434 CURVE SMOOTH",
"535 310 OFFCURVE",
"443 210 OFFCURVE",
"323 210 CURVE SMOOTH"
);
},
{
closed = 1;
nodes = (
"297 276 LINE",
"297 369 LINE",
"326 369 LINE",
"354 276 LINE",
"454 276 LINE",
"413 386 LINE",
"442 410 OFFCURVE",
"451 432 OFFCURVE",
"451 494 CURVE SMOOTH",
"451 556 OFFCURVE",
"406 591 OFFCURVE",
"337 591 CURVE SMOOTH",
"201 591 LINE",
"201 276 LINE"
);
},
{
closed = 1;
nodes = (
"296 519 LINE",
"323 519 LINE SMOOTH",
"346 519 OFFCURVE",
"358 506 OFFCURVE",
"358 480 CURVE SMOOTH",
"358 453 OFFCURVE",
"347 440 OFFCURVE",
"324 440 CURVE SMOOTH",
"296 440 LINE"
);
}
);
width = 643;
},
{
layerId = "7BE58B69-D6A5-4645-9194-9194354D517E";
paths = (
{
closed = 1;
nodes = (
"476 161 OFFCURVE",
"586 280 OFFCURVE",
"586 434 CURVE SMOOTH",
"586 588 OFFCURVE",
"475 707 OFFCURVE",
"323 707 CURVE SMOOTH",
"171 707 OFFCURVE",
"59 589 OFFCURVE",
"59 435 CURVE SMOOTH",
"59 281 OFFCURVE",
"172 161 OFFCURVE",
"324 161 CURVE SMOOTH"
);
},
{
closed = 1;
nodes = (
"198 205 OFFCURVE",
"103 307 OFFCURVE",
"103 435 CURVE SMOOTH",
"103 562 OFFCURVE",
"198 664 OFFCURVE",
"323 664 CURVE SMOOTH",
"447 664 OFFCURVE",
"542 562 OFFCURVE",
"542 434 CURVE SMOOTH",
"542 306 OFFCURVE",
"447 205 OFFCURVE",
"323 205 CURVE SMOOTH"
);
},
{
closed = 1;
nodes = (
"271 282 LINE",
"271 389 LINE",
"330 389 LINE",
"380 282 LINE",
"441 282 LINE",
"386 397 LINE",
"423 414 OFFCURVE",
"437 438 OFFCURVE",
"437 497 CURVE SMOOTH",
"437 556 OFFCURVE",
"399 585 OFFCURVE",
"323 585 CURVE SMOOTH",
"213 585 LINE",
"213 282 LINE"
);
},
{
closed = 1;
nodes = (
"270 538 LINE",
"318 538 LINE SMOOTH",
"359 538 OFFCURVE",
"380 521 OFFCURVE",
"380 487 CURVE SMOOTH",
"380 451 OFFCURVE",
"365 436 OFFCURVE",
"329 436 CURVE SMOOTH",
"270 436 LINE"
);
}
);
width = 645;
}
);
rightKerningGroup = numbersign;
unicode = 00AE;
},
{
glyphname = macron;
layers = (
{
layerId = "E174F030-6324-451A-8951-EA6336064495";
paths = (
{
closed = 1;
nodes = (
"282 597 LINE",
"282 697 LINE",
"-5 697 LINE",
"-5 597 LINE"
);
}
);
width = 268;
},
{
layerId = "7BE58B69-D6A5-4645-9194-9194354D517E";
paths = (
{
closed = 1;
nodes = (
"261 624 LINE",
"261 683 LINE",
"-14 683 LINE",
"-14 624 LINE"
);
}
);
width = 236;
}
);
rightKerningGroup = numbersign;
unicode = 00AF;
},
{
glyphname = degree;
layers = (
{
layerId = "E174F030-6324-451A-8951-EA6336064495";
paths = (
{
closed = 1;
nodes = (
"369 393 OFFCURVE",
"430 453 OFFCURVE",
"430 542 CURVE SMOOTH",
"430 631 OFFCURVE",
"369 692 OFFCURVE",
"280 692 CURVE SMOOTH",
"191 692 OFFCURVE",
"130 631 OFFCURVE",
"130 542 CURVE SMOOTH",
"130 452 OFFCURVE",
"191 393 OFFCURVE",
"280 393 CURVE SMOOTH"
);
},
{
closed = 1;
nodes = (
"235 466 OFFCURVE",
"205 497 OFFCURVE",
"205 542 CURVE SMOOTH",
"205 584 OFFCURVE",
"231 619 OFFCURVE",
"280 619 CURVE SMOOTH",
"325 619 OFFCURVE",
"357 587 OFFCURVE",
"357 542 CURVE SMOOTH",
"357 497 OFFCURVE",
"325 466 OFFCURVE",
"280 466 CURVE SMOOTH"
);
}
);
width = 560;
},
{
layerId = "7BE58B69-D6A5-4645-9194-9194354D517E";
paths = (
{
closed = 1;
nodes = (
"364 420 OFFCURVE",
"422 477 OFFCURVE",
"422 561 CURVE SMOOTH",
"422 645 OFFCURVE",
"364 702 OFFCURVE",
"280 702 CURVE SMOOTH",
"196 702 OFFCURVE",
"138 645 OFFCURVE",
"138 561 CURVE SMOOTH",
"138 476 OFFCURVE",
"197 420 OFFCURVE",
"280 420 CURVE SMOOTH"
);
},
{
closed = 1;
nodes = (
"225 468 OFFCURVE",
"189 505 OFFCURVE",
"189 561 CURVE SMOOTH",
"189 616 OFFCURVE",
"225 654 OFFCURVE",
"280 654 CURVE SMOOTH",
"335 654 OFFCURVE",
"373 616 OFFCURVE",
"373 561 CURVE SMOOTH",
"373 505 OFFCURVE",
"335 468 OFFCURVE",
"280 468 CURVE SMOOTH"
);
}
);
width = 560;
}
);
rightKerningGroup = numbersign;
unicode = 00B0;
},
{
glyphname = plusminus;
layers = (
{
layerId = "E174F030-6324-451A-8951-EA6336064495";
paths = (
{
closed = 1;
nodes = (
"339 170 LINE",
"339 270 LINE",
"510 270 LINE",
"510 390 LINE",
"339 390 LINE",
"339 498 LINE",
"219 498 LINE",
"219 390 LINE",
"50 390 LINE",
"50 270 LINE",
"219 270 LINE",
"219 170 LINE"
);
},
{
closed = 1;
nodes = (
"510 19 LINE",
"510 139 LINE",
"50 139 LINE",
"50 19 LINE"
);
}
);
width = 560;
},
{
layerId = "7BE58B69-D6A5-4645-9194-9194354D517E";
paths = (
{
closed = 1;
nodes = (
"314 166 LINE",
"314 293 LINE",
"505 293 LINE",
"505 361 LINE",
"314 361 LINE",
"314 487 LINE",
"244 487 LINE",
"244 361 LINE",
"55 361 LINE",
"55 293 LINE",
"244 293 LINE",
"244 166 LINE"
);
},
{
closed = 1;
nodes = (
"505 38 LINE",
"505 106 LINE",
"55 106 LINE",
"55 38 LINE"
);
}
);
width = 560;
}
);
rightKerningGroup = numbersign;
unicode = 00B1;
},
{
glyphname = twosuperior;
layers = (
{
layerId = "E174F030-6324-451A-8951-EA6336064495";
paths = (
{
closed = 1;
nodes = (
"252 478 LINE",
"252 573 LINE",
"158 573 LINE",
"196 601 LINE SMOOTH",
"236 630 OFFCURVE",
"252 654 OFFCURVE",
"252 712 CURVE SMOOTH",
"252 770 OFFCURVE",
"220 801 OFFCURVE",
"149 801 CURVE SMOOTH",
"114 801 OFFCURVE",
"72 798 OFFCURVE",
"23 792 CURVE",
"27 693 LINE",
"103 699 LINE",
"128 699 OFFCURVE",
"140 694 OFFCURVE",
"140 684 CURVE SMOOTH",
"140 671 OFFCURVE",
"125 652 OFFCURVE",
"94 627 CURVE SMOOTH",
"21 568 LINE",
"21 478 LINE"
);
}
);
width = 280;
},
{
layerId = "7BE58B69-D6A5-4645-9194-9194354D517E";
paths = (
{
closed = 1;
nodes = (
"239 478 LINE",
"239 536 LINE",
"111 536 LINE",
"174 597 LINE SMOOTH",
"218 637 OFFCURVE",
"235 665 OFFCURVE",
"235 709 CURVE SMOOTH",
"235 770 OFFCURVE",
"203 800 OFFCURVE",
"140 800 CURVE SMOOTH",
"108 800 OFFCURVE",
"72 796 OFFCURVE",
"33 788 CURVE",
"35 731 LINE",
"120 740 LINE",
"153 740 OFFCURVE",
"169 728 OFFCURVE",
"169 703 CURVE SMOOTH",
"169 680 OFFCURVE",
"152 653 OFFCURVE",
"118 620 CURVE SMOOTH",
"30 533 LINE",
"30 478 LINE"
);
}
);
width = 280;
}
);
rightKerningGroup = numbersign;
unicode = 00B2;
},
{
glyphname = threesuperior;
layers = (
{
layerId = "E174F030-6324-451A-8951-EA6336064495";
paths = (
{
closed = 1;
nodes = (
"220 467 OFFCURVE",
"259 502 OFFCURVE",
"259 572 CURVE SMOOTH",
"259 609 OFFCURVE",
"247 632 OFFCURVE",
"224 642 CURVE",
"243 653 OFFCURVE",
"253 677 OFFCURVE",
"253 712 CURVE SMOOTH",
"253 771 OFFCURVE",
"213 801 OFFCURVE",
"132 801 CURVE SMOOTH",
"105 801 OFFCURVE",
"69 798 OFFCURVE",
"24 792 CURVE",
"30 701 LINE",
"114 706 LINE",
"132 706 OFFCURVE",
"141 701 OFFCURVE",
"141 692 CURVE SMOOTH",
"141 682 OFFCURVE",
"134 677 OFFCURVE",
"121 677 CURVE SMOOTH",
"57 677 LINE",
"57 592 LINE",
"123 592 LINE SMOOTH",
"140 592 OFFCURVE",
"149 587 OFFCURVE",
"149 578 CURVE SMOOTH",
"149 567 OFFCURVE",
"139 562 OFFCURVE",
"118 562 CURVE SMOOTH",
"97 562 OFFCURVE",
"67 564 OFFCURVE",
"26 568 CURVE",
"20 475 LINE",
"141 467 LINE"
);
}
);
width = 280;
},
{
layerId = "7BE58B69-D6A5-4645-9194-9194354D517E";
paths = (
{
closed = 1;
nodes = (
"214 468 OFFCURVE",
"249 500 OFFCURVE",
"249 565 CURVE SMOOTH",
"249 614 OFFCURVE",
"234 632 OFFCURVE",
"202 643 CURVE",
"228 658 OFFCURVE",
"241 682 OFFCURVE",
"241 716 CURVE SMOOTH",
"241 772 OFFCURVE",
"206 800 OFFCURVE",
"136 800 CURVE SMOOTH",
"107 800 OFFCURVE",
"73 797 OFFCURVE",
"34 790 CURVE",
"38 735 LINE",
"130 742 LINE",
"160 742 OFFCURVE",
"175 731 OFFCURVE",
"175 708 CURVE SMOOTH",
"175 684 OFFCURVE",
"156 664 OFFCURVE",
"137 664 CURVE SMOOTH",
"72 664 LINE",
"72 611 LINE",
"137 611 LINE SMOOTH",
"168 611 OFFCURVE",
"184 597 OFFCURVE",
"184 569 CURVE SMOOTH",
"184 540 OFFCURVE",
"169 526 OFFCURVE",
"138 526 CURVE SMOOTH",
"107 526 OFFCURVE",
"72 529 OFFCURVE",
"34 534 CURVE",
"30 478 LINE",
"143 468 LINE"
);
}
);
width = 280;
},
{
associatedMasterId = "7BE58B69-D6A5-4645-9194-9194354D517E";
layerId = "ABFF215A-3B01-4035-9330-94A0D698AAF9";
name = "Black {900, 100}";
paths = (
{
closed = 1;
nodes = (
"270 433 OFFCURVE",
"319 465 OFFCURVE",
"319 561 CURVE SMOOTH",
"319 601 OFFCURVE",
"307 618 OFFCURVE",
"278 641 CURVE",
"305 660 OFFCURVE",
"314 679 OFFCURVE",
"314 720 CURVE SMOOTH",
"314 803 OFFCURVE",
"266 830 OFFCURVE",
"151 830 CURVE SMOOTH",
"124 830 OFFCURVE",
"86 825 OFFCURVE",
"36 814 CURVE",
"39 715 LINE",
"134 720 LINE",
"161 720 OFFCURVE",
"174 714 OFFCURVE",
"174 702 CURVE SMOOTH",
"174 690 OFFCURVE",
"164 684 OFFCURVE",
"143 684 CURVE SMOOTH",
"66 684 LINE",
"66 582 LINE",
"148 582 LINE",
"169 581 OFFCURVE",
"179 575 OFFCURVE",
"179 564 CURVE SMOOTH",
"179 542 OFFCURVE",
"161 544 OFFCURVE",
"128 544 CURVE SMOOTH",
"111 544 OFFCURVE",
"81 546 OFFCURVE",
"36 550 CURVE",
"33 449 LINE",
"54 445 LINE SMOOTH",
"96 437 OFFCURVE",
"133 433 OFFCURVE",
"165 433 CURVE SMOOTH"
);
}
);
width = 350;
}
);
rightKerningGroup = numbersign;
unicode = 00B3;
},
{
glyphname = acute;
layers = (
{
layerId = "E174F030-6324-451A-8951-EA6336064495";
paths = (
{
closed = 1;
nodes = (
"297 638 LINE",
"257 753 LINE",
"5 651 LINE",
"35 564 LINE"
);
}
);
width = 268;
},
{
layerId = "7BE58B69-D6A5-4645-9194-9194354D517E";
paths = (
{
closed = 1;
nodes = (
"268 676 LINE",
"242 740 LINE",
"26 642 LINE",
"47 591 LINE"
);
}
);
width = 268;
}
);
rightKerningGroup = numbersign;
unicode = 00B4;
},
{
glyphname = mu;
layers = (
{
layerId = "E174F030-6324-451A-8951-EA6336064495";
paths = (
{
closed = 1;
nodes = (
"197 -210 LINE",
"197 -9 LINE",
"210 -11 OFFCURVE",
"224 -12 OFFCURVE",
"239 -12 CURVE SMOOTH",
"274 -12 OFFCURVE",
"316 1 OFFCURVE",
"364 28 CURVE",
"364 0 LINE",
"497 0 LINE",
"497 500 LINE",
"363 500 LINE",
"363 126 LINE",
"350 122 LINE SMOOTH",
"324 113 OFFCURVE",
"296 108 OFFCURVE",
"267 108 CURVE SMOOTH",
"210 108 OFFCURVE",
"198 134 OFFCURVE",
"197 211 CURVE SMOOTH",
"197 500 LINE",
"63 500 LINE",
"63 -210 LINE"
);
}
);
width = 560;
},
{
layerId = "7BE58B69-D6A5-4645-9194-9194354D517E";
paths = (
{
closed = 1;
nodes = (
"159 -222 LINE",
"159 7 LINE",
"183 -4 OFFCURVE",
"217 -10 OFFCURVE",
"261 -10 CURVE SMOOTH",
"304 -10 OFFCURVE",
"351 5 OFFCURVE",
"401 35 CURVE",
"401 0 LINE",
"476 0 LINE",
"476 500 LINE",
"401 500 LINE",
"401 94 LINE",
"383 85 LINE SMOOTH",
"359 73 OFFCURVE",
"308 57 OFFCURVE",
"264 57 CURVE SMOOTH",
"175 57 OFFCURVE",
"159 95 OFFCURVE",
"159 240 CURVE SMOOTH",
"159 500 LINE",
"84 500 LINE",
"84 -222 LINE"
);
}
);
width = 560;
}
);
rightKerningGroup = numbersign;
unicode = 00B5;
},
{
glyphname = paragraph;
layers = (
{
layerId = "E174F030-6324-451A-8951-EA6336064495";
paths = (
{
closed = 1;
nodes = (
"335 0 LINE",
"335 566 LINE",
"397 566 LINE",
"397 0 LINE",
"511 0 LINE",
"511 566 LINE",
"547 566 LINE",
"547 680 LINE",
"216 680 LINE SMOOTH",
"104 680 OFFCURVE",
"28 598 OFFCURVE",
"28 482 CURVE SMOOTH",
"28 366 OFFCURVE",
"102 286 OFFCURVE",
"214 286 CURVE SMOOTH",
"221 286 LINE",
"221 0 LINE"
);
}
);
width = 599;
},
{
layerId = "7BE58B69-D6A5-4645-9194-9194354D517E";
paths = (
{
closed = 1;
nodes = (
"295 0 LINE",
"295 627 LINE",
"411 627 LINE",
"411 0 LINE",
"479 0 LINE",
"479 627 LINE",
"551 627 LINE",
"551 692 LINE",
"222 692 LINE SMOOTH",
"114 692 OFFCURVE",
"35 615 OFFCURVE",
"35 507 CURVE SMOOTH",
"35 399 OFFCURVE",
"113 324 OFFCURVE",
"221 324 CURVE SMOOTH",
"228 324 LINE",
"228 0 LINE"
);
}
);
width = 593;
}
);
rightKerningGroup = numbersign;
unicode = 00B6;
},
{
glyphname = periodcentered;
layers = (
{
layerId = "E174F030-6324-451A-8951-EA6336064495";
paths = (
{
closed = 1;
nodes = (
"200 167 LINE",
"200 333 LINE",
"56 333 LINE",
"56 167 LINE"
);
}
);
width = 256;
},
{
layerId = "7BE58B69-D6A5-4645-9194-9194354D517E";
paths = (
{
closed = 1;
nodes = (
"149 229 LINE",
"149 343 LINE",
"67 343 LINE",
"67 229 LINE"
);
}
);
width = 217;
}
);
rightKerningGroup = numbersign;
unicode = 00B7;
},
{
glyphname = cedilla;
layers = (
{
layerId = "E174F030-6324-451A-8951-EA6336064495";
paths = (
{
closed = 1;
nodes = (
"194 -241 OFFCURVE",
"234 -202 OFFCURVE",
"234 -129 CURVE SMOOTH",
"234 -56 OFFCURVE",
"196 -38 OFFCURVE",
"111 -37 CURVE",
"111 1 LINE",
"58 1 LINE",
"58 -105 LINE",
"82 -105 LINE SMOOTH",
"107 -105 OFFCURVE",
"120 -112 OFFCURVE",
"120 -127 CURVE SMOOTH",
"120 -144 OFFCURVE",
"107 -153 OFFCURVE",
"82 -153 CURVE SMOOTH",
"71 -153 OFFCURVE",
"55 -153 OFFCURVE",
"34 -152 CURVE",
"30 -230 LINE",
"44 -233 LINE SMOOTH",
"67 -238 OFFCURVE",
"94 -241 OFFCURVE",
"123 -241 CURVE SMOOTH"
);
}
);
width = 264;
},
{
layerId = "7BE58B69-D6A5-4645-9194-9194354D517E";
paths = (
{
closed = 1;
nodes = (
"190 -217 OFFCURVE",
"221 -187 OFFCURVE",
"221 -127 CURVE SMOOTH",
"221 -66 OFFCURVE",
"189 -49 OFFCURVE",
"110 -49 CURVE",
"110 1 LINE",
"69 1 LINE",
"69 -93 LINE",
"111 -93 LINE SMOOTH",
"140 -93 OFFCURVE",
"155 -104 OFFCURVE",
"155 -127 CURVE SMOOTH",
"155 -152 OFFCURVE",
"140 -165 OFFCURVE",
"111 -165 CURVE SMOOTH",
"93 -165 OFFCURVE",
"71 -164 OFFCURVE",
"45 -162 CURVE",
"42 -210 LINE",
"54 -212 LINE SMOOTH",
"73 -215 OFFCURVE",
"97 -217 OFFCURVE",
"128 -217 CURVE SMOOTH"
);
}
);
width = 263;
}
);
rightKerningGroup = numbersign;
unicode = 00B8;
},
{
glyphname = onesuperior;
layers = (
{
layerId = "E174F030-6324-451A-8951-EA6336064495";
paths = (
{
closed = 1;
nodes = (
"212 478 LINE",
"212 790 LINE",
"116 790 LINE",
"10 715 LINE",
"59 641 LINE",
"106 673 LINE",
"106 478 LINE"
);
}
);
width = 280;
},
{
layerId = "7BE58B69-D6A5-4645-9194-9194354D517E";
paths = (
{
closed = 1;
nodes = (
"193 478 LINE",
"193 790 LINE",
"133 790 LINE",
"32 720 LINE",
"61 673 LINE",
"129 720 LINE",
"129 478 LINE"
);
}
);
width = 280;
}
);
rightKerningGroup = numbersign;
unicode = 00B9;
},
{
glyphname = ordmasculine;
layers = (
{
layerId = "E174F030-6324-451A-8951-EA6336064495";
paths = (
{
closed = 1;
nodes = (
"324 314 OFFCURVE",
"380 372 OFFCURVE",
"380 487 CURVE SMOOTH",
"380 602 OFFCURVE",
"324 659 OFFCURVE",
"211 659 CURVE SMOOTH",
"97 659 OFFCURVE",
"40 602 OFFCURVE",
"40 487 CURVE SMOOTH",
"40 372 OFFCURVE",
"97 314 OFFCURVE",
"211 314 CURVE SMOOTH"
);
},
{
closed = 1;
nodes = (
"173 419 OFFCURVE",
"160 440 OFFCURVE",
"160 488 CURVE SMOOTH",
"160 536 OFFCURVE",
"172 555 OFFCURVE",
"211 555 CURVE SMOOTH",
"250 555 OFFCURVE",
"259 537 OFFCURVE",
"259 488 CURVE SMOOTH",
"259 439 OFFCURVE",
"250 419 OFFCURVE",
"211 419 CURVE SMOOTH"
);
}
);
width = 420;
},
{
layerId = "7BE58B69-D6A5-4645-9194-9194354D517E";
paths = (
{
closed = 1;
nodes = (
"281 357 OFFCURVE",
"326 408 OFFCURVE",
"326 510 CURVE SMOOTH",
"326 613 OFFCURVE",
"282 659 OFFCURVE",
"191 659 CURVE SMOOTH",
"99 659 OFFCURVE",
"53 613 OFFCURVE",
"53 510 CURVE SMOOTH",
"53 408 OFFCURVE",
"99 357 OFFCURVE",
"191 357 CURVE SMOOTH"
);
},
{
closed = 1;
nodes = (
"141 418 OFFCURVE",
"122 445 OFFCURVE",
"122 510 CURVE SMOOTH",
"122 574 OFFCURVE",
"141 598 OFFCURVE",
"191 598 CURVE SMOOTH",
"241 598 OFFCURVE",
"257 575 OFFCURVE",
"257 510 CURVE SMOOTH",
"257 445 OFFCURVE",
"241 418 OFFCURVE",
"191 418 CURVE SMOOTH"
);
}
);
width = 380;
}
);
rightKerningGroup = numbersign;
unicode = 00BA;
},
{
glyphname = guillemotright;
layers = (
{
layerId = "E174F030-6324-451A-8951-EA6336064495";
paths = (
{
closed = 1;
nodes = (
"561 194 LINE",
"561 290 LINE",
"338 454 LINE",
"338 319 LINE",
"447 244 LINE",
"338 158 LINE",
"338 23 LINE"
);
},
{
closed = 1;
nodes = (
"278 194 LINE",
"278 290 LINE",
"55 454 LINE",
"55 319 LINE",
"164 244 LINE",
"55 158 LINE",
"55 23 LINE"
);
}
);
width = 603;
},
{
layerId = "7BE58B69-D6A5-4645-9194-9194354D517E";
paths = (
{
closed = 1;
nodes = (
"494 218 LINE",
"494 278 LINE",
"305 421 LINE",
"305 344 LINE",
"429 250 LINE",
"305 145 LINE",
"305 67 LINE"
);
},
{
closed = 1;
nodes = (
"256 218 LINE",
"256 278 LINE",
"67 421 LINE",
"67 344 LINE",
"191 250 LINE",
"67 145 LINE",
"67 67 LINE"
);
}
);
width = 539;
}
);
leftKerningGroup = guillemotright;
rightKerningGroup = guillemotright;
unicode = 00BB;
},
{
glyphname = AE;
layers = (
{
layerId = "E174F030-6324-451A-8951-EA6336064495";
paths = (
{
closed = 1;
nodes = (
"150 0 LINE",
"179 116 LINE",
"392 116 LINE",
"392 0 LINE",
"830 0 LINE",
"830 132 LINE",
"528 132 LINE",
"528 284 LINE",
"770 284 LINE",
"770 415 LINE",
"528 415 LINE",
"528 558 LINE",
"830 558 LINE",
"830 690 LINE",
"196 690 LINE",
"12 0 LINE"
);
},
{
closed = 1;
nodes = (
"293 558 LINE",
"393 558 LINE",
"392 249 LINE",
"213 249 LINE"
);
}
);
width = 871;
},
{
layerId = "7BE58B69-D6A5-4645-9194-9194354D517E";
paths = (
{
closed = 1;
nodes = (
"99 0 LINE",
"157 175 LINE",
"408 175 LINE",
"408 0 LINE",
"829 0 LINE",
"829 73 LINE",
"484 73 LINE",
"484 320 LINE",
"769 320 LINE",
"769 393 LINE",
"484 393 LINE",
"484 623 LINE",
"829 623 LINE",
"829 696 LINE",
"244 696 LINE",
"20 0 LINE"
);
},
{
closed = 1;
nodes = (
"300 623 LINE",
"409 623 LINE",
"408 249 LINE",
"178 249 LINE"
);
}
);
width = 876;
}
);
rightKerningGroup = E;
unicode = 00C6;
},
{
glyphname = Eth;
layers = (
{
layerId = "E174F030-6324-451A-8951-EA6336064495";
paths = (
{
closed = 1;
nodes = (
"306 0 LINE SMOOTH",
"540 0 OFFCURVE",
"595 110 OFFCURVE",
"595 356 CURVE SMOOTH",
"595 595 OFFCURVE",
"538 690 OFFCURVE",
"306 690 CURVE SMOOTH",
"79 690 LINE",
"79 409 LINE",
"25 409 LINE",
"25 277 LINE",
"79 277 LINE",
"79 0 LINE"
);
},
{
closed = 1;
nodes = (
"215 277 LINE",
"345 277 LINE",
"345 409 LINE",
"215 409 LINE",
"215 559 LINE",
"306 559 LINE SMOOTH",
"446 559 OFFCURVE",
"453 491 OFFCURVE",
"453 354 CURVE SMOOTH",
"453 162 OFFCURVE",
"406 131 OFFCURVE",
"306 131 CURVE SMOOTH",
"215 131 LINE"
);
}
);
width = 642;
},
{
layerId = "7BE58B69-D6A5-4645-9194-9194354D517E";
paths = (
{
closed = 1;
nodes = (
"335 0 LINE SMOOTH",
"504 0 OFFCURVE",
"591 111 OFFCURVE",
"591 359 CURVE SMOOTH",
"591 574 OFFCURVE",
"523 696 OFFCURVE",
"335 696 CURVE SMOOTH",
"88 696 LINE",
"88 384 LINE",
"20 384 LINE",
"20 311 LINE",
"88 311 LINE",
"88 0 LINE"
);
},
{
closed = 1;
nodes = (
"164 311 LINE",
"322 311 LINE",
"322 384 LINE",
"164 384 LINE",
"164 623 LINE",
"335 623 LINE SMOOTH",
"453 623 OFFCURVE",
"511 543 OFFCURVE",
"511 359 CURVE SMOOTH",
"511 168 OFFCURVE",
"452 73 OFFCURVE",
"335 73 CURVE SMOOTH",
"164 73 LINE"
);
}
);
width = 647;
}
);
leftKerningGroup = B;
rightKerningGroup = D;
unicode = 00D0;
},
{
glyphname = multiply;
layers = (
{
layerId = "E174F030-6324-451A-8951-EA6336064495";
paths = (
{
closed = 1;
nodes = (
"56 113 LINE",
"418 475 LINE",
"503 390 LINE",
"141 28 LINE"
);
},
{
closed = 1;
nodes = (
"56 390 LINE",
"141 475 LINE",
"503 113 LINE",
"418 28 LINE"
);
}
);
width = 559;
},
{
layerId = "7BE58B69-D6A5-4645-9194-9194354D517E";
paths = (
{
closed = 1;
nodes = (
"39 97 LINE",
"401 459 LINE",
"449 411 LINE",
"87 49 LINE"
);
},
{
closed = 1;
nodes = (
"39 411 LINE",
"87 459 LINE",
"449 97 LINE",
"401 49 LINE"
);
}
);
width = 560;
}
);
rightKerningGroup = numbersign;
unicode = 00D7;
},
{
glyphname = Oslash;
layers = (
{
layerId = "E174F030-6324-451A-8951-EA6336064495";
paths = (
{
closed = 1;
nodes = (
"230 -2 LINE",
"261 -9 OFFCURVE",
"293 -12 OFFCURVE",
"326 -12 CURVE SMOOTH",
"533 -12 OFFCURVE",
"608 97 OFFCURVE",
"608 336 CURVE SMOOTH",
"608 475 OFFCURVE",
"580 572 OFFCURVE",
"523 627 CURVE",
"588 767 LINE",
"488 810 LINE",
"427 680 LINE",
"398 688 OFFCURVE",
"365 692 OFFCURVE",
"326 692 CURVE SMOOTH",
"119 692 OFFCURVE",
"44 577 OFFCURVE",
"44 336 CURVE SMOOTH",
"44 195 OFFCURVE",
"73 98 OFFCURVE",
"132 46 CURVE",
"74 -78 LINE",
"172 -127 LINE"
);
},
{
closed = 1;
nodes = (
"191 227 OFFCURVE",
"186 279 OFFCURVE",
"186 352 CURVE SMOOTH",
"186 496 OFFCURVE",
"219 572 OFFCURVE",
"326 572 CURVE SMOOTH",
"342 572 OFFCURVE",
"358 570 OFFCURVE",
"374 565 CURVE",
"201 194 LINE"
);
},
{
closed = 1;
nodes = (
"309 108 OFFCURVE",
"294 109 OFFCURVE",
"283 112 CURVE",
"452 475 LINE",
"461 442 OFFCURVE",
"466 390 OFFCURVE",
"466 319 CURVE SMOOTH",
"466 178 OFFCURVE",
"434 108 OFFCURVE",
"326 108 CURVE SMOOTH"
);
}
);
width = 652;
},
{
layerId = "7BE58B69-D6A5-4645-9194-9194354D517E";
paths = (
{
closed = 1;
nodes = (
"210 7 LINE",
"244 -4 OFFCURVE",
"284 -10 OFFCURVE",
"330 -10 CURVE SMOOTH",
"538 -10 OFFCURVE",
"604 94 OFFCURVE",
"604 343 CURVE SMOOTH",
"604 494 OFFCURVE",
"573 596 OFFCURVE",
"511 648 CURVE",
"570 775 LINE",
"512 799 LINE",
"456 681 LINE",
"422 695 OFFCURVE",
"380 702 OFFCURVE",
"330 702 CURVE SMOOTH",
"126 702 OFFCURVE",
"57 586 OFFCURVE",
"57 343 CURVE SMOOTH",
"57 187 OFFCURVE",
"84 89 OFFCURVE",
"155 36 CURVE",
"96 -90 LINE",
"153 -116 LINE"
);
},
{
closed = 1;
nodes = (
"153 147 OFFCURVE",
"136 221 OFFCURVE",
"136 331 CURVE SMOOTH",
"136 550 OFFCURVE",
"179 634 OFFCURVE",
"330 634 CURVE SMOOTH",
"369 634 OFFCURVE",
"401 628 OFFCURVE",
"426 615 CURVE",
"188 108 LINE"
);
},
{
closed = 1;
nodes = (
"293 58 OFFCURVE",
"264 63 OFFCURVE",
"241 72 CURVE",
"476 574 LINE",
"508 531 OFFCURVE",
"524 456 OFFCURVE",
"524 349 CURVE SMOOTH",
"524 134 OFFCURVE",
"483 58 OFFCURVE",
"330 58 CURVE SMOOTH"
);
}
);
width = 660;
}
);
leftKerningGroup = G;
rightKerningGroup = O;
unicode = 00D8;
},
{
glyphname = Thorn;
layers = (
{
layerId = "E174F030-6324-451A-8951-EA6336064495";
paths = (
{
closed = 1;
nodes = (
"212 0 LINE",
"212 99 LINE",
"324 99 LINE SMOOTH",
"483 99 OFFCURVE",
"568 192 OFFCURVE",
"568 353 CURVE SMOOTH",
"568 512 OFFCURVE",
"487 592 OFFCURVE",
"324 592 CURVE SMOOTH",
"212 592 LINE",
"212 690 LINE",
"74 690 LINE",
"74 0 LINE"
);
},
{
closed = 1;
nodes = (
"212 460 LINE",
"323 460 LINE SMOOTH",
"393 460 OFFCURVE",
"428 424 OFFCURVE",
"428 353 CURVE SMOOTH",
"428 277 OFFCURVE",
"391 233 OFFCURVE",
"323 233 CURVE SMOOTH",
"212 233 LINE"
);
}
);
width = 596;
},
{
layerId = "7BE58B69-D6A5-4645-9194-9194354D517E";
paths = (
{
closed = 1;
nodes = (
"162 0 LINE",
"162 121 LINE",
"338 121 LINE SMOOTH",
"486 121 OFFCURVE",
"560 207 OFFCURVE",
"560 360 CURVE SMOOTH",
"560 512 OFFCURVE",
"489 584 OFFCURVE",
"338 584 CURVE SMOOTH",
"162 584 LINE",
"162 696 LINE",
"85 696 LINE",
"85 0 LINE"
);
},
{
closed = 1;
nodes = (
"162 510 LINE",
"337 510 LINE SMOOTH",
"437 510 OFFCURVE",
"481 465 OFFCURVE",
"481 361 CURVE SMOOTH",
"481 250 OFFCURVE",
"433 195 OFFCURVE",
"337 195 CURVE SMOOTH",
"162 195 LINE"
);
}
);
width = 599;
}
);
leftKerningGroup = B;
rightKerningGroup = numbersign;
unicode = 00DE;
},
{
glyphname = germandbls;
layers = (
{
layerId = "E174F030-6324-451A-8951-EA6336064495";
paths = (
{
closed = 1;
nodes = (
"534 -12 OFFCURVE",
"588 29 OFFCURVE",
"588 164 CURVE SMOOTH",
"588 241 OFFCURVE",
"557 271 OFFCURVE",
"469 312 CURVE SMOOTH",
"413 337 OFFCURVE",
"370 354 OFFCURVE",
"370 380 CURVE SMOOTH",
"370 403 OFFCURVE",
"393 413 OFFCURVE",
"436 432 CURVE SMOOTH",
"495 458 OFFCURVE",
"523 483 OFFCURVE",
"523 555 CURVE SMOOTH",
"523 666 OFFCURVE",
"449 712 OFFCURVE",
"289 712 CURVE SMOOTH",
"129 712 OFFCURVE",
"62 658 OFFCURVE",
"62 522 CURVE SMOOTH",
"62 0 LINE",
"196 0 LINE",
"196 519 LINE SMOOTH",
"196 572 OFFCURVE",
"220 594 OFFCURVE",
"292 594 CURVE SMOOTH",
"344 594 OFFCURVE",
"385 587 OFFCURVE",
"385 551 CURVE SMOOTH",
"385 519 OFFCURVE",
"360 510 OFFCURVE",
"312 490 CURVE SMOOTH",
"253 466 OFFCURVE",
"232 433 OFFCURVE",
"232 365 CURVE SMOOTH",
"232 297 OFFCURVE",
"266 256 OFFCURVE",
"354 219 CURVE SMOOTH",
"416 192 OFFCURVE",
"450 182 OFFCURVE",
"450 144 CURVE SMOOTH",
"450 119 OFFCURVE",
"423 106 OFFCURVE",
"370 106 CURVE SMOOTH",
"345 106 OFFCURVE",
"301 110 OFFCURVE",
"236 118 CURVE",
"232 11 LINE",
"256 6 LINE SMOOTH",
"307 -6 OFFCURVE",
"350 -12 OFFCURVE",
"386 -12 CURVE SMOOTH"
);
}
);
width = 611;
},
{
layerId = "7BE58B69-D6A5-4645-9194-9194354D517E";
paths = (
{
closed = 1;
nodes = (
"485 -10 OFFCURVE",
"539 41 OFFCURVE",
"539 177 CURVE SMOOTH",
"539 256 OFFCURVE",
"506 289 OFFCURVE",
"419 332 CURVE",
"325 387 OFFCURVE",
"321 381 OFFCURVE",
"321 406 CURVE SMOOTH",
"321 429 OFFCURVE",
"343 439 OFFCURVE",
"384 457 CURVE SMOOTH",
"437 480 OFFCURVE",
"462 513 OFFCURVE",
"462 584 CURVE SMOOTH",
"462 685 OFFCURVE",
"406 728 OFFCURVE",
"267 728 CURVE SMOOTH",
"128 728 OFFCURVE",
"72 680 OFFCURVE",
"72 545 CURVE SMOOTH",
"72 0 LINE",
"147 0 LINE",
"147 536 LINE SMOOTH",
"147 633 OFFCURVE",
"178 661 OFFCURVE",
"267 661 CURVE SMOOTH",
"355 661 OFFCURVE",
"384 638 OFFCURVE",
"384 587 CURVE SMOOTH",
"384 535 OFFCURVE",
"371 517 OFFCURVE",
"319 494 CURVE SMOOTH",
"267 471 OFFCURVE",
"243 449 OFFCURVE",
"243 399 CURVE SMOOTH",
"243 349 OFFCURVE",
"267 323 OFFCURVE",
"354 282 CURVE SMOOTH",
"441 241 OFFCURVE",
"461 223 OFFCURVE",
"461 159 CURVE SMOOTH",
"461 94 OFFCURVE",
"428 57 OFFCURVE",
"332 57 CURVE SMOOTH",
"307 57 OFFCURVE",
"267 61 OFFCURVE",
"210 68 CURVE",
"207 5 LINE",
"228 1 LINE SMOOTH",
"268 -6 OFFCURVE",
"305 -10 OFFCURVE",
"338 -10 CURVE SMOOTH"
);
}
);
width = 574;
}
);
leftKerningGroup = h;
rightKerningGroup = numbersign;
unicode = 00DF;
},
{
glyphname = ae;
layers = (
{
layerId = "E174F030-6324-451A-8951-EA6336064495";
paths = (
{
closed = 1;
nodes = (
"238 -12 OFFCURVE",
"293 0 OFFCURVE",
"349 25 CURVE SMOOTH",
"372 36 LINE",
"406 4 OFFCURVE",
"456 -12 OFFCURVE",
"521 -12 CURVE SMOOTH",
"586 -12 OFFCURVE",
"656 -3 OFFCURVE",
"733 16 CURVE",
"731 120 LINE",
"703 118 LINE SMOOTH",
"638 113 OFFCURVE",
"582 111 OFFCURVE",
"537 111 CURVE SMOOTH",
"477 111 OFFCURVE",
"446 135 OFFCURVE",
"445 192 CURVE",
"739 192 LINE",
"749 286 LINE",
"749 436 OFFCURVE",
"676 511 OFFCURVE",
"531 511 CURVE SMOOTH",
"477 511 OFFCURVE",
"433 499 OFFCURVE",
"398 474 CURVE",
"369 499 OFFCURVE",
"329 511 OFFCURVE",
"276 511 CURVE SMOOTH",
"223 511 OFFCURVE",
"152 504 OFFCURVE",
"63 489 CURVE",
"67 372 LINE",
"99 375 LINE SMOOTH",
"156 380 OFFCURVE",
"208 383 OFFCURVE",
"256 383 CURVE SMOOTH",
"292 383 OFFCURVE",
"311 365 OFFCURVE",
"311 338 CURVE SMOOTH",
"311 313 LINE",
"203 306 LINE SMOOTH",
"87 299 OFFCURVE",
"29 258 OFFCURVE",
"29 154 CURVE SMOOTH",
"29 49 OFFCURVE",
"78 -12 OFFCURVE",
"185 -12 CURVE SMOOTH"
);
},
{
closed = 1;
nodes = (
"178 103 OFFCURVE",
"164 121 OFFCURVE",
"164 156 CURVE SMOOTH",
"164 188 OFFCURVE",
"183 205 OFFCURVE",
"220 207 CURVE SMOOTH",
"310 211 LINE",
"311 118 LINE",
"264 108 OFFCURVE",
"235 103 OFFCURVE",
"205 103 CURVE SMOOTH"
);
},
{
closed = 1;
nodes = (
"445 363 OFFCURVE",
"467 392 OFFCURVE",
"531 392 CURVE SMOOTH",
"594 392 OFFCURVE",
"617 366 OFFCURVE",
"617 295 CURVE",
"445 295 LINE"
);
}
);
width = 784;
},
{
layerId = "7BE58B69-D6A5-4645-9194-9194354D517E";
paths = (
{
closed = 1;
nodes = (
"246 -10 OFFCURVE",
"310 3 OFFCURVE",
"368 30 CURVE SMOOTH",
"400 44 LINE",
"432 8 OFFCURVE",
"478 -10 OFFCURVE",
"538 -10 CURVE SMOOTH",
"598 -10 OFFCURVE",
"666 -5 OFFCURVE",
"741 6 CURVE",
"739 67 LINE",
"710 65 LINE SMOOTH",
"642 60 OFFCURVE",
"588 58 OFFCURVE",
"547 58 CURVE SMOOTH",
"465 58 OFFCURVE",
"425 109 OFFCURVE",
"425 218 CURVE",
"755 218 LINE",
"759 276 LINE",
"759 437 OFFCURVE",
"694 510 OFFCURVE",
"555 510 CURVE SMOOTH",
"485 510 OFFCURVE",
"434 486 OFFCURVE",
"402 437 CURVE",
"380 486 OFFCURVE",
"335 510 OFFCURVE",
"267 510 CURVE SMOOTH",
"215 510 OFFCURVE",
"149 505 OFFCURVE",
"70 495 CURVE",
"73 428 LINE",
"104 430 LINE SMOOTH",
"166 435 OFFCURVE",
"219 438 OFFCURVE",
"263 438 CURVE SMOOTH",
"321 438 OFFCURVE",
"350 408 OFFCURVE",
"350 347 CURVE SMOOTH",
"350 306 LINE",
"221 294 LINE SMOOTH",
"89 281 OFFCURVE",
"40 249 OFFCURVE",
"40 146 CURVE SMOOTH",
"40 43 OFFCURVE",
"87 -10 OFFCURVE",
"176 -10 CURVE SMOOTH"
);
},
{
closed = 1;
nodes = (
"141 55 OFFCURVE",
"117 85 OFFCURVE",
"117 145 CURVE SMOOTH",
"117 201 OFFCURVE",
"143 228 OFFCURVE",
"202 233 CURVE SMOOTH",
"348 245 LINE",
"348 92 LINE",
"328 81 OFFCURVE",
"249 55 OFFCURVE",
"188 55 CURVE SMOOTH"
);
},
{
closed = 1;
nodes = (
"425 394 OFFCURVE",
"470 443 OFFCURVE",
"559 443 CURVE SMOOTH",
"647 443 OFFCURVE",
"684 398 OFFCURVE",
"684 279 CURVE",
"425 279 LINE"
);
}
);
width = 804;
}
);
leftKerningGroup = a;
rightKerningGroup = e;
unicode = 00E6;
},
{
glyphname = eth;
layers = (
{
layerId = "E174F030-6324-451A-8951-EA6336064495";
paths = (
{
closed = 1;
nodes = (
"453 -9 OFFCURVE",
"528 102 OFFCURVE",
"528 351 CURVE SMOOTH",
"528 475 OFFCURVE",
"487 566 OFFCURVE",
"405 625 CURVE",
"459 661 LINE",
"405 737 LINE",
"309 673 LINE",
"250 693 OFFCURVE",
"181 706 OFFCURVE",
"100 712 CURVE",
"82 618 LINE",
"123 610 OFFCURVE",
"159 602 OFFCURVE",
"190 594 CURVE",
"114 543 LINE",
"168 467 LINE",
"297 553 LINE",
"356 520 OFFCURVE",
"379 477 OFFCURVE",
"386 414 CURVE",
"369 420 LINE SMOOTH",
"335 432 OFFCURVE",
"297 438 OFFCURVE",
"256 438 CURVE SMOOTH",
"111 438 OFFCURVE",
"38 355 OFFCURVE",
"38 216 CURVE SMOOTH",
"38 66 OFFCURVE",
"116 -9 OFFCURVE",
"273 -9 CURVE SMOOTH"
);
},
{
closed = 1;
nodes = (
"211 111 OFFCURVE",
"180 146 OFFCURVE",
"180 216 CURVE SMOOTH",
"180 273 OFFCURVE",
"209 320 OFFCURVE",
"264 320 CURVE SMOOTH",
"312 320 OFFCURVE",
"353 313 OFFCURVE",
"386 298 CURVE",
"386 166 OFFCURVE",
"348 111 OFFCURVE",
"273 111 CURVE SMOOTH"
);
}
);
width = 567;
},
{
layerId = "7BE58B69-D6A5-4645-9194-9194354D517E";
paths = (
{
closed = 1;
nodes = (
"429 -9 OFFCURVE",
"496 94 OFFCURVE",
"496 352 CURVE SMOOTH",
"496 481 OFFCURVE",
"445 578 OFFCURVE",
"342 643 CURVE",
"419 695 LINE",
"385 742 LINE",
"284 674 LINE",
"235 697 OFFCURVE",
"178 715 OFFCURVE",
"111 728 CURVE",
"96 672 LINE",
"143 660 OFFCURVE",
"184 646 OFFCURVE",
"220 631 CURVE",
"125 567 LINE",
"158 520 LINE",
"280 601 LINE",
"367 550 OFFCURVE",
"412 481 OFFCURVE",
"417 394 CURVE",
"392 403 LINE SMOOTH",
"342 421 OFFCURVE",
"295 430 OFFCURVE",
"252 430 CURVE SMOOTH",
"119 430 OFFCURVE",
"42 348 OFFCURVE",
"42 210 CURVE SMOOTH",
"42 72 OFFCURVE",
"122 -9 OFFCURVE",
"265 -9 CURVE SMOOTH"
);
},
{
closed = 1;
nodes = (
"169 59 OFFCURVE",
"121 117 OFFCURVE",
"121 210 CURVE SMOOTH",
"121 303 OFFCURVE",
"169 363 OFFCURVE",
"260 363 CURVE SMOOTH",
"305 363 OFFCURVE",
"358 351 OFFCURVE",
"418 327 CURVE",
"417 127 OFFCURVE",
"373 59 OFFCURVE",
"271 59 CURVE SMOOTH"
);
}
);
width = 548;
}
);
rightKerningGroup = numbersign;
unicode = 00F0;
},
{
glyphname = divide;
layers = (
{
layerId = "E174F030-6324-451A-8951-EA6336064495";
paths = (
{
closed = 1;
nodes = (
"510 191 LINE",
"510 311 LINE",
"50 311 LINE",
"50 191 LINE"
);
},
{
closed = 1;
nodes = (
"345 17 LINE",
"345 149 LINE",
"213 149 LINE",
"213 17 LINE"
);
},
{
closed = 1;
nodes = (
"345 352 LINE",
"345 484 LINE",
"213 484 LINE",
"213 352 LINE"
);
}
);
width = 560;
},
{
layerId = "7BE58B69-D6A5-4645-9194-9194354D517E";
paths = (
{
closed = 1;
nodes = (
"439 281 LINE",
"439 354 LINE",
"120 354 LINE",
"120 281 LINE"
);
},
{
closed = 1;
nodes = (
"317 30 LINE",
"317 131 LINE",
"242 131 LINE",
"242 30 LINE"
);
},
{
closed = 1;
nodes = (
"317 504 LINE",
"317 605 LINE",
"242 605 LINE",
"242 504 LINE"
);
}
);
width = 560;
},
{
associatedMasterId = "7BE58B69-D6A5-4645-9194-9194354D517E";
layerId = "9F35FC74-4BC1-4877-BA74-582D70247D14";
name = "Black {900, 100}";
paths = (
{
closed = 1;
nodes = (
"507 170 LINE",
"507 340 LINE",
"43 340 LINE",
"43 170 LINE"
);
},
{
closed = 1;
nodes = (
"375 10 LINE",
"375 150 LINE",
"175 150 LINE",
"175 10 LINE"
);
},
{
closed = 1;
nodes = (
"375 360 LINE",
"375 500 LINE",
"175 500 LINE",
"175 360 LINE"
);
}
);
width = 550;
}
);
rightKerningGroup = numbersign;
unicode = 00F7;
},
{
glyphname = oslash;
layers = (
{
layerId = "E174F030-6324-451A-8951-EA6336064495";
paths = (
{
closed = 1;
nodes = (
"203 -6 LINE",
"222 -10 OFFCURVE",
"243 -12 OFFCURVE",
"266 -12 CURVE SMOOTH",
"419 -12 OFFCURVE",
"496 76 OFFCURVE",
"496 251 CURVE SMOOTH",
"496 364 OFFCURVE",
"465 440 OFFCURVE",
"402 479 CURVE",
"443 577 LINE",
"362 607 LINE",
"322 507 LINE",
"303 510 OFFCURVE",
"285 512 OFFCURVE",
"266 512 CURVE SMOOTH",
"101 512 OFFCURVE",
"36 416 OFFCURVE",
"36 251 CURVE SMOOTH",
"36 140 OFFCURVE",
"66 65 OFFCURVE",
"125 25 CURVE",
"82 -78 LINE",
"162 -108 LINE"
);
},
{
closed = 1;
nodes = (
"176 177 OFFCURVE",
"172 211 OFFCURVE",
"172 258 CURVE SMOOTH",
"172 351 OFFCURVE",
"195 398 OFFCURVE",
"266 398 CURVE",
"279 397 LINE",
"184 156 LINE"
);
},
{
closed = 1;
nodes = (
"257 102 OFFCURVE",
"250 102 OFFCURVE",
"246 103 CURVE",
"346 350 LINE",
"355 327 OFFCURVE",
"360 292 OFFCURVE",
"360 245 CURVE SMOOTH",
"360 150 OFFCURVE",
"337 102 OFFCURVE",
"266 102 CURVE SMOOTH"
);
}
);
width = 532;
},
{
layerId = "7BE58B69-D6A5-4645-9194-9194354D517E";
paths = (
{
closed = 1;
nodes = (
"188 -2 LINE",
"211 -7 OFFCURVE",
"237 -10 OFFCURVE",
"264 -10 CURVE SMOOTH",
"427 -10 OFFCURVE",
"478 67 OFFCURVE",
"478 256 CURVE SMOOTH",
"478 374 OFFCURVE",
"448 450 OFFCURVE",
"388 483 CURVE",
"431 587 LINE",
"381 606 LINE",
"338 502 LINE",
"315 507 OFFCURVE",
"290 510 OFFCURVE",
"264 510 CURVE SMOOTH",
"109 510 OFFCURVE",
"50 432 OFFCURVE",
"50 256 CURVE SMOOTH",
"50 125 OFFCURVE",
"74 51 OFFCURVE",
"139 15 CURVE",
"95 -94 LINE",
"145 -112 LINE"
);
},
{
closed = 1;
nodes = (
"130 112 OFFCURVE",
"127 184 OFFCURVE",
"127 273 CURVE SMOOTH",
"127 392 OFFCURVE",
"160 445 OFFCURVE",
"264 445 CURVE",
"314 439 LINE",
"169 80 LINE"
);
},
{
closed = 1;
nodes = (
"242 55 OFFCURVE",
"225 57 OFFCURVE",
"213 60 CURVE",
"359 417 LINE",
"387 392 OFFCURVE",
"401 340 OFFCURVE",
"401 261 CURVE SMOOTH",
"401 103 OFFCURVE",
"377 55 OFFCURVE",
"264 55 CURVE SMOOTH"
);
}
);
width = 528;
}
);
leftKerningGroup = c;
rightKerningGroup = o;
unicode = 00F8;
},
{
glyphname = thorn;
layers = (
{
layerId = "E174F030-6324-451A-8951-EA6336064495";
paths = (
{
closed = 1;
nodes = (
"196 -210 LINE",
"196 -4 LINE",
"279 -12 LINE",
"440 -12 OFFCURVE",
"506 52 OFFCURVE",
"506 249 CURVE SMOOTH",
"506 446 OFFCURVE",
"444 512 OFFCURVE",
"304 512 CURVE SMOOTH",
"275 512 OFFCURVE",
"239 503 OFFCURVE",
"196 485 CURVE",
"196 700 LINE",
"62 700 LINE",
"62 -210 LINE"
);
},
{
closed = 1;
nodes = (
"250 104 OFFCURVE",
"226 106 OFFCURVE",
"196 110 CURVE",
"196 379 LINE",
"210 382 LINE",
"234 389 OFFCURVE",
"259 392 OFFCURVE",
"286 392 CURVE SMOOTH",
"342 392 OFFCURVE",
"370 346 OFFCURVE",
"370 255 CURVE SMOOTH",
"370 144 OFFCURVE",
"346 104 OFFCURVE",
"269 104 CURVE SMOOTH"
);
}
);
width = 544;
},
{
layerId = "7BE58B69-D6A5-4645-9194-9194354D517E";
paths = (
{
closed = 1;
nodes = (
"147 -222 LINE",
"147 -3 LINE",
"248 -10 LINE",
"420 -10 OFFCURVE",
"476 61 OFFCURVE",
"476 252 CURVE SMOOTH",
"476 443 OFFCURVE",
"428 510 OFFCURVE",
"293 510 CURVE SMOOTH",
"246 510 OFFCURVE",
"197 498 OFFCURVE",
"147 475 CURVE",
"147 718 LINE",
"72 718 LINE",
"72 -222 LINE"
);
},
{
closed = 1;
nodes = (
"223 55 OFFCURVE",
"190 57 OFFCURVE",
"147 61 CURVE",
"147 414 LINE",
"166 421 LINE SMOOTH",
"207 436 OFFCURVE",
"247 443 OFFCURVE",
"286 443 CURVE SMOOTH",
"371 443 OFFCURVE",
"399 392 OFFCURVE",
"399 252 CURVE SMOOTH",
"399 111 OFFCURVE",
"369 55 OFFCURVE",
"244 55 CURVE SMOOTH"
);
}
);
width = 527;
}
);
leftKerningGroup = b;
rightKerningGroup = b;
unicode = 00FE;
},
{
glyphname = abreve;
layers = (
{
layerId = "E174F030-6324-451A-8951-EA6336064495";
paths = (
{
closed = 1;
nodes = (
"219 -12 OFFCURVE",
"262 -3 OFFCURVE",
"308 14 CURVE SMOOTH",
"331 22 LINE",
"368 -3 OFFCURVE",
"393 -12 OFFCURVE",
"473 -12 CURVE",
"477 102 LINE",
"450 107 OFFCURVE",
"445 115 OFFCURVE",
"445 154 CURVE SMOOTH",
"445 339 LINE SMOOTH",
"445 463 OFFCURVE",
"386 511 OFFCURVE",
"269 511 CURVE SMOOTH",
"226 511 OFFCURVE",
"169 505 OFFCURVE",
"98 494 CURVE SMOOTH",
"63 489 LINE",
"67 375 LINE",
"147 380 OFFCURVE",
"212 383 OFFCURVE",
"261 383 CURVE SMOOTH",
"290 383 OFFCURVE",
"311 365 OFFCURVE",
"311 338 CURVE SMOOTH",
"311 313 LINE",
"203 306 LINE SMOOTH",
"84 298 OFFCURVE",
"29 258 OFFCURVE",
"29 154 CURVE SMOOTH",
"29 49 OFFCURVE",
"81 -12 OFFCURVE",
"178 -12 CURVE SMOOTH"
);
},
{
closed = 1;
nodes = (
"178 103 OFFCURVE",
"164 121 OFFCURVE",
"164 156 CURVE SMOOTH",
"164 188 OFFCURVE",
"183 205 OFFCURVE",
"220 207 CURVE SMOOTH",
"311 211 LINE",
"311 118 LINE",
"268 108 OFFCURVE",
"232 103 OFFCURVE",
"205 103 CURVE SMOOTH"
);
},
{
closed = 1;
nodes = (
"372 585 OFFCURVE",
"436 648 OFFCURVE",
"447 748 CURVE",
"308 748 LINE",
"304 719 OFFCURVE",
"286 704 OFFCURVE",
"254 704 CURVE SMOOTH",
"221 704 OFFCURVE",
"203 719 OFFCURVE",
"198 748 CURVE",
"59 748 LINE",
"70 648 OFFCURVE",
"134 585 OFFCURVE",
"253 585 CURVE SMOOTH"
);
}
);
width = 512;
},
{
layerId = "7BE58B69-D6A5-4645-9194-9194354D517E";
paths = (
{
closed = 1;
nodes = (
"233 -10 OFFCURVE",
"303 6 OFFCURVE",
"336 18 CURVE SMOOTH",
"361 28 LINE",
"386 3 OFFCURVE",
"425 -10 OFFCURVE",
"480 -10 CURVE",
"482 55 LINE",
"445 60 OFFCURVE",
"426 75 OFFCURVE",
"425 101 CURVE",
"425 347 LINE SMOOTH",
"425 459 OFFCURVE",
"374 510 OFFCURVE",
"267 510 CURVE SMOOTH",
"220 510 OFFCURVE",
"165 505 OFFCURVE",
"101 495 CURVE SMOOTH",
"69 490 LINE",
"72 425 LINE",
"151 434 OFFCURVE",
"214 438 OFFCURVE",
"263 438 CURVE SMOOTH",
"321 438 OFFCURVE",
"350 408 OFFCURVE",
"350 347 CURVE SMOOTH",
"350 306 LINE",
"193 291 LINE",
"88 282 OFFCURVE",
"40 238 OFFCURVE",
"40 142 CURVE SMOOTH",
"40 46 OFFCURVE",
"89 -10 OFFCURVE",
"176 -10 CURVE SMOOTH"
);
},
{
closed = 1;
nodes = (
"143 55 OFFCURVE",
"117 88 OFFCURVE",
"117 145 CURVE SMOOTH",
"117 198 OFFCURVE",
"145 228 OFFCURVE",
"202 233 CURVE SMOOTH",
"350 245 LINE",
"350 85 LINE",
"292 65 OFFCURVE",
"238 55 OFFCURVE",
"188 55 CURVE SMOOTH"
);
},
{
closed = 1;
nodes = (
"349 591 OFFCURVE",
"409 649 OFFCURVE",
"413 733 CURVE",
"336 733 LINE",
"335 688 OFFCURVE",
"304 658 OFFCURVE",
"253 658 CURVE SMOOTH",
"201 658 OFFCURVE",
"172 688 OFFCURVE",
"169 733 CURVE",
"92 733 LINE",
"96 649 OFFCURVE",
"156 591 OFFCURVE",
"253 591 CURVE SMOOTH"
);
}
);
width = 503;
}
);
leftKerningGroup = a;
rightKerningGroup = a;
unicode = 0103;
},
{
glyphname = Dcroat;
layers = (
{
layerId = "E174F030-6324-451A-8951-EA6336064495";
paths = (
{
closed = 1;
nodes = (
"306 0 LINE SMOOTH",
"540 0 OFFCURVE",
"595 110 OFFCURVE",
"595 356 CURVE SMOOTH",
"595 595 OFFCURVE",
"538 690 OFFCURVE",
"306 690 CURVE SMOOTH",
"79 690 LINE",
"79 409 LINE",
"25 409 LINE",
"25 277 LINE",
"79 277 LINE",
"79 0 LINE"
);
},
{
closed = 1;
nodes = (
"215 277 LINE",
"345 277 LINE",
"345 409 LINE",
"215 409 LINE",
"215 559 LINE",
"306 559 LINE SMOOTH",
"446 559 OFFCURVE",
"453 491 OFFCURVE",
"453 354 CURVE SMOOTH",
"453 162 OFFCURVE",
"406 131 OFFCURVE",
"306 131 CURVE SMOOTH",
"215 131 LINE"
);
}
);
width = 642;
},
{
layerId = "7BE58B69-D6A5-4645-9194-9194354D517E";
paths = (
{
closed = 1;
nodes = (
"335 0 LINE SMOOTH",
"504 0 OFFCURVE",
"591 111 OFFCURVE",
"591 359 CURVE SMOOTH",
"591 574 OFFCURVE",
"523 696 OFFCURVE",
"335 696 CURVE SMOOTH",
"88 696 LINE",
"88 384 LINE",
"20 384 LINE",
"20 311 LINE",
"88 311 LINE",
"88 0 LINE"
);
},
{
closed = 1;
nodes = (
"164 311 LINE",
"322 311 LINE",
"322 384 LINE",
"164 384 LINE",
"164 623 LINE",
"335 623 LINE SMOOTH",
"453 623 OFFCURVE",
"511 543 OFFCURVE",
"511 359 CURVE SMOOTH",
"511 168 OFFCURVE",
"452 73 OFFCURVE",
"335 73 CURVE SMOOTH",
"164 73 LINE"
);
}
);
width = 647;
}
);
leftKerningGroup = B;
rightKerningGroup = D;
unicode = 0110;
},
{
glyphname = dcroat;
layers = (
{
layerId = "E174F030-6324-451A-8951-EA6336064495";
paths = (
{
closed = 1;
nodes = (
"267 -12 OFFCURVE",
"307 -1 OFFCURVE",
"354 21 CURVE",
"354 0 LINE",
"487 0 LINE",
"487 700 LINE",
"456 700 LINE",
"456 738 LINE",
"129 738 LINE",
"129 622 LINE",
"353 622 LINE",
"353 498 LINE",
"299 508 OFFCURVE",
"269 512 OFFCURVE",
"245 512 CURVE SMOOTH",
"106 512 OFFCURVE",
"38 433 OFFCURVE",
"38 251 CURVE SMOOTH",
"38 69 OFFCURVE",
"88 -12 OFFCURVE",
"233 -12 CURVE SMOOTH"
);
},
{
closed = 1;
nodes = (
"196 108 OFFCURVE",
"174 148 OFFCURVE",
"174 252 CURVE SMOOTH",
"174 348 OFFCURVE",
"201 396 OFFCURVE",
"255 396 CURVE SMOOTH",
"284 396 OFFCURVE",
"316 393 OFFCURVE",
"353 386 CURVE",
"353 123 LINE",
"339 120 LINE",
"308 112 OFFCURVE",
"279 108 OFFCURVE",
"252 108 CURVE SMOOTH"
);
}
);
width = 549;
},
{
layerId = "7BE58B69-D6A5-4645-9194-9194354D517E";
paths = (
{
closed = 1;
nodes = (
"280 -10 OFFCURVE",
"331 5 OFFCURVE",
"382 34 CURVE",
"382 0 LINE",
"456 0 LINE",
"456 622 LINE",
"479 622 LINE",
"479 688 LINE",
"456 688 LINE",
"456 718 LINE",
"382 718 LINE",
"382 688 LINE",
"188 688 LINE",
"188 622 LINE",
"382 622 LINE",
"382 497 LINE",
"339 506 OFFCURVE",
"298 510 OFFCURVE",
"259 510 CURVE SMOOTH",
"110 510 OFFCURVE",
"50 430 OFFCURVE",
"50 236 CURVE SMOOTH",
"50 76 OFFCURVE",
"97 -10 OFFCURVE",
"230 -10 CURVE SMOOTH"
);
},
{
closed = 1;
nodes = (
"154 57 OFFCURVE",
"127 122 OFFCURVE",
"127 246 CURVE SMOOTH",
"127 382 OFFCURVE",
"162 445 OFFCURVE",
"263 445 CURVE SMOOTH",
"300 445 OFFCURVE",
"339 441 OFFCURVE",
"382 433 CURVE",
"382 94 LINE",
"362 85 LINE SMOOTH",
"335 73 OFFCURVE",
"281 57 OFFCURVE",
"243 57 CURVE SMOOTH"
);
}
);
width = 529;
},
{
associatedMasterId = "7BE58B69-D6A5-4645-9194-9194354D517E";
layerId = "91AE5657-BA63-4D3C-8F9D-6FD63E664050";
name = "Black {900, 100}";
paths = (
{
closed = 1;
nodes = (
"247 -13 OFFCURVE",
"282 -1 OFFCURVE",
"319 22 CURVE",
"321 0 LINE",
"542 0 LINE",
"542 545 LINE",
"582 545 LINE",
"582 652 LINE",
"542 652 LINE",
"542 690 LINE",
"318 690 LINE",
"318 652 LINE",
"257 652 LINE",
"257 545 LINE",
"318 545 LINE",
"318 512 LINE",
"237 518 LINE",
"90 518 OFFCURVE",
"16 429 OFFCURVE",
"16 252 CURVE SMOOTH",
"16 79 OFFCURVE",
"67 -13 OFFCURVE",
"214 -13 CURVE SMOOTH"
);
},
{
closed = 1;
nodes = (
"251 168 OFFCURVE",
"242 199 OFFCURVE",
"242 253 CURVE SMOOTH",
"242 307 OFFCURVE",
"250 337 OFFCURVE",
"286 337 CURVE SMOOTH",
"293 337 OFFCURVE",
"303 336 OFFCURVE",
"318 334 CURVE",
"318 171 LINE",
"287 168 LINE"
);
}
);
width = 570;
},
{
associatedMasterId = "7BE58B69-D6A5-4645-9194-9194354D517E";
layerId = "47377DC3-B61D-4D7C-B6E2-F2B11620EF6C";
name = "ExtraLight {200, 100}";
paths = (
{
closed = 1;
nodes = (
"279 -9 OFFCURVE",
"362 17 OFFCURVE",
"401 42 CURVE",
"401 0 LINE",
"436 0 LINE",
"436 622 LINE",
"495 622 LINE",
"495 654 LINE",
"436 654 LINE",
"436 730 LINE",
"401 730 LINE",
"401 654 LINE",
"228 654 LINE",
"228 622 LINE",
"401 622 LINE",
"401 497 LINE",
"351 505 OFFCURVE",
"307 509 OFFCURVE",
"269 509 CURVE SMOOTH",
"112 509 OFFCURVE",
"58 423 OFFCURVE",
"58 242 CURVE SMOOTH",
"58 196 OFFCURVE",
"62 156 OFFCURVE",
"71 123 CURVE SMOOTH",
"87 56 OFFCURVE",
"107 28 OFFCURVE",
"142 10 CURVE SMOOTH",
"177 -8 OFFCURVE",
"192 -9 OFFCURVE",
"236 -9 CURVE SMOOTH"
);
},
{
closed = 1;
nodes = (
"191 23 OFFCURVE",
"170 29 OFFCURVE",
"141 56 CURVE SMOOTH",
"110 84 OFFCURVE",
"95 146 OFFCURVE",
"95 242 CURVE SMOOTH",
"95 403 OFFCURVE",
"134 477 OFFCURVE",
"269 477 CURVE SMOOTH",
"305 477 OFFCURVE",
"349 473 OFFCURVE",
"401 465 CURVE",
"401 75 LINE",
"377 62 LINE SMOOTH",
"345 45 OFFCURVE",
"277 23 OFFCURVE",
"234 23 CURVE SMOOTH"
);
}
);
width = 515;
},
{
associatedMasterId = "7BE58B69-D6A5-4645-9194-9194354D517E";
layerId = "B0350BEB-032E-4B27-8E1B-AB35FA775267";
name = "Light {270, 100}";
paths = (
{
closed = 1;
nodes = (
"283 -10 OFFCURVE",
"336 6 OFFCURVE",
"389 37 CURVE",
"389 0 LINE",
"449 0 LINE",
"449 622 LINE",
"485 622 LINE",
"485 675 LINE",
"449 675 LINE",
"449 722 LINE",
"389 722 LINE",
"389 675 LINE",
"203 675 LINE",
"203 622 LINE",
"389 622 LINE",
"389 497 LINE",
"334 506 OFFCURVE",
"292 510 OFFCURVE",
"263 510 CURVE SMOOTH",
"111 510 OFFCURVE",
"53 430 OFFCURVE",
"53 232 CURVE SMOOTH",
"53 133 OFFCURVE",
"72 66 OFFCURVE",
"110 32 CURVE SMOOTH",
"147 -1 OFFCURVE",
"180 -10 OFFCURVE",
"229 -10 CURVE SMOOTH"
);
},
{
closed = 1;
nodes = (
"200 44 OFFCURVE",
"179 52 OFFCURVE",
"154 77 CURVE SMOOTH",
"128 103 OFFCURVE",
"115 159 OFFCURVE",
"115 244 CURVE SMOOTH",
"115 389 OFFCURVE",
"152 457 OFFCURVE",
"265 457 CURVE SMOOTH",
"294 457 OFFCURVE",
"336 453 OFFCURVE",
"389 445 CURVE",
"389 87 LINE",
"368 76 LINE",
"339 63 OFFCURVE",
"279 44 OFFCURVE",
"240 44 CURVE SMOOTH"
);
}
);
width = 523;
},
{
associatedMasterId = "7BE58B69-D6A5-4645-9194-9194354D517E";
layerId = "E10C05B1-735A-4E95-98D1-88CFB85841DE";
name = "SemiBold {493, 100}";
paths = (
{
closed = 1;
nodes = (
"273 -11 OFFCURVE",
"317 1 OFFCURVE",
"366 26 CURVE",
"366 0 LINE",
"474 0 LINE",
"474 708 LINE",
"466 708 LINE",
"466 716 LINE",
"155 716 LINE",
"155 622 LINE",
"365 622 LINE",
"365 498 LINE",
"313 507 OFFCURVE",
"275 511 OFFCURVE",
"251 511 CURVE SMOOTH",
"108 511 OFFCURVE",
"43 431 OFFCURVE",
"43 246 CURVE SMOOTH",
"43 61 OFFCURVE",
"101 -11 OFFCURVE",
"232 -11 CURVE SMOOTH"
);
},
{
closed = 1;
nodes = (
"183 86 OFFCURVE",
"153 126 OFFCURVE",
"153 249 CURVE SMOOTH",
"153 361 OFFCURVE",
"187 417 OFFCURVE",
"254 417 CURVE SMOOTH",
"288 417 OFFCURVE",
"325 414 OFFCURVE",
"365 407 CURVE",
"365 111 LINE",
"348 104 LINE SMOOTH",
"317 92 OFFCURVE",
"285 86 OFFCURVE",
"251 86 CURVE SMOOTH"
);
}
);
width = 540;
}
);
leftKerningGroup = d;
rightKerningGroup = numbersign;
unicode = 0111;
},
{
glyphname = Hbar;
layers = (
{
layerId = "E174F030-6324-451A-8951-EA6336064495";
paths = (
{
closed = 1;
nodes = (
"216 0 LINE",
"216 282 LINE",
"469 282 LINE",
"469 0 LINE",
"607 0 LINE",
"607 486 LINE",
"673 486 LINE",
"673 602 LINE",
"607 602 LINE",
"607 680 LINE",
"469 680 LINE",
"469 602 LINE",
"216 602 LINE",
"216 680 LINE",
"78 680 LINE",
"78 602 LINE",
"19 602 LINE",
"19 486 LINE",
"78 486 LINE",
"78 0 LINE"
);
},
{
closed = 1;
nodes = (
"216 486 LINE",
"469 486 LINE",
"469 402 LINE",
"216 402 LINE"
);
}
);
width = 685;
},
{
layerId = "7BE58B69-D6A5-4645-9194-9194354D517E";
paths = (
{
closed = 1;
nodes = (
"166 0 LINE",
"166 313 LINE",
"518 313 LINE",
"518 0 LINE",
"594 0 LINE",
"594 508 LINE",
"677 508 LINE",
"677 573 LINE",
"594 573 LINE",
"594 692 LINE",
"518 692 LINE",
"518 573 LINE",
"166 573 LINE",
"166 692 LINE",
"89 692 LINE",
"89 573 LINE",
"15 573 LINE",
"15 508 LINE",
"89 508 LINE",
"89 0 LINE"
);
},
{
closed = 1;
nodes = (
"166 508 LINE",
"518 508 LINE",
"518 382 LINE",
"166 382 LINE"
);
}
);
width = 686;
}
);
leftKerningGroup = B;
rightKerningGroup = H;
unicode = 0126;
},
{
glyphname = hbar;
layers = (
{
layerId = "E174F030-6324-451A-8951-EA6336064495";
paths = (
{
closed = 1;
nodes = (
"196 0 LINE",
"196 376 LINE",
"209 380 LINE SMOOTH",
"235 388 OFFCURVE",
"261 392 OFFCURVE",
"287 392 CURVE SMOOTH",
"347 392 OFFCURVE",
"362 352 OFFCURVE",
"362 268 CURVE SMOOTH",
"362 0 LINE",
"496 0 LINE",
"496 271 LINE SMOOTH",
"496 435 OFFCURVE",
"453 512 OFFCURVE",
"320 512 CURVE SMOOTH",
"283 512 OFFCURVE",
"242 500 OFFCURVE",
"196 476 CURVE",
"196 532 LINE",
"339 532 LINE",
"339 648 LINE",
"196 648 LINE",
"196 700 LINE",
"62 700 LINE",
"62 648 LINE",
"12 648 LINE",
"12 532 LINE",
"62 532 LINE",
"62 0 LINE"
);
}
);
width = 553;
},
{
layerId = "7BE58B69-D6A5-4645-9194-9194354D517E";
paths = (
{
closed = 1;
nodes = (
"147 0 LINE",
"147 413 LINE",
"166 420 LINE SMOOTH",
"205 435 OFFCURVE",
"246 443 OFFCURVE",
"288 443 CURVE SMOOTH",
"376 443 OFFCURVE",
"395 401 OFFCURVE",
"395 262 CURVE SMOOTH",
"395 0 LINE",
"470 0 LINE",
"470 264 LINE SMOOTH",
"470 448 OFFCURVE",
"434 510 OFFCURVE",
"301 510 CURVE SMOOTH",
"252 510 OFFCURVE",
"200 497 OFFCURVE",
"147 472 CURVE",
"147 580 LINE",
"301 580 LINE",
"301 646 LINE",
"147 646 LINE",
"147 718 LINE",
"72 718 LINE",
"72 646 LINE",
"10 646 LINE",
"10 580 LINE",
"72 580 LINE",
"72 0 LINE"
);
}
);
width = 537;
},
{
associatedMasterId = "7BE58B69-D6A5-4645-9194-9194354D517E";
layerId = "B095940F-04E2-4231-BD31-C3ECD7B57FFC";
name = "Black {900, 100}";
paths = (
{
closed = 1;
nodes = (
"252 0 LINE",
"252 319 LINE",
"293 325 LINE",
"318 325 OFFCURVE",
"331 296 OFFCURVE",
"331 238 CURVE SMOOTH",
"331 0 LINE",
"555 0 LINE",
"555 261 LINE SMOOTH",
"555 452 OFFCURVE",
"504 518 OFFCURVE",
"359 518 CURVE SMOOTH",
"334 518 OFFCURVE",
"299 512 OFFCURVE",
"252 501 CURVE",
"252 545 LINE",
"313 545 LINE",
"313 652 LINE",
"252 652 LINE",
"252 690 LINE",
"28 690 LINE",
"28 652 LINE",
"-12 652 LINE",
"-12 545 LINE",
"28 545 LINE",
"28 0 LINE"
);
}
);
width = 578;
}
);
leftKerningGroup = h;
rightKerningGroup = h;
unicode = 0127;
},
{
glyphname = dotlessi;
layers = (
{
layerId = "E174F030-6324-451A-8951-EA6336064495";
paths = (
{
closed = 1;
nodes = (
"196 0 LINE",
"196 500 LINE",
"62 500 LINE",
"62 0 LINE"
);
}
);
width = 258;
},
{
layerId = "7BE58B69-D6A5-4645-9194-9194354D517E";
paths = (
{
closed = 1;
nodes = (
"146 0 LINE",
"146 500 LINE",
"72 500 LINE",
"72 0 LINE"
);
}
);
width = 218;
}
);
leftKerningGroup = i;
rightKerningGroup = numbersign;
unicode = 0131;
},
{
glyphname = Lcaron;
layers = (
{
components = (
{
name = L;
}
);
layerId = "E174F030-6324-451A-8951-EA6336064495";
paths = (
{
closed = 1;
nodes = (
"461 430 LINE",
"461 690 LINE",
"331 690 LINE",
"331 430 LINE"
);
}
);
width = 498;
},
{
components = (
{
name = L;
}
);
layerId = "7BE58B69-D6A5-4645-9194-9194354D517E";
paths = (
{
closed = 1;
nodes = (
"439 462 LINE",
"439 696 LINE",
"366 696 LINE",
"366 462 LINE"
);
}
);
width = 494;
}
);
leftKerningGroup = B;
rightKerningGroup = L;
unicode = 013D;
},
{
glyphname = Lslash;
layers = (
{
layerId = "E174F030-6324-451A-8951-EA6336064495";
paths = (
{
closed = 1;
nodes = (
"470 0 LINE",
"470 122 LINE",
"221 122 LINE",
"221 314 LINE",
"385 429 LINE",
"320 519 LINE",
"221 449 LINE",
"221 680 LINE",
"83 680 LINE",
"83 353 LINE",
"-24 278 LINE",
"41 188 LINE",
"83 217 LINE",
"83 0 LINE"
);
}
);
width = 481;
},
{
layerId = "7BE58B69-D6A5-4645-9194-9194354D517E";
paths = (
{
closed = 1;
nodes = (
"471 0 LINE",
"471 69 LINE",
"167 69 LINE",
"167 326 LINE",
"346 452 LINE",
"309 503 LINE",
"167 404 LINE",
"167 692 LINE",
"90 692 LINE",
"90 350 LINE",
"-4 284 LINE",
"33 232 LINE",
"90 272 LINE",
"90 0 LINE"
);
}
);
width = 483;
}
);
leftKerningGroup = B;
rightKerningGroup = L;
unicode = 0141;
},
{
glyphname = lslash;
layers = (
{
layerId = "E174F030-6324-451A-8951-EA6336064495";
paths = (
{
closed = 1;
nodes = (
"253 0 LINE",
"253 312 LINE",
"381 402 LINE",
"316 492 LINE",
"253 448 LINE",
"253 700 LINE",
"119 700 LINE",
"119 354 LINE",
"3 273 LINE",
"68 183 LINE",
"119 218 LINE",
"119 0 LINE"
);
}
);
width = 381;
},
{
layerId = "7BE58B69-D6A5-4645-9194-9194354D517E";
paths = (
{
closed = 1;
nodes = (
"189 0 LINE",
"189 331 LINE",
"300 409 LINE",
"263 461 LINE",
"189 409 LINE",
"189 718 LINE",
"114 718 LINE",
"114 357 LINE",
"10 284 LINE",
"47 232 LINE",
"114 279 LINE",
"114 0 LINE"
);
}
);
width = 310;
}
);
leftKerningGroup = l;
rightKerningGroup = numbersign;
unicode = 0142;
},
{
glyphname = Eng;
layers = (
{
layerId = "E174F030-6324-451A-8951-EA6336064495";
paths = (
{
closed = 1;
nodes = (
"442 -212 OFFCURVE",
"474 -210 OFFCURVE",
"500 -204 CURVE SMOOTH",
"585 -187 OFFCURVE",
"619 -137 OFFCURVE",
"619 -27 CURVE SMOOTH",
"619 680 LINE",
"481 680 LINE",
"481 120 LINE",
"471 120 LINE",
"307 680 LINE",
"74 680 LINE",
"74 0 LINE",
"212 0 LINE",
"212 560 LINE",
"222 560 LINE",
"392 0 LINE",
"481 0 LINE",
"481 -21 LINE SMOOTH",
"481 -76 OFFCURVE",
"458 -92 OFFCURVE",
"405 -92 CURVE",
"405 -212 LINE"
);
}
);
width = 693;
},
{
layerId = "7BE58B69-D6A5-4645-9194-9194354D517E";
paths = (
{
closed = 1;
nodes = (
"431 -189 OFFCURVE",
"455 -188 OFFCURVE",
"473 -186 CURVE SMOOTH",
"564 -175 OFFCURVE",
"592 -134 OFFCURVE",
"592 -22 CURVE SMOOTH",
"591 692 LINE",
"515 692 LINE",
"515 68 LINE",
"494 68 LINE",
"229 692 LINE",
"85 692 LINE",
"85 0 LINE",
"162 0 LINE",
"162 624 LINE",
"181 624 LINE",
"450 0 LINE",
"515 0 LINE",
"515 -11 LINE SMOOTH",
"515 -110 OFFCURVE",
"498 -120 OFFCURVE",
"402 -120 CURVE",
"402 -189 LINE"
);
}
);
width = 676;
}
);
leftKerningGroup = B;
rightKerningGroup = H;
unicode = 014A;
},
{
glyphname = eng;
layers = (
{
layerId = "E174F030-6324-451A-8951-EA6336064495";
paths = (
{
closed = 1;
nodes = (
"466 -179 OFFCURVE",
"496 -135 OFFCURVE",
"496 5 CURVE SMOOTH",
"496 261 LINE SMOOTH",
"496 424 OFFCURVE",
"448 512 OFFCURVE",
"324 512 CURVE SMOOTH",
"293 512 OFFCURVE",
"250 500 OFFCURVE",
"195 477 CURVE",
"195 499 LINE",
"61 499 LINE",
"61 0 LINE",
"195 0 LINE",
"195 371 LINE",
"213 376 LINE SMOOTH",
"249 385 OFFCURVE",
"277 389 OFFCURVE",
"296 389 CURVE SMOOTH",
"340 389 OFFCURVE",
"362 346 OFFCURVE",
"362 261 CURVE SMOOTH",
"362 0 LINE SMOOTH",
"362 -72 OFFCURVE",
"350 -86 OFFCURVE",
"258 -137 CURVE",
"318 -248 LINE"
);
}
);
width = 552;
},
{
layerId = "7BE58B69-D6A5-4645-9194-9194354D517E";
paths = (
{
closed = 1;
nodes = (
"442 -168 OFFCURVE",
"471 -126 OFFCURVE",
"471 -2 CURVE SMOOTH",
"471 260 LINE SMOOTH",
"471 440 OFFCURVE",
"432 510 OFFCURVE",
"304 510 CURVE SMOOTH",
"257 510 OFFCURVE",
"204 496 OFFCURVE",
"146 467 CURVE",
"146 500 LINE",
"72 500 LINE",
"72 0 LINE",
"146 0 LINE",
"146 405 LINE",
"168 414 LINE SMOOTH",
"197 427 OFFCURVE",
"253 442 OFFCURVE",
"292 442 CURVE SMOOTH",
"376 442 OFFCURVE",
"396 392 OFFCURVE",
"396 259 CURVE SMOOTH",
"396 -4 LINE SMOOTH",
"396 -91 OFFCURVE",
"378 -117 OFFCURVE",
"278 -174 CURVE",
"310 -237 LINE"
);
}
);
width = 538;
}
);
leftKerningGroup = m;
rightKerningGroup = h;
unicode = 014B;
},
{
glyphname = OE;
layers = (
{
layerId = "E174F030-6324-451A-8951-EA6336064495";
paths = (
{
closed = 1;
nodes = (
"335 -12 OFFCURVE",
"374 -8 OFFCURVE",
"425 0 CURVE",
"861 0 LINE",
"861 132 LINE",
"559 132 LINE",
"559 284 LINE",
"801 284 LINE",
"801 415 LINE",
"559 415 LINE",
"559 558 LINE",
"861 558 LINE",
"861 690 LINE",
"423 690 LINE",
"374 698 OFFCURVE",
"335 702 OFFCURVE",
"306 702 CURVE",
"115 702 OFFCURVE",
"46 605 OFFCURVE",
"46 348 CURVE",
"46 91 OFFCURVE",
"105 -12 OFFCURVE",
"306 -12 CURVE"
);
},
{
closed = 1;
nodes = (
"214 124 OFFCURVE",
"188 177 OFFCURVE",
"188 325 CURVE",
"188 472 OFFCURVE",
"195 566 OFFCURVE",
"312 566 CURVE",
"339 566 OFFCURVE",
"376 564 OFFCURVE",
"423 560 CURVE",
"423 130 LINE",
"378 126 OFFCURVE",
"347 124 OFFCURVE",
"330 124 CURVE"
);
}
);
width = 902;
},
{
layerId = "7BE58B69-D6A5-4645-9194-9194354D517E";
paths = (
{
closed = 1;
nodes = (
"356 -10 OFFCURVE",
"404 -7 OFFCURVE",
"465 -1 CURVE",
"878 -1 LINE",
"878 74 LINE",
"539 74 LINE",
"539 319 LINE",
"818 319 LINE",
"818 393 LINE",
"539 393 LINE",
"539 622 LINE",
"878 622 LINE",
"878 696 LINE",
"463 696 LINE",
"422 703 OFFCURVE",
"375 706 OFFCURVE",
"322 706 CURVE SMOOTH",
"123 706 OFFCURVE",
"57 597 OFFCURVE",
"57 347 CURVE SMOOTH",
"57 97 OFFCURVE",
"118 -10 OFFCURVE",
"322 -10 CURVE SMOOTH"
);
},
{
closed = 1;
nodes = (
"176 65 OFFCURVE",
"137 141 OFFCURVE",
"137 347 CURVE SMOOTH",
"137 553 OFFCURVE",
"179 631 OFFCURVE",
"330 631 CURVE SMOOTH",
"349 631 OFFCURVE",
"393 628 OFFCURVE",
"463 622 CURVE",
"463 72 LINE",
"410 67 OFFCURVE",
"367 65 OFFCURVE",
"332 65 CURVE SMOOTH"
);
}
);
width = 925;
}
);
leftKerningGroup = G;
rightKerningGroup = E;
unicode = 0152;
},
{
glyphname = oe;
layers = (
{
layerId = "E174F030-6324-451A-8951-EA6336064495";
paths = (
{
closed = 1;
nodes = (
"335 -12 OFFCURVE",
"390 11 OFFCURVE",
"422 56 CURVE",
"452 11 OFFCURVE",
"501 -12 OFFCURVE",
"568 -12 CURVE",
"635 -12 OFFCURVE",
"706 -3 OFFCURVE",
"783 16 CURVE",
"781 120 LINE",
"753 118 LINE",
"688 113 OFFCURVE",
"632 111 OFFCURVE",
"587 111 CURVE",
"527 111 OFFCURVE",
"496 135 OFFCURVE",
"495 192 CURVE",
"789 192 LINE",
"799 286 LINE",
"799 436 OFFCURVE",
"726 511 OFFCURVE",
"581 511 CURVE",
"512 511 OFFCURVE",
"463 490 OFFCURVE",
"428 430 CURVE",
"393 489 OFFCURVE",
"343 511 OFFCURVE",
"266 511 CURVE",
"101 511 OFFCURVE",
"36 415 OFFCURVE",
"36 250 CURVE",
"36 85 OFFCURVE",
"103 -12 OFFCURVE",
"258 -12 CURVE"
);
},
{
closed = 1;
nodes = (
"195 109 OFFCURVE",
"172 153 OFFCURVE",
"172 250 CURVE",
"172 347 OFFCURVE",
"195 390 OFFCURVE",
"266 390 CURVE",
"337 390 OFFCURVE",
"360 347 OFFCURVE",
"360 250 CURVE",
"360 153 OFFCURVE",
"337 109 OFFCURVE",
"266 109 CURVE"
);
},
{
closed = 1;
nodes = (
"494 362 OFFCURVE",
"518 392 OFFCURVE",
"581 392 CURVE",
"644 392 OFFCURVE",
"667 366 OFFCURVE",
"667 295 CURVE",
"494 295 LINE"
);
}
);
width = 834;
},
{
layerId = "7BE58B69-D6A5-4645-9194-9194354D517E";
paths = (
{
closed = 1;
nodes = (
"357 -10 OFFCURVE",
"409 17 OFFCURVE",
"438 81 CURVE",
"467 20 OFFCURVE",
"521 -10 OFFCURVE",
"600 -10 CURVE SMOOTH",
"654 -10 OFFCURVE",
"719 -5 OFFCURVE",
"794 6 CURVE",
"792 67 LINE",
"763 65 LINE SMOOTH",
"696 60 OFFCURVE",
"641 58 OFFCURVE",
"600 58 CURVE SMOOTH",
"517 58 OFFCURVE",
"478 109 OFFCURVE",
"478 218 CURVE",
"808 218 LINE",
"812 276 LINE",
"812 437 OFFCURVE",
"746 510 OFFCURVE",
"611 510 CURVE SMOOTH",
"528 510 OFFCURVE",
"471 475 OFFCURVE",
"441 405 CURVE",
"410 480 OFFCURVE",
"356 510 OFFCURVE",
"265 510 CURVE SMOOTH",
"110 510 OFFCURVE",
"50 435 OFFCURVE",
"50 252 CURVE SMOOTH",
"50 68 OFFCURVE",
"101 -10 OFFCURVE",
"265 -10 CURVE SMOOTH"
);
},
{
closed = 1;
nodes = (
"153 57 OFFCURVE",
"127 110 OFFCURVE",
"127 254 CURVE SMOOTH",
"127 397 OFFCURVE",
"161 442 OFFCURVE",
"262 442 CURVE SMOOTH",
"363 442 OFFCURVE",
"401 390 OFFCURVE",
"401 251 CURVE SMOOTH",
"401 112 OFFCURVE",
"376 57 OFFCURVE",
"265 57 CURVE SMOOTH"
);
},
{
closed = 1;
nodes = (
"477 388 OFFCURVE",
"522 443 OFFCURVE",
"611 443 CURVE SMOOTH",
"700 443 OFFCURVE",
"737 398 OFFCURVE",
"737 279 CURVE",
"477 279 LINE"
);
}
);
width = 857;
}
);
leftKerningGroup = c;
rightKerningGroup = e;
unicode = 0153;
},
{
glyphname = tcaron;
layers = (
{
components = (
{
name = t;
}
);
layerId = "E174F030-6324-451A-8951-EA6336064495";
paths = (
{
closed = 1;
nodes = (
"506 430 LINE",
"506 690 LINE",
"376 690 LINE",
"376 430 LINE"
);
}
);
width = 487;
},
{
components = (
{
name = t;
}
);
layerId = "7BE58B69-D6A5-4645-9194-9194354D517E";
paths = (
{
closed = 1;
nodes = (
"442 462 LINE",
"442 696 LINE",
"370 696 LINE",
"370 462 LINE"
);
}
);
width = 432;
}
);
leftKerningGroup = t;
rightKerningGroup = numbersign;
unicode = 0165;
},
{
glyphname = Tbar;
layers = (
{
layerId = "E174F030-6324-451A-8951-EA6336064495";
paths = (
{
closed = 1;
nodes = (
"334 0 LINE",
"334 253 LINE",
"473 253 LINE",
"473 369 LINE",
"334 369 LINE",
"334 558 LINE",
"514 558 LINE",
"514 680 LINE",
"14 680 LINE",
"14 558 LINE",
"196 558 LINE",
"196 369 LINE",
"64 369 LINE",
"64 253 LINE",
"196 253 LINE",
"196 0 LINE"
);
}
);
width = 528;
},
{
layerId = "7BE58B69-D6A5-4645-9194-9194354D517E";
paths = (
{
closed = 1;
nodes = (
"304 0 LINE",
"304 300 LINE",
"468 300 LINE",
"468 366 LINE",
"304 366 LINE",
"304 623 LINE",
"515 623 LINE",
"515 692 LINE",
"15 692 LINE",
"15 623 LINE",
"228 623 LINE",
"228 366 LINE",
"65 366 LINE",
"65 300 LINE",
"228 300 LINE",
"228 0 LINE"
);
}
);
width = 529;
}
);
leftKerningGroup = T;
rightKerningGroup = T;
unicode = 0166;
},
{
glyphname = tbar;
layers = (
{
layerId = "E174F030-6324-451A-8951-EA6336064495";
paths = (
{
closed = 1;
nodes = (
"261 -12 OFFCURVE",
"295 -7 OFFCURVE",
"340 3 CURVE",
"334 118 LINE",
"258 116 LINE SMOOTH",
"216 116 OFFCURVE",
"216 146 OFFCURVE",
"216 189 CURVE SMOOTH",
"216 209 LINE",
"311 209 LINE",
"311 309 LINE",
"216 309 LINE",
"216 378 LINE",
"339 378 LINE",
"339 499 LINE",
"216 499 LINE",
"216 639 LINE",
"82 639 LINE",
"82 499 LINE",
"23 499 LINE",
"23 378 LINE",
"82 378 LINE",
"82 309 LINE",
"52 309 LINE",
"52 209 LINE",
"82 209 LINE",
"82 178 LINE SMOOTH",
"82 33 OFFCURVE",
"118 -12 OFFCURVE",
"238 -12 CURVE SMOOTH"
);
}
);
width = 365;
},
{
layerId = "7BE58B69-D6A5-4645-9194-9194354D517E";
paths = (
{
closed = 1;
nodes = (
"262 -11 OFFCURVE",
"296 -7 OFFCURVE",
"340 0 CURVE",
"336 65 LINE",
"247 60 LINE",
"183 60 OFFCURVE",
"175 84 OFFCURVE",
"175 199 CURVE SMOOTH",
"175 253 LINE",
"309 253 LINE",
"309 312 LINE",
"175 312 LINE",
"175 432 LINE",
"333 432 LINE",
"333 500 LINE",
"175 500 LINE",
"175 653 LINE",
"100 653 LINE",
"100 500 LINE",
"29 500 LINE",
"29 432 LINE",
"100 432 LINE",
"100 312 LINE",
"45 312 LINE",
"45 253 LINE",
"100 253 LINE",
"100 172 LINE SMOOTH",
"100 31 OFFCURVE",
"134 -11 OFFCURVE",
"239 -11 CURVE SMOOTH"
);
}
);
width = 354;
}
);
leftKerningGroup = t;
rightKerningGroup = t;
unicode = 0167;
},
{
glyphname = florin;
layers = (
{
layerId = "E174F030-6324-451A-8951-EA6336064495";
paths = (
{
closed = 1;
nodes = (
"272 -230 OFFCURVE",
"321 -184 OFFCURVE",
"321 -47 CURVE SMOOTH",
"321 386 LINE",
"442 386 LINE",
"442 500 LINE",
"321 500 LINE",
"321 523 LINE SMOOTH",
"321 574 OFFCURVE",
"331 592 OFFCURVE",
"371 592 CURVE SMOOTH",
"391 592 OFFCURVE",
"416 591 OFFCURVE",
"445 590 CURVE",
"445 699 LINE",
"424 702 LINE",
"387 709 OFFCURVE",
"357 712 OFFCURVE",
"333 712 CURVE SMOOTH",
"222 712 OFFCURVE",
"187 667 OFFCURVE",
"187 524 CURVE SMOOTH",
"187 500 LINE",
"133 500 LINE",
"133 386 LINE",
"187 386 LINE",
"187 -44 LINE SMOOTH",
"187 -88 OFFCURVE",
"170 -110 OFFCURVE",
"136 -110 CURVE SMOOTH",
"117 -110 OFFCURVE",
"87 -109 OFFCURVE",
"44 -107 CURVE",
"44 -217 LINE",
"60 -220 LINE",
"88 -227 OFFCURVE",
"119 -230 OFFCURVE",
"153 -230 CURVE SMOOTH"
);
}
);
width = 560;
},
{
layerId = "7BE58B69-D6A5-4645-9194-9194354D517E";
paths = (
{
closed = 1;
nodes = (
"240 -235 OFFCURVE",
"281 -190 OFFCURVE",
"281 -55 CURVE SMOOTH",
"281 366 LINE",
"426 366 LINE",
"426 430 LINE",
"281 430 LINE",
"281 506 LINE SMOOTH",
"281 583 OFFCURVE",
"306 621 OFFCURVE",
"355 621 CURVE SMOOTH",
"382 621 OFFCURVE",
"410 620 OFFCURVE",
"440 617 CURVE",
"441 680 LINE",
"425 682 LINE SMOOTH",
"388 687 OFFCURVE",
"360 689 OFFCURVE",
"341 689 CURVE SMOOTH",
"234 689 OFFCURVE",
"206 615 OFFCURVE",
"206 484 CURVE SMOOTH",
"206 430 LINE",
"143 430 LINE",
"143 366 LINE",
"206 366 LINE",
"206 -54 LINE SMOOTH",
"206 -138 OFFCURVE",
"182 -168 OFFCURVE",
"135 -168 CURVE SMOOTH",
"112 -168 OFFCURVE",
"80 -166 OFFCURVE",
"40 -163 CURVE",
"39 -227 LINE",
"54 -229 LINE SMOOTH",
"84 -233 OFFCURVE",
"112 -235 OFFCURVE",
"137 -235 CURVE SMOOTH"
);
}
);
width = 560;
}
);
rightKerningGroup = numbersign;
unicode = 0192;
},
{
glyphname = circumflex;
layers = (
{
layerId = "E174F030-6324-451A-8951-EA6336064495";
paths = (
{
closed = 1;
nodes = (
"99 580 LINE",
"145 647 LINE",
"191 580 LINE",
"314 580 LINE",
"186 731 LINE",
"102 731 LINE",
"-24 580 LINE"
);
}
);
width = 268;
},
{
layerId = "7BE58B69-D6A5-4645-9194-9194354D517E";
paths = (
{
closed = 1;
nodes = (
"56 592 LINE",
"131 679 LINE",
"204 592 LINE",
"279 592 LINE",
"155 732 LINE",
"104 732 LINE",
"-19 592 LINE"
);
}
);
width = 236;
}
);
rightKerningGroup = numbersign;
unicode = 02C6;
},
{
glyphname = caron;
layers = (
{
layerId = "E174F030-6324-451A-8951-EA6336064495";
paths = (
{
closed = 1;
nodes = (
"106 580 LINE",
"190 580 LINE",
"318 731 LINE",
"195 731 LINE",
"149 664 LINE",
"103 731 LINE",
"-20 731 LINE"
);
}
);
width = 268;
},
{
layerId = "7BE58B69-D6A5-4645-9194-9194354D517E";
paths = (
{
closed = 1;
nodes = (
"106 592 LINE",
"157 592 LINE",
"281 732 LINE",
"206 732 LINE",
"133 645 LINE",
"58 732 LINE",
"-17 732 LINE"
);
}
);
width = 236;
}
);
rightKerningGroup = numbersign;
unicode = 02C7;
},
{
glyphname = breve;
layers = (
{
layerId = "E174F030-6324-451A-8951-EA6336064495";
paths = (
{
closed = 1;
nodes = (
"239 573 OFFCURVE",
"297 643 OFFCURVE",
"308 730 CURVE",
"207 730 LINE",
"202 686 OFFCURVE",
"181 664 OFFCURVE",
"144 664 CURVE SMOOTH",
"109 664 OFFCURVE",
"86 689 OFFCURVE",
"81 730 CURVE",
"-20 730 LINE",
"-9 643 OFFCURVE",
"49 573 OFFCURVE",
"144 573 CURVE SMOOTH"
);
}
);
width = 268;
},
{
layerId = "7BE58B69-D6A5-4645-9194-9194354D517E";
paths = (
{
closed = 1;
nodes = (
"219 586 OFFCURVE",
"276 646 OFFCURVE",
"280 726 CURVE",
"218 726 LINE",
"217 675 OFFCURVE",
"184 642 OFFCURVE",
"132 642 CURVE SMOOTH",
"79 642 OFFCURVE",
"47 675 OFFCURVE",
"44 726 CURVE",
"-17 726 LINE",
"-13 646 OFFCURVE",
"44 586 OFFCURVE",
"132 586 CURVE SMOOTH"
);
}
);
width = 236;
}
);
rightKerningGroup = numbersign;
unicode = 02D8;
},
{
glyphname = dotaccent;
layers = (
{
layerId = "E174F030-6324-451A-8951-EA6336064495";
paths = (
{
closed = 1;
nodes = (
"201 556 LINE",
"201 691 LINE",
"67 691 LINE",
"67 556 LINE"
);
}
);
width = 268;
},
{
layerId = "7BE58B69-D6A5-4645-9194-9194354D517E";
paths = (
{
closed = 1;
nodes = (
"155 609 LINE",
"155 696 LINE",
"81 696 LINE",
"81 609 LINE"
);
}
);
width = 236;
}
);
rightKerningGroup = numbersign;
unicode = 02D9;
},
{
glyphname = ring;
layers = (
{
layerId = "E174F030-6324-451A-8951-EA6336064495";
paths = (
{
closed = 1;
nodes = (
"203 521 OFFCURVE",
"254 572 OFFCURVE",
"254 638 CURVE",
"254 704 OFFCURVE",
"203 755 OFFCURVE",
"137 755 CURVE",
"71 755 OFFCURVE",
"20 704 OFFCURVE",
"20 638 CURVE",
"20 572 OFFCURVE",
"71 521 OFFCURVE",
"137 521 CURVE"
);
},
{
closed = 1;
nodes = (
"111 593 OFFCURVE",
"92 612 OFFCURVE",
"92 638 CURVE",
"92 664 OFFCURVE",
"111 683 OFFCURVE",
"137 683 CURVE",
"163 683 OFFCURVE",
"182 664 OFFCURVE",
"182 638 CURVE",
"182 612 OFFCURVE",
"163 593 OFFCURVE",
"137 593 CURVE"
);
}
);
width = 268;
},
{
layerId = "7BE58B69-D6A5-4645-9194-9194354D517E";
paths = (
{
closed = 1;
nodes = (
"179 541 OFFCURVE",
"223 587 OFFCURVE",
"223 646 CURVE",
"223 703 OFFCURVE",
"179 749 OFFCURVE",
"122 749 CURVE",
"65 749 OFFCURVE",
"21 703 OFFCURVE",
"21 646 CURVE",
"21 587 OFFCURVE",
"65 541 OFFCURVE",
"122 541 CURVE"
);
},
{
closed = 1;
nodes = (
"91 589 OFFCURVE",
"67 614 OFFCURVE",
"67 646 CURVE",
"67 677 OFFCURVE",
"91 702 OFFCURVE",
"122 702 CURVE",
"153 702 OFFCURVE",
"177 677 OFFCURVE",
"177 646 CURVE",
"177 614 OFFCURVE",
"153 589 OFFCURVE",
"122 589 CURVE"
);
}
);
width = 236;
}
);
rightKerningGroup = numbersign;
unicode = 02DA;
},
{
glyphname = ogonek;
layers = (
{
layerId = "E174F030-6324-451A-8951-EA6336064495";
paths = (
{
closed = 1;
nodes = (
"356 -216 OFFCURVE",
"391 -212 OFFCURVE",
"430 -205 CURVE",
"418 -110 LINE",
"376 -114 LINE",
"355 -114 OFFCURVE",
"344 -103 OFFCURVE",
"344 -80 CURVE SMOOTH",
"344 -57 OFFCURVE",
"363 -30 OFFCURVE",
"402 1 CURVE",
"300 11 LINE",
"280 -4 LINE SMOOTH",
"253 -24 OFFCURVE",
"219 -71 OFFCURVE",
"219 -124 CURVE SMOOTH",
"219 -177 OFFCURVE",
"265 -216 OFFCURVE",
"326 -216 CURVE SMOOTH"
);
}
);
width = 474;
},
{
layerId = "7BE58B69-D6A5-4645-9194-9194354D517E";
paths = (
{
closed = 1;
nodes = (
"302 -206 OFFCURVE",
"329 -203 OFFCURVE",
"359 -197 CURVE",
"352 -139 LINE",
"302 -145 LINE",
"278 -145 OFFCURVE",
"261 -127 OFFCURVE",
"261 -102 CURVE SMOOTH",
"261 -80 OFFCURVE",
"285 -46 OFFCURVE",
"332 1 CURVE",
"271 8 LINE",
"250 -10 LINE",
"223 -35 OFFCURVE",
"188 -82 OFFCURVE",
"188 -126 CURVE SMOOTH",
"188 -170 OFFCURVE",
"228 -206 OFFCURVE",
"277 -206 CURVE SMOOTH"
);
}
);
width = 450;
}
);
rightKerningGroup = numbersign;
unicode = 02DB;
},
{
glyphname = tilde;
layers = (
{
layerId = "E174F030-6324-451A-8951-EA6336064495";
paths = (
{
closed = 1;
nodes = (
"251 585 OFFCURVE",
"301 626 OFFCURVE",
"318 647 CURVE",
"289 723 LINE",
"275 714 LINE SMOOTH",
"247 697 OFFCURVE",
"225 689 OFFCURVE",
"209 689 CURVE SMOOTH",
"201 689 OFFCURVE",
"182 695 OFFCURVE",
"151 707 CURVE SMOOTH",
"120 719 OFFCURVE",
"97 725 OFFCURVE",
"82 725 CURVE SMOOTH",
"52 725 OFFCURVE",
"5 696 OFFCURVE",
"-22 665 CURVE",
"7 590 LINE",
"20 598 LINE SMOOTH",
"45 613 OFFCURVE",
"67 621 OFFCURVE",
"86 621 CURVE SMOOTH",
"95 621 OFFCURVE",
"114 615 OFFCURVE",
"145 603 CURVE SMOOTH",
"176 591 OFFCURVE",
"199 585 OFFCURVE",
"214 585 CURVE SMOOTH"
);
}
);
width = 268;
},
{
layerId = "7BE58B69-D6A5-4645-9194-9194354D517E";
paths = (
{
closed = 1;
nodes = (
"227 612 OFFCURVE",
"255 629 OFFCURVE",
"286 663 CURVE",
"269 711 LINE",
"256 702 LINE",
"231 683 OFFCURVE",
"212 673 OFFCURVE",
"198 673 CURVE SMOOTH",
"190 673 OFFCURVE",
"169 681 OFFCURVE",
"134 696 CURVE SMOOTH",
"99 711 OFFCURVE",
"75 719 OFFCURVE",
"61 719 CURVE SMOOTH",
"34 719 OFFCURVE",
"3 702 OFFCURVE",
"-30 667 CURVE",
"-12 619 LINE",
"1 629 LINE SMOOTH",
"27 649 OFFCURVE",
"48 659 OFFCURVE",
"63 659 CURVE SMOOTH",
"72 659 OFFCURVE",
"93 651 OFFCURVE",
"128 636 CURVE",
"162 620 OFFCURVE",
"186 612 OFFCURVE",
"200 612 CURVE SMOOTH"
);
}
);
width = 236;
}
);
rightKerningGroup = numbersign;
unicode = 02DC;
},
{
glyphname = hungarumlaut;
layers = (
{
layerId = "E174F030-6324-451A-8951-EA6336064495";
paths = (
{
closed = 1;
nodes = (
"380 751 LINE",
"271 818 LINE",
"154 628 LINE",
"255 563 LINE"
);
},
{
closed = 1;
nodes = (
"176 751 LINE",
"67 817 LINE",
"-50 628 LINE",
"51 563 LINE"
);
}
);
width = 268;
},
{
layerId = "7BE58B69-D6A5-4645-9194-9194354D517E";
paths = (
{
closed = 1;
nodes = (
"341 720 LINE",
"287 763 LINE",
"142 624 LINE",
"193 582 LINE"
);
},
{
closed = 1;
nodes = (
"148 720 LINE",
"94 762 LINE",
"-51 624 LINE",
"1 582 LINE"
);
}
);
width = 236;
}
);
rightKerningGroup = numbersign;
unicode = 02DD;
},
{
glyphname = pi;
layers = (
{
layerId = "E174F030-6324-451A-8951-EA6336064495";
paths = (
{
closed = 1;
nodes = (
"523 104 LINE",
"468 104 OFFCURVE",
"454 118 OFFCURVE",
"454 154 CURVE",
"454 388 LINE",
"487 390 OFFCURVE",
"512 395 OFFCURVE",
"528 402 CURVE",
"528 512 LINE",
"514 509 LINE",
"485 503 OFFCURVE",
"453 500 OFFCURVE",
"419 500 CURVE",
"168 500 LINE",
"111 500 OFFCURVE",
"61 494 OFFCURVE",
"18 482 CURVE",
"18 373 LINE",
"33 376 LINE",
"60 383 OFFCURVE",
"85 386 OFFCURVE",
"106 386 CURVE",
"74 0 LINE",
"209 0 LINE",
"235 386 LINE",
"320 386 LINE",
"320 154 LINE",
"320 22 OFFCURVE",
"346 -10 OFFCURVE",
"523 -10 CURVE"
);
}
);
width = 560;
},
{
layerId = "7BE58B69-D6A5-4645-9194-9194354D517E";
paths = (
{
closed = 1;
nodes = (
"521 61 LINE",
"450 61 OFFCURVE",
"434 79 OFFCURVE",
"434 154 CURVE SMOOTH",
"434 437 LINE",
"479 438 OFFCURVE",
"511 443 OFFCURVE",
"530 451 CURVE",
"530 514 LINE",
"514 510 LINE",
"481 503 OFFCURVE",
"442 500 OFFCURVE",
"399 500 CURVE SMOOTH",
"164 500 LINE SMOOTH",
"109 500 OFFCURVE",
"61 495 OFFCURVE",
"22 485 CURVE",
"22 422 LINE",
"34 425 LINE SMOOTH",
"62 432 OFFCURVE",
"94 435 OFFCURVE",
"130 435 CURVE",
"99 0 LINE",
"175 0 LINE",
"203 435 LINE",
"359 435 LINE",
"359 154 LINE SMOOTH",
"359 26 OFFCURVE",
"389 -4 OFFCURVE",
"521 -4 CURVE"
);
}
);
width = 560;
}
);
rightKerningGroup = numbersign;
unicode = 03C0;
},
{
glyphname = endash;
layers = (
{
layerId = "E174F030-6324-451A-8951-EA6336064495";
paths = (
{
closed = 1;
nodes = (
"557 209 LINE",
"557 323 LINE",
"57 323 LINE",
"57 209 LINE"
);
}
);
width = 614;
},
{
layerId = "7BE58B69-D6A5-4645-9194-9194354D517E";
paths = (
{
closed = 1;
nodes = (
"566 235 LINE",
"566 301 LINE",
"66 301 LINE",
"66 235 LINE"
);
}
);
width = 631;
}
);
leftKerningGroup = hyphen;
rightKerningGroup = hyphen;
unicode = 2013;
},
{
glyphname = emdash;
layers = (
{
layerId = "E174F030-6324-451A-8951-EA6336064495";
paths = (
{
closed = 1;
nodes = (
"1057 209 LINE",
"1057 323 LINE",
"57 323 LINE",
"57 209 LINE"
);
}
);
width = 1114;
},
{
layerId = "7BE58B69-D6A5-4645-9194-9194354D517E";
paths = (
{
closed = 1;
nodes = (
"1066 235 LINE",
"1066 301 LINE",
"66 301 LINE",
"66 235 LINE"
);
}
);
width = 1131;
}
);
leftKerningGroup = hyphen;
rightKerningGroup = hyphen;
unicode = 2014;
},
{
glyphname = quoteleft;
layers = (
{
layerId = "E174F030-6324-451A-8951-EA6336064495";
paths = (
{
closed = 1;
nodes = (
"175 432 LINE",
"223 679 LINE",
"120 679 LINE",
"35 432 LINE"
);
}
);
width = 259;
},
{
layerId = "7BE58B69-D6A5-4645-9194-9194354D517E";
paths = (
{
closed = 1;
nodes = (
"130 489 LINE",
"174 708 LINE",
"115 708 LINE",
"51 489 LINE"
);
}
);
width = 219;
}
);
leftKerningGroup = quoteleft;
rightKerningGroup = quoteleft;
unicode = 2018;
},
{
glyphname = quoteright;
layers = (
{
layerId = "E174F030-6324-451A-8951-EA6336064495";
paths = (
{
closed = 1;
nodes = (
"89 680 LINE",
"41 433 LINE",
"144 433 LINE",
"229 680 LINE"
);
}
);
width = 254;
},
{
layerId = "7BE58B69-D6A5-4645-9194-9194354D517E";
paths = (
{
closed = 1;
nodes = (
"97 708 LINE",
"53 489 LINE",
"112 489 LINE",
"176 708 LINE"
);
}
);
width = 216;
}
);
leftKerningGroup = quoteright;
rightKerningGroup = quoteright;
unicode = 2019;
},
{
glyphname = quotesinglbase;
layers = (
{
layerId = "E174F030-6324-451A-8951-EA6336064495";
paths = (
{
closed = 1;
nodes = (
"71 130 LINE",
"23 -117 LINE",
"126 -117 LINE",
"211 130 LINE"
);
}
);
width = 256;
},
{
layerId = "7BE58B69-D6A5-4645-9194-9194354D517E";
paths = (
{
closed = 1;
nodes = (
"84 -21 LINE",
"93 22 LINE",
"81 22 LINE",
"68 -21 LINE"
);
}
);
width = 218;
}
);
leftKerningGroup = comma;
rightKerningGroup = comma;
unicode = 201A;
},
{
glyphname = quotedblleft;
layers = (
{
layerId = "E174F030-6324-451A-8951-EA6336064495";
paths = (
{
closed = 1;
nodes = (
"175 432 LINE",
"223 679 LINE",
"120 679 LINE",
"35 432 LINE"
);
},
{
closed = 1;
nodes = (
"359 432 LINE",
"407 679 LINE",
"304 679 LINE",
"219 432 LINE"
);
}
);
width = 443;
},
{
layerId = "7BE58B69-D6A5-4645-9194-9194354D517E";
paths = (
{
closed = 1;
nodes = (
"130 489 LINE",
"174 708 LINE",
"115 708 LINE",
"51 489 LINE"
);
},
{
closed = 1;
nodes = (
"283 489 LINE",
"327 708 LINE",
"268 708 LINE",
"204 489 LINE"
);
}
);
width = 373;
}
);
leftKerningGroup = quoteleft;
rightKerningGroup = quoteleft;
unicode = 201C;
},
{
glyphname = quotedblright;
layers = (
{
layerId = "E174F030-6324-451A-8951-EA6336064495";
paths = (
{
closed = 1;
nodes = (
"89 680 LINE",
"41 433 LINE",
"144 433 LINE",
"229 680 LINE"
);
},
{
closed = 1;
nodes = (
"273 680 LINE",
"225 433 LINE",
"328 433 LINE",
"413 680 LINE"
);
}
);
width = 439;
},
{
layerId = "7BE58B69-D6A5-4645-9194-9194354D517E";
paths = (
{
closed = 1;
nodes = (
"257 709 LINE",
"213 490 LINE",
"272 490 LINE",
"336 709 LINE"
);
},
{
closed = 1;
nodes = (
"104 709 LINE",
"60 490 LINE",
"119 490 LINE",
"183 709 LINE"
);
}
);
width = 377;
}
);
leftKerningGroup = quoteright;
rightKerningGroup = quoteright;
unicode = 201D;
},
{
glyphname = quotedblbase;
layers = (
{
layerId = "E174F030-6324-451A-8951-EA6336064495";
paths = (
{
closed = 1;
nodes = (
"133 -130 LINE",
"181 117 LINE",
"78 117 LINE",
"-7 -130 LINE"
);
},
{
closed = 1;
nodes = (
"317 -130 LINE",
"365 117 LINE",
"262 117 LINE",
"177 -130 LINE"
);
}
);
width = 421;
},
{
layerId = "7BE58B69-D6A5-4645-9194-9194354D517E";
paths = (
{
closed = 1;
nodes = (
"101 -107 LINE",
"145 112 LINE",
"86 112 LINE",
"22 -107 LINE"
);
},
{
closed = 1;
nodes = (
"254 -107 LINE",
"298 112 LINE",
"239 112 LINE",
"175 -107 LINE"
);
}
);
width = 359;
}
);
leftKerningGroup = comma;
rightKerningGroup = comma;
unicode = 201E;
},
{
glyphname = dagger;
layers = (
{
layerId = "E174F030-6324-451A-8951-EA6336064495";
paths = (
{
closed = 1;
nodes = (
"297 -71 LINE",
"307 386 LINE",
"452 386 LINE",
"452 500 LINE",
"307 500 LINE",
"307 680 LINE",
"173 680 LINE",
"173 500 LINE",
"28 500 LINE",
"28 386 LINE",
"173 386 LINE",
"183 -71 LINE"
);
}
);
width = 480;
},
{
layerId = "7BE58B69-D6A5-4645-9194-9194354D517E";
paths = (
{
closed = 1;
nodes = (
"272 -76 LINE",
"276 434 LINE",
"444 434 LINE",
"444 500 LINE",
"276 500 LINE",
"276 692 LINE",
"202 692 LINE",
"202 500 LINE",
"34 500 LINE",
"34 434 LINE",
"202 434 LINE",
"206 -76 LINE"
);
}
);
width = 478;
}
);
rightKerningGroup = numbersign;
unicode = 2020;
},
{
glyphname = daggerdbl;
layers = (
{
layerId = "E174F030-6324-451A-8951-EA6336064495";
paths = (
{
closed = 1;
nodes = (
"323 -71 LINE",
"323 109 LINE",
"468 109 LINE",
"468 223 LINE",
"323 223 LINE",
"323 386 LINE",
"467 386 LINE",
"467 500 LINE",
"323 500 LINE",
"323 680 LINE",
"189 680 LINE",
"189 500 LINE",
"44 500 LINE",
"44 386 LINE",
"189 386 LINE",
"189 223 LINE",
"44 223 LINE",
"44 109 LINE",
"189 109 LINE",
"189 -71 LINE"
);
}
);
width = 512;
},
{
layerId = "7BE58B69-D6A5-4645-9194-9194354D517E";
paths = (
{
closed = 1;
nodes = (
"298 -76 LINE",
"298 116 LINE",
"466 116 LINE",
"466 181 LINE",
"298 181 LINE",
"298 434 LINE",
"465 434 LINE",
"465 500 LINE",
"298 500 LINE",
"298 692 LINE",
"223 692 LINE",
"223 500 LINE",
"55 500 LINE",
"55 434 LINE",
"223 434 LINE",
"223 181 LINE",
"55 181 LINE",
"55 116 LINE",
"223 116 LINE",
"223 -76 LINE"
);
}
);
width = 521;
}
);
rightKerningGroup = numbersign;
unicode = 2021;
},
